GenI102.ufo
<glyph name="quotedbl" format="1">
  <advance width="791"/>
  <unicode hex="0022"/>
  <outline>
    <contour>
      <point x="631" y="874" type="line"/>
      <point x="615" y="865"/>
      <point x="579" y="858"/>
      <point x="557" y="858" type="qcurve"/>
      <point x="590" y="1382" type="line"/>
      <point x="602" y="1388"/>
      <point x="634" y="1403"/>
      <point x="668" y="1416"/>
      <point x="699" y="1427"/>
      <point x="709" y="1430" type="qcurve"/>
      <point x="745" y="1409" type="line"/>
    </contour>
    <contour>
      <point x="305" y="874" type="line"/>
      <point x="288" y="865"/>
      <point x="253" y="858"/>
      <point x="231" y="858" type="qcurve"/>
      <point x="264" y="1382" type="line"/>
      <point x="276" y="1388"/>
      <point x="308" y="1403"/>
      <point x="342" y="1416"/>
      <point x="373" y="1427"/>
      <point x="383" y="1430" type="qcurve"/>
      <point x="420" y="1409" type="line"/>
    </contour>
  </outline>
</glyph>
<glyph name="percent" format="1">
  <advance width="1315"/>
  <unicode hex="0025"/>
  <outline>
    <contour>
      <point x="1075" y="387" type="qcurve" smooth="yes"/>
      <point x="1075" y="478"/>
      <point x="1014" y="565"/>
      <point x="971" y="565" type="qcurve" smooth="yes"/>
      <point x="940" y="565"/>
      <point x="894" y="527"/>
      <point x="859" y="466"/>
      <point x="836" y="389"/>
      <point x="823" y="311"/>
      <point x="817" y="240"/>
      <point x="817" y="215" type="qcurve" smooth="yes"/>
      <point x="817" y="131"/>
      <point x="875" y="51"/>
      <point x="922" y="51" type="qcurve" smooth="yes"/>
      <point x="952" y="51"/>
      <point x="997" y="87"/>
      <point x="1031" y="145"/>
      <point x="1054" y="219"/>
      <point x="1069" y="294"/>
      <point x="1075" y="362"/>
    </contour>
    <contour>
      <point x="506" y="975" type="qcurve" smooth="yes"/>
      <point x="506" y="1066"/>
      <point x="444" y="1153"/>
      <point x="399" y="1153" type="qcurve" smooth="yes"/>
      <point x="368" y="1153"/>
      <point x="322" y="1115"/>
      <point x="288" y="1054"/>
      <point x="265" y="977"/>
      <point x="252" y="899"/>
      <point x="246" y="828"/>
      <point x="246" y="803" type="qcurve" smooth="yes"/>
      <point x="246" y="719"/>
      <point x="306" y="639"/>
      <point x="352" y="639" type="qcurve" smooth="yes"/>
      <point x="381" y="639"/>
      <point x="427" y="675"/>
      <point x="461" y="734"/>
      <point x="485" y="807"/>
      <point x="499" y="882"/>
      <point x="506" y="950"/>
    </contour>
    <contour>
      <point x="256" y="16" type="line" smooth="yes"/>
      <point x="246" y="9"/>
      <point x="211" y="-6"/>
      <point x="172" y="-19"/>
      <point x="135" y="-31"/>
      <point x="123" y="-35" type="qcurve"/>
      <point x="104" y="0" type="line"/>
      <point x="1067" y="1188" type="line"/>
      <point x="1095" y="1205"/>
      <point x="1168" y="1229"/>
      <point x="1196" y="1237" type="qcurve"/>
      <point x="1221" y="1204" type="line"/>
    </contour>
    <contour>
      <point x="641" y="965" type="qcurve" smooth="yes"/>
      <point x="641" y="922"/>
      <point x="620" y="827"/>
      <point x="580" y="737"/>
      <point x="523" y="655"/>
      <point x="451" y="593"/>
      <point x="364" y="557"/>
      <point x="315" y="557" type="qcurve" smooth="yes"/>
      <point x="267" y="557"/>
      <point x="192" y="599"/>
      <point x="139" y="672"/>
      <point x="111" y="772"/>
      <point x="111" y="829" type="qcurve" smooth="yes"/>
      <point x="111" y="873"/>
      <point x="132" y="967"/>
      <point x="172" y="1057"/>
      <point x="229" y="1138"/>
      <point x="302" y="1199"/>
      <point x="387" y="1235"/>
      <point x="436" y="1235" type="qcurve" smooth="yes"/>
      <point x="484" y="1235"/>
      <point x="561" y="1194"/>
      <point x="613" y="1121"/>
      <point x="641" y="1022"/>
    </contour>
    <contour>
      <point x="1212" y="377" type="qcurve" smooth="yes"/>
      <point x="1212" y="311"/>
      <point x="1165" y="167"/>
      <point x="1079" y="47"/>
      <point x="960" y="-31"/>
      <point x="887" y="-31" type="qcurve" smooth="yes"/>
      <point x="839" y="-31"/>
      <point x="763" y="11"/>
      <point x="710" y="84"/>
      <point x="682" y="184"/>
      <point x="682" y="242" type="qcurve" smooth="yes"/>
      <point x="682" y="285"/>
      <point x="703" y="379"/>
      <point x="743" y="469"/>
      <point x="800" y="550"/>
      <point x="872" y="611"/>
      <point x="958" y="647"/>
      <point x="1006" y="647" type="qcurve" smooth="yes"/>
      <point x="1055" y="647"/>
      <point x="1132" y="606"/>
      <point x="1184" y="533"/>
      <point x="1212" y="434"/>
    </contour>
  </outline>
</glyph>
<glyph name="ampersand" format="1">
  <advance width="1190"/>
  <unicode hex="0026"/>
  <outline>
    <contour>
      <point x="516" y="1130" type="qcurve" smooth="yes"/>
      <point x="508" y="1072"/>
      <point x="521" y="946"/>
      <point x="538" y="880" type="qcurve"/>
      <point x="541" y="881"/>
      <point x="547" y="885" type="qcurve" smooth="yes"/>
      <point x="609" y="920"/>
      <point x="696" y="991"/>
      <point x="751" y="1061"/>
      <point x="781" y="1129"/>
      <point x="786" y="1161" type="qcurve" smooth="yes"/>
      <point x="793" y="1198"/>
      <point x="789" y="1264"/>
      <point x="764" y="1314"/>
      <point x="715" y="1343"/>
      <point x="678" y="1343" type="qcurve" smooth="yes"/>
      <point x="642" y="1343"/>
      <point x="586" y="1306"/>
      <point x="546" y="1246"/>
      <point x="521" y="1169"/>
    </contour>
    <contour>
      <point x="446" y="84" type="qcurve" smooth="yes"/>
      <point x="526" y="84"/>
      <point x="663" y="135"/>
      <point x="720" y="177" type="qcurve"/>
      <point x="681" y="229"/>
      <point x="602" y="352"/>
      <point x="529" y="487"/>
      <point x="464" y="631"/>
      <point x="440" y="705" type="qcurve"/>
      <point x="385" y="662"/>
      <point x="306" y="583"/>
      <point x="252" y="505"/>
      <point x="221" y="426"/>
      <point x="215" y="383" type="qcurve" smooth="yes"/>
      <point x="206" y="313"/>
      <point x="238" y="202"/>
      <point x="304" y="125"/>
      <point x="396" y="84"/>
    </contour>
    <contour>
      <point x="1274" y="748" type="line"/>
      <point x="1248" y="717"/>
      <point x="1198" y="676"/>
      <point x="1174" y="659" type="qcurve"/>
      <point x="1159" y="668"/>
      <point x="1119" y="682"/>
      <point x="1079" y="693"/>
      <point x="1039" y="699"/>
      <point x="1024" y="700" type="qcurve"/>
      <point x="1031" y="682"/>
      <point x="1038" y="648"/>
      <point x="1040" y="607"/>
      <point x="1036" y="556"/>
      <point x="1032" y="522" type="qcurve" smooth="yes"/>
      <point x="1022" y="453"/>
      <point x="949" y="300"/>
      <point x="891" y="228" type="qcurve"/>
      <point x="915" y="199"/>
      <point x="960" y="148"/>
      <point x="981" y="127" type="qcurve" smooth="yes"/>
      <point x="1012" y="95"/>
      <point x="1089" y="74"/>
      <point x="1143" y="88" type="qcurve"/>
      <point x="1145" y="45" type="line"/>
      <point x="1060" y="7"/>
      <point x="950" y="-31"/>
      <point x="930" y="-31" type="qcurve" smooth="yes"/>
      <point x="910" y="-31"/>
      <point x="827" y="44"/>
      <point x="773" y="110" type="qcurve"/>
      <point x="695" y="47"/>
      <point x="508" y="-31"/>
      <point x="403" y="-31" type="qcurve" smooth="yes"/>
      <point x="319" y="-31"/>
      <point x="184" y="22"/>
      <point x="94" y="122"/>
      <point x="55" y="269"/>
      <point x="68" y="362" type="qcurve" smooth="yes"/>
      <point x="83" y="474"/>
      <point x="263" y="697"/>
      <point x="413" y="801" type="qcurve"/>
      <point x="396" y="872"/>
      <point x="384" y="1008"/>
      <point x="393" y="1073" type="qcurve" smooth="yes"/>
      <point x="404" y="1154"/>
      <point x="470" y="1292"/>
      <point x="565" y="1393"/>
      <point x="681" y="1450"/>
      <point x="741" y="1450" type="qcurve" smooth="yes"/>
      <point x="798" y="1450"/>
      <point x="873" y="1407"/>
      <point x="914" y="1336"/>
      <point x="925" y="1244"/>
      <point x="918" y="1194" type="qcurve" smooth="yes"/>
      <point x="902" y="1092"/>
      <point x="748" y="912"/>
      <point x="633" y="838" type="qcurve" smooth="yes"/>
      <point x="615" y="827"/>
      <point x="581" y="805"/>
      <point x="564" y="794" type="qcurve"/>
      <point x="587" y="728"/>
      <point x="649" y="596"/>
      <point x="721" y="468"/>
      <point x="799" y="349"/>
      <point x="838" y="297" type="qcurve"/>
      <point x="870" y="342"/>
      <point x="910" y="437"/>
      <point x="918" y="481" type="qcurve" smooth="yes"/>
      <point x="925" y="529"/>
      <point x="910" y="611"/>
      <point x="876" y="671"/>
      <point x="828" y="705"/>
      <point x="801" y="705" type="qcurve"/>
      <point x="784" y="733" type="line"/>
      <point x="797" y="746"/>
      <point x="838" y="776"/>
      <point x="858" y="784" type="qcurve"/>
      <point x="1257" y="784" type="line"/>
      <point x="1274" y="748" type="line"/>
    </contour>
  </outline>
</glyph>
<glyph name="parenleft" format="1">
  <advance width="604"/>
  <unicode hex="0028"/>
  <outline>
    <contour>
      <point x="705" y="1559" type="line"/>
      <point x="636" y="1511"/>
      <point x="505" y="1342"/>
      <point x="393" y="1114"/>
      <point x="308" y="832"/>
      <point x="285" y="672" type="qcurve" smooth="yes"/>
      <point x="265" y="526"/>
      <point x="268" y="244"/>
      <point x="310" y="-4"/>
      <point x="391" y="-206"/>
      <point x="449" y="-270" type="qcurve"/>
      <point x="412" y="-315" type="line"/>
      <point x="318" y="-265"/>
      <point x="188" y="-73"/>
      <point x="115" y="181"/>
      <point x="102" y="482"/>
      <point x="125" y="641" type="qcurve" smooth="yes"/>
      <point x="148" y="805"/>
      <point x="249" y="1110"/>
      <point x="394" y="1365"/>
      <point x="577" y="1555"/>
      <point x="682" y="1604" type="qcurve"/>
      <point x="705" y="1559" type="line"/>
    </contour>
  </outline>
</glyph>
<glyph name="asterisk" format="1">
  <advance width="725"/>
  <unicode hex="002A"/>
  <outline>
    <contour>
      <point x="415" y="1188" type="line"/>
      <point x="686" y="1384" type="line"/>
      <point x="695" y="1377"/>
      <point x="717" y="1361"/>
      <point x="740" y="1343"/>
      <point x="759" y="1325"/>
      <point x="764" y="1317" type="qcurve"/>
      <point x="760" y="1276" type="line"/>
      <point x="436" y="1134" type="line"/>
      <point x="698" y="1006" type="line"/>
      <point x="693" y="981"/>
      <point x="681" y="913"/>
      <point x="672" y="891" type="qcurve"/>
      <point x="635" y="868" type="line"/>
      <point x="401" y="1081" type="line"/>
      <point x="391" y="756" type="line"/>
      <point x="380" y="750"/>
      <point x="352" y="735"/>
      <point x="324" y="722"/>
      <point x="297" y="711"/>
      <point x="287" y="709" type="qcurve"/>
      <point x="256" y="727" type="line"/>
      <point x="343" y="1079" type="line"/>
      <point x="72" y="883" type="line"/>
      <point x="53" y="897"/>
      <point x="5" y="935"/>
      <point x="-6" y="950" type="qcurve"/>
      <point x="0" y="993" type="line"/>
      <point x="321" y="1133" type="line"/>
      <point x="59" y="1262" type="line"/>
      <point x="62" y="1274"/>
      <point x="67" y="1305"/>
      <point x="74" y="1337"/>
      <point x="81" y="1366"/>
      <point x="86" y="1376" type="qcurve"/>
      <point x="123" y="1399" type="line"/>
      <point x="356" y="1188" type="line"/>
      <point x="367" y="1513" type="line"/>
      <point x="377" y="1519"/>
      <point x="404" y="1533"/>
      <point x="433" y="1547"/>
      <point x="460" y="1558"/>
      <point x="471" y="1561" type="qcurve"/>
      <point x="504" y="1540" type="line"/>
    </contour>
  </outline>
</glyph>
<glyph name="comma" format="1">
  <advance width="410"/>
  <unicode hex="002C"/>
  <outline>
    <contour>
      <point x="303" y="102" type="qcurve" smooth="yes"/>
      <point x="303" y="77"/>
      <point x="280" y="8"/>
      <point x="239" y="-68"/>
      <point x="185" y="-148"/>
      <point x="121" y="-222"/>
      <point x="51" y="-284"/>
      <point x="16" y="-305" type="qcurve"/>
      <point x="-18" y="-270" type="line"/>
      <point x="135" y="-108"/>
      <point x="135" y="0" type="qcurve" smooth="yes"/>
      <point x="135" y="18"/>
      <point x="124" y="53"/>
      <point x="99" y="77"/>
      <point x="58" y="88"/>
      <point x="27" y="84" type="qcurve"/>
      <point x="18" y="129" type="line"/>
      <point x="29" y="141"/>
      <point x="88" y="175"/>
      <point x="157" y="207"/>
      <point x="222" y="230"/>
      <point x="238" y="229" type="qcurve"/>
      <point x="256" y="219"/>
      <point x="280" y="200"/>
      <point x="296" y="173"/>
      <point x="303" y="133"/>
    </contour>
  </outline>
</glyph>
<glyph name="two" format="1">
  <advance width="823"/>
  <unicode hex="0032"/>
  <outline>
    <contour>
      <point x="784" y="1006" type="qcurve" smooth="yes"/>
      <point x="784" y="944"/>
      <point x="728" y="792"/>
      <point x="588" y="584"/>
      <point x="348" y="305"/>
      <point x="164" y="115" type="qcurve"/>
      <point x="539" y="115" type="line" smooth="yes"/>
      <point x="562" y="115"/>
      <point x="601" y="153"/>
      <point x="628" y="206"/>
      <point x="648" y="262"/>
      <point x="657" y="298"/>
      <point x="657" y="299" type="qcurve" smooth="yes"/>
      <point x="700" y="287" type="line"/>
      <point x="649" y="0" type="line"/>
      <point x="14" y="0" type="line"/>
      <point x="0" y="74" type="line"/>
      <point x="182" y="255"/>
      <point x="428" y="535"/>
      <point x="577" y="752"/>
      <point x="641" y="914"/>
      <point x="641" y="977" type="qcurve" smooth="yes"/>
      <point x="641" y="1049"/>
      <point x="551" y="1141"/>
      <point x="467" y="1141" type="qcurve" smooth="yes"/>
      <point x="430" y="1141"/>
      <point x="369" y="1103"/>
      <point x="324" y="1043"/>
      <point x="295" y="969"/>
      <point x="291" y="934" type="qcurve"/>
      <point x="275" y="925"/>
      <point x="248" y="909"/>
      <point x="220" y="896"/>
      <point x="189" y="887"/>
      <point x="168" y="885" type="qcurve"/>
      <point x="147" y="915" type="line"/>
      <point x="154" y="967"/>
      <point x="227" y="1080"/>
      <point x="336" y="1174"/>
      <point x="472" y="1235"/>
      <point x="541" y="1235" type="qcurve" smooth="yes"/>
      <point x="591" y="1235"/>
      <point x="679" y="1208"/>
      <point x="745" y="1152"/>
      <point x="784" y="1066"/>
    </contour>
  </outline>
</glyph>
<glyph name="three" format="1">
  <advance width="823"/>
  <unicode hex="0033"/>
  <outline>
    <contour>
      <point x="733" y="1001" type="qcurve" smooth="yes"/>
      <point x="733" y="947"/>
      <point x="698" y="854"/>
      <point x="636" y="777"/>
      <point x="552" y="718"/>
      <point x="504" y="698" type="qcurve"/>
      <point x="549" y="692"/>
      <point x="625" y="644"/>
      <point x="679" y="570"/>
      <point x="709" y="478"/>
      <point x="709" y="428" type="qcurve" smooth="yes"/>
      <point x="709" y="334"/>
      <point x="647" y="167"/>
      <point x="533" y="42"/>
      <point x="371" y="-31"/>
      <point x="270" y="-31" type="qcurve" smooth="yes"/>
      <point x="199" y="-31"/>
      <point x="63" y="40"/>
      <point x="-12" y="119" type="qcurve"/>
      <point x="27" y="186" type="line"/>
      <point x="65" y="152"/>
      <point x="126" y="108"/>
      <point x="182" y="82"/>
      <point x="239" y="72"/>
      <point x="274" y="72" type="qcurve" smooth="yes"/>
      <point x="345" y="72"/>
      <point x="452" y="126"/>
      <point x="524" y="218"/>
      <point x="561" y="336"/>
      <point x="561" y="401" type="qcurve" smooth="yes"/>
      <point x="561" y="459"/>
      <point x="526" y="543"/>
      <point x="470" y="597"/>
      <point x="398" y="623"/>
      <point x="362" y="623" type="qcurve" smooth="yes"/>
      <point x="350" y="623"/>
      <point x="344" y="623" type="qcurve" smooth="yes"/>
      <point x="339" y="623"/>
      <point x="330" y="621"/>
      <point x="317" y="619"/>
      <point x="303" y="616" type="qcurve"/>
      <point x="297" y="676" type="line"/>
      <point x="355" y="693"/>
      <point x="461" y="740"/>
      <point x="542" y="810"/>
      <point x="590" y="907"/>
      <point x="590" y="973" type="qcurve" smooth="yes"/>
      <point x="590" y="1004"/>
      <point x="573" y="1065"/>
      <point x="537" y="1112"/>
      <point x="480" y="1141"/>
      <point x="440" y="1141" type="qcurve" smooth="yes"/>
      <point x="405" y="1141"/>
      <point x="348" y="1114"/>
      <point x="307" y="1068"/>
      <point x="286" y="1007"/>
      <point x="287" y="973" type="qcurve"/>
      <point x="253" y="956"/>
      <point x="194" y="937"/>
      <point x="156" y="934" type="qcurve"/>
      <point x="135" y="965" type="line"/>
      <point x="141" y="1007"/>
      <point x="208" y="1102"/>
      <point x="308" y="1182"/>
      <point x="432" y="1235"/>
      <point x="496" y="1235" type="qcurve" smooth="yes"/>
      <point x="556" y="1235"/>
      <point x="646" y="1196"/>
      <point x="704" y="1131"/>
      <point x="733" y="1046"/>
    </contour>
  </outline>
</glyph>
<glyph name="five" format="1">
  <advance width="823"/>
  <unicode hex="0035"/>
  <outline>
    <contour>
      <point x="799" y="1194" type="line"/>
      <point x="787" y="1178"/>
      <point x="757" y="1144"/>
      <point x="727" y="1114"/>
      <point x="698" y="1088"/>
      <point x="686" y="1079" type="qcurve"/>
      <point x="338" y="1079" type="line"/>
      <point x="332" y="1050"/>
      <point x="309" y="957"/>
      <point x="283" y="861"/>
      <point x="259" y="776"/>
      <point x="252" y="754" type="qcurve"/>
      <point x="289" y="766"/>
      <point x="388" y="780"/>
      <point x="434" y="780" type="qcurve" smooth="yes"/>
      <point x="503" y="780"/>
      <point x="611" y="730"/>
      <point x="684" y="646"/>
      <point x="723" y="536"/>
      <point x="723" y="477" type="qcurve" smooth="yes"/>
      <point x="723" y="417"/>
      <point x="697" y="296"/>
      <point x="648" y="183"/>
      <point x="576" y="84"/>
      <point x="483" y="11"/>
      <point x="369" y="-31"/>
      <point x="303" y="-31" type="qcurve" smooth="yes"/>
      <point x="220" y="-31"/>
      <point x="67" y="40"/>
      <point x="-4" y="119" type="qcurve"/>
      <point x="37" y="186" type="line"/>
      <point x="82" y="151"/>
      <point x="155" y="106"/>
      <point x="217" y="81"/>
      <point x="269" y="72"/>
      <point x="295" y="72" type="qcurve" smooth="yes"/>
      <point x="370" y="72"/>
      <point x="476" y="139"/>
      <point x="543" y="245"/>
      <point x="575" y="378"/>
      <point x="575" y="444" type="qcurve" smooth="yes"/>
      <point x="575" y="493"/>
      <point x="547" y="576"/>
      <point x="493" y="636"/>
      <point x="415" y="670"/>
      <point x="365" y="670" type="qcurve" smooth="yes"/>
      <point x="263" y="670"/>
      <point x="156" y="590" type="qcurve"/>
      <point x="119" y="623" type="line"/>
      <point x="129" y="659"/>
      <point x="156" y="754"/>
      <point x="186" y="860"/>
      <point x="216" y="970"/>
      <point x="243" y="1075"/>
      <point x="265" y="1169"/>
      <point x="272" y="1204" type="qcurve"/>
      <point x="666" y="1204" type="line" smooth="yes"/>
      <point x="698" y="1204"/>
      <point x="750" y="1214"/>
      <point x="774" y="1222"/>
      <point x="776" y="1223" type="qcurve" smooth="yes"/>
      <point x="799" y="1194" type="line"/>
    </contour>
  </outline>
</glyph>
<glyph name="nine" format="1">
  <advance width="823"/>
  <unicode hex="0039"/>
  <outline>
    <contour>
      <point x="420" y="555" type="qcurve" smooth="yes"/>
      <point x="494" y="555"/>
      <point x="603" y="631"/>
      <point x="645" y="693" type="qcurve"/>
      <point x="649" y="728"/>
      <point x="653" y="799"/>
      <point x="653" y="836" type="qcurve" smooth="yes"/>
      <point x="653" y="917"/>
      <point x="623" y="1029"/>
      <point x="575" y="1099"/>
      <point x="514" y="1130"/>
      <point x="483" y="1130" type="qcurve" smooth="yes"/>
      <point x="438" y="1130"/>
      <point x="367" y="1097"/>
      <point x="314" y="1042"/>
      <point x="277" y="969"/>
      <point x="254" y="889"/>
      <point x="244" y="807"/>
      <point x="244" y="770" type="qcurve" smooth="yes"/>
      <point x="244" y="705"/>
      <point x="279" y="621"/>
      <point x="331" y="573"/>
      <point x="393" y="555"/>
    </contour>
    <contour>
      <point x="803" y="862" type="qcurve" smooth="yes"/>
      <point x="803" y="691"/>
      <point x="707" y="383"/>
      <point x="522" y="140"/>
      <point x="251" y="-20"/>
      <point x="76" y="-43" type="qcurve"/>
      <point x="68" y="16" type="line"/>
      <point x="186" y="43"/>
      <point x="371" y="147"/>
      <point x="509" y="291"/>
      <point x="600" y="470"/>
      <point x="624" y="574" type="qcurve"/>
      <point x="572" y="515"/>
      <point x="441" y="444"/>
      <point x="367" y="444" type="qcurve" smooth="yes"/>
      <point x="307" y="444"/>
      <point x="210" y="486"/>
      <point x="141" y="561"/>
      <point x="104" y="664"/>
      <point x="104" y="725" type="qcurve" smooth="yes"/>
      <point x="104" y="781"/>
      <point x="134" y="901"/>
      <point x="188" y="1014"/>
      <point x="266" y="1115"/>
      <point x="362" y="1191"/>
      <point x="473" y="1235"/>
      <point x="535" y="1235" type="qcurve" smooth="yes"/>
      <point x="589" y="1235"/>
      <point x="687" y="1190"/>
      <point x="760" y="1098"/>
      <point x="803" y="957"/>
    </contour>
  </outline>
</glyph>
<glyph name="less" format="1">
  <advance width="838"/>
  <unicode hex="003C"/>
  <outline>
    <contour>
      <point x="737" y="315" type="line"/>
      <point x="726" y="305"/>
      <point x="709" y="291"/>
      <point x="691" y="279"/>
      <point x="670" y="265"/>
      <point x="655" y="256" type="qcurve"/>
      <point x="74" y="502" type="line"/>
      <point x="51" y="530" type="line" smooth="yes"/>
      <point x="51" y="532"/>
      <point x="53" y="536" type="qcurve" smooth="yes"/>
      <point x="55" y="540"/>
      <point x="55" y="540" type="qcurve" smooth="yes"/>
      <point x="56" y="542"/>
      <point x="57" y="548"/>
      <point x="58" y="550" type="qcurve" smooth="yes"/>
      <point x="60" y="555"/>
      <point x="63" y="565"/>
      <point x="65" y="570" type="qcurve" smooth="yes"/>
      <point x="67" y="576"/>
      <point x="72" y="588"/>
      <point x="74" y="595" type="qcurve" smooth="yes"/>
      <point x="76" y="600"/>
      <point x="81" y="609"/>
      <point x="83" y="614" type="qcurve" smooth="yes"/>
      <point x="84" y="617"/>
      <point x="86" y="621" type="qcurve" smooth="yes"/>
      <point x="86" y="621"/>
      <point x="88" y="625" type="qcurve" smooth="yes"/>
      <point x="803" y="899" type="line"/>
      <point x="821" y="874" type="line"/>
      <point x="817" y="863"/>
      <point x="808" y="835"/>
      <point x="797" y="807"/>
      <point x="787" y="781"/>
      <point x="782" y="772" type="qcurve"/>
      <point x="234" y="563" type="line"/>
      <point x="729" y="354" type="line"/>
      <point x="737" y="315" type="line"/>
    </contour>
  </outline>
</glyph>
<glyph name="question" format="1">
  <advance width="813"/>
  <unicode hex="003F"/>
  <outline>
    <contour>
      <point x="442" y="152" type="qcurve" smooth="yes"/>
      <point x="442" y="121"/>
      <point x="421" y="56"/>
      <point x="382" y="3"/>
      <point x="327" y="-31"/>
      <point x="293" y="-31" type="qcurve" smooth="yes"/>
      <point x="255" y="-31"/>
      <point x="209" y="23"/>
      <point x="209" y="68" type="qcurve" smooth="yes"/>
      <point x="209" y="97"/>
      <point x="232" y="160"/>
      <point x="272" y="212"/>
      <point x="326" y="246"/>
      <point x="358" y="246" type="qcurve" smooth="yes"/>
      <point x="397" y="246"/>
      <point x="442" y="194"/>
    </contour>
    <contour>
      <point x="809" y="1186" type="qcurve" smooth="yes"/>
      <point x="809" y="1098"/>
      <point x="758" y="966"/>
      <point x="680" y="858"/>
      <point x="587" y="766"/>
      <point x="502" y="668"/>
      <point x="437" y="557"/>
      <point x="426" y="485" type="qcurve" smooth="yes"/>
      <point x="414" y="389" type="line"/>
      <point x="395" y="375"/>
      <point x="365" y="356"/>
      <point x="340" y="348" type="qcurve"/>
      <point x="317" y="369" type="line"/>
      <point x="322" y="485" type="line" smooth="yes"/>
      <point x="323" y="552"/>
      <point x="373" y="664"/>
      <point x="446" y="766"/>
      <point x="530" y="861"/>
      <point x="601" y="959"/>
      <point x="649" y="1066"/>
      <point x="649" y="1128" type="qcurve" smooth="yes"/>
      <point x="649" y="1228"/>
      <point x="562" y="1335"/>
      <point x="475" y="1335" type="qcurve" smooth="yes"/>
      <point x="434" y="1335"/>
      <point x="370" y="1297"/>
      <point x="331" y="1232"/>
      <point x="319" y="1146"/>
      <point x="328" y="1098" type="qcurve"/>
      <point x="306" y="1088"/>
      <point x="271" y="1075"/>
      <point x="238" y="1066"/>
      <point x="204" y="1061"/>
      <point x="182" y="1059" type="qcurve"/>
      <point x="162" y="1090" type="line"/>
      <point x="162" y="1154"/>
      <point x="218" y="1276"/>
      <point x="322" y="1372"/>
      <point x="469" y="1430"/>
      <point x="561" y="1430" type="qcurve" smooth="yes"/>
      <point x="625" y="1430"/>
      <point x="718" y="1392"/>
      <point x="779" y="1326"/>
      <point x="809" y="1237"/>
    </contour>
  </outline>
</glyph>
<glyph name="at" format="1">
  <advance width="1593"/>
  <unicode hex="0040"/>
  <outline>
    <contour>
      <point x="999" y="760" type="qcurve" smooth="yes"/>
      <point x="999" y="763"/>
      <point x="1000" y="764" type="qcurve"/>
      <point x="985" y="776"/>
      <point x="952" y="799"/>
      <point x="914" y="819"/>
      <point x="873" y="831"/>
      <point x="850" y="831" type="qcurve" smooth="yes"/>
      <point x="805" y="831"/>
      <point x="726" y="786"/>
      <point x="662" y="712"/>
      <point x="612" y="617"/>
      <point x="579" y="516"/>
      <point x="561" y="418"/>
      <point x="561" y="379" type="qcurve" smooth="yes"/>
      <point x="561" y="314"/>
      <point x="583" y="210"/>
      <point x="620" y="136"/>
      <point x="671" y="96"/>
      <point x="700" y="96" type="qcurve" smooth="yes"/>
      <point x="725" y="96"/>
      <point x="786" y="156"/>
      <point x="850" y="252"/>
      <point x="914" y="370"/>
      <point x="942" y="428" type="qcurve"/>
      <point x="949" y="474"/>
      <point x="966" y="576"/>
      <point x="982" y="667"/>
      <point x="996" y="741"/>
    </contour>
    <contour>
      <point x="1161" y="842" type="line"/>
      <point x="1159" y="840"/>
      <point x="1159" y="840" type="qcurve"/>
      <point x="1152" y="826"/>
      <point x="1142" y="788"/>
      <point x="1137" y="760" type="qcurve" smooth="yes"/>
      <point x="1122" y="688"/>
      <point x="1096" y="537"/>
      <point x="1077" y="403"/>
      <point x="1067" y="301"/>
      <point x="1067" y="279" type="qcurve" smooth="yes"/>
      <point x="1067" y="222"/>
      <point x="1077" y="150"/>
      <point x="1094" y="109"/>
      <point x="1116" y="94"/>
      <point x="1128" y="94" type="qcurve" smooth="yes"/>
      <point x="1153" y="94"/>
      <point x="1230" y="160"/>
      <point x="1306" y="274"/>
      <point x="1369" y="425"/>
      <point x="1382" y="510" type="qcurve" smooth="yes"/>
      <point x="1399" y="623"/>
      <point x="1383" y="815"/>
      <point x="1326" y="971"/>
      <point x="1235" y="1091"/>
      <point x="1118" y="1172"/>
      <point x="981" y="1214"/>
      <point x="907" y="1214" type="qcurve" smooth="yes"/>
      <point x="815" y="1214"/>
      <point x="649" y="1159"/>
      <point x="507" y="1061"/>
      <point x="390" y="927"/>
      <point x="301" y="769"/>
      <point x="242" y="594"/>
      <point x="229" y="504" type="qcurve" smooth="yes"/>
      <point x="204" y="322"/>
      <point x="273" y="40"/>
      <point x="430" y="-155"/>
      <point x="660" y="-256"/>
      <point x="795" y="-256" type="qcurve" smooth="yes"/>
      <point x="870" y="-256"/>
      <point x="1018" y="-221"/>
      <point x="1148" y="-168"/>
      <point x="1252" y="-108"/>
      <point x="1284" y="-82" type="qcurve"/>
      <point x="1300" y="-137" type="line"/>
      <point x="1262" y="-175"/>
      <point x="1147" y="-259"/>
      <point x="1001" y="-329"/>
      <point x="828" y="-375"/>
      <point x="731" y="-375" type="qcurve" smooth="yes"/>
      <point x="565" y="-375"/>
      <point x="301" y="-257"/>
      <point x="127" y="-38"/>
      <point x="55" y="273"/>
      <point x="82" y="465" type="qcurve" smooth="yes"/>
      <point x="98" y="578"/>
      <point x="179" y="794"/>
      <point x="301" y="986"/>
      <point x="460" y="1149"/>
      <point x="644" y="1267"/>
      <point x="851" y="1333"/>
      <point x="961" y="1333" type="qcurve" smooth="yes"/>
      <point x="1094" y="1333"/>
      <point x="1316" y="1229"/>
      <point x="1466" y="1028"/>
      <point x="1528" y="736"/>
      <point x="1501" y="549" type="qcurve" smooth="yes"/>
      <point x="1489" y="463"/>
      <point x="1432" y="308"/>
      <point x="1352" y="177"/>
      <point x="1258" y="72"/>
      <point x="1160" y="-2"/>
      <point x="1065" y="-41"/>
      <point x="1026" y="-41" type="qcurve" smooth="yes"/>
      <point x="1008" y="-41"/>
      <point x="973" y="-16"/>
      <point x="944" y="53"/>
      <point x="926" y="174"/>
      <point x="926" y="271" type="qcurve"/>
      <point x="901" y="226"/>
      <point x="835" y="117"/>
      <point x="760" y="22"/>
      <point x="679" y="-41"/>
      <point x="637" y="-41" type="qcurve" smooth="yes"/>
      <point x="603" y="-41"/>
      <point x="528" y="-3"/>
      <point x="465" y="80"/>
      <point x="424" y="211"/>
      <point x="424" y="305" type="qcurve" smooth="yes"/>
      <point x="424" y="384"/>
      <point x="455" y="535"/>
      <point x="520" y="673"/>
      <point x="621" y="794"/>
      <point x="692" y="842" type="qcurve" smooth="yes"/>
      <point x="719" y="860"/>
      <point x="783" y="894"/>
      <point x="852" y="920"/>
      <point x="920" y="936"/>
      <point x="952" y="936" type="qcurve" smooth="yes"/>
      <point x="993" y="936"/>
      <point x="1064" y="897"/>
      <point x="1094" y="877" type="qcurve"/>
      <point x="1117" y="894"/>
      <point x="1166" y="923"/>
      <point x="1192" y="936" type="qcurve"/>
      <point x="1212" y="901" type="line"/>
      <point x="1192" y="885"/>
      <point x="1168" y="860"/>
      <point x="1160" y="842" type="qcurve"/>
      <point x="1161" y="842" type="line"/>
    </contour>
  </outline>
</glyph>
<glyph name="C" format="1">
  <advance width="995"/>
  <unicode hex="0043"/>
  <outline>
    <contour>
      <point x="1016" y="1190" type="qcurve" smooth="yes"/>
      <point x="1020" y="1185"/>
      <point x="998" y="1151"/>
      <point x="963" y="1109"/>
      <point x="924" y="1068"/>
      <point x="911" y="1057" type="qcurve"/>
      <point x="881" y="1065" type="line"/>
      <point x="840" y="1110"/>
      <point x="723" y="1169"/>
      <point x="641" y="1169" type="qcurve" smooth="yes"/>
      <point x="601" y="1169"/>
      <point x="501" y="1131"/>
      <point x="461" y="1100" type="qcurve" smooth="yes"/>
      <point x="398" y="1051"/>
      <point x="309" y="903"/>
      <point x="253" y="740"/>
      <point x="227" y="579"/>
      <point x="227" y="516" type="qcurve" smooth="yes"/>
      <point x="227" y="407"/>
      <point x="286" y="248"/>
      <point x="379" y="145"/>
      <point x="490" y="96"/>
      <point x="543" y="96" type="qcurve" smooth="yes"/>
      <point x="599" y="96"/>
      <point x="756" y="167"/>
      <point x="868" y="256" type="qcurve"/>
      <point x="873" y="254"/>
      <point x="881" y="241"/>
      <point x="889" y="227"/>
      <point x="895" y="214"/>
      <point x="897" y="211" type="qcurve" smooth="yes"/>
      <point x="829" y="143"/>
      <point x="710" y="51"/>
      <point x="602" y="-4"/>
      <point x="504" y="-27"/>
      <point x="457" y="-27" type="qcurve" smooth="yes"/>
      <point x="382" y="-27"/>
      <point x="244" y="38"/>
      <point x="139" y="162"/>
      <point x="76" y="343"/>
      <point x="76" y="459" type="qcurve" smooth="yes"/>
      <point x="76" y="553"/>
      <point x="113" y="748"/>
      <point x="191" y="933"/>
      <point x="313" y="1100"/>
      <point x="397" y="1167" type="qcurve" smooth="yes"/>
      <point x="470" y="1224"/>
      <point x="639" y="1290"/>
      <point x="733" y="1290" type="qcurve" smooth="yes"/>
      <point x="832" y="1290"/>
      <point x="972" y="1232"/>
    </contour>
  </outline>
</glyph>
<glyph name="D" format="1">
  <advance width="1118"/>
  <unicode hex="0044"/>
  <outline>
    <contour>
      <point x="504" y="1206" type="qcurve" smooth="yes"/>
      <point x="489" y="1206"/>
      <point x="474" y="1206" type="qcurve" smooth="yes"/>
      <point x="459" y="1206"/>
      <point x="444" y="1205" type="qcurve"/>
      <point x="298" y="138" type="line"/>
      <point x="299" y="139" type="line"/>
      <point x="296" y="124"/>
      <point x="307" y="104"/>
      <point x="343" y="90"/>
      <point x="406" y="84"/>
      <point x="455" y="84" type="qcurve" smooth="yes"/>
      <point x="529" y="84"/>
      <point x="654" y="140"/>
      <point x="756" y="236"/>
      <point x="835" y="364"/>
      <point x="888" y="507"/>
      <point x="915" y="657"/>
      <point x="915" y="727" type="qcurve" smooth="yes"/>
      <point x="915" y="834"/>
      <point x="861" y="1010"/>
      <point x="757" y="1136"/>
      <point x="604" y="1206"/>
    </contour>
    <contour>
      <point x="1077" y="745" type="qcurve" smooth="yes"/>
      <point x="1077" y="657"/>
      <point x="1043" y="478"/>
      <point x="975" y="313"/>
      <point x="875" y="168"/>
      <point x="742" y="61"/>
      <point x="578" y="0"/>
      <point x="481" y="0" type="qcurve" smooth="yes"/>
      <point x="29" y="0" type="line"/>
      <point x="34" y="2" type="line"/>
      <point x="0" y="0" type="line"/>
      <point x="6" y="43" type="line"/>
      <point x="69" y="57"/>
      <point x="145" y="90"/>
      <point x="147" y="104" type="qcurve" smooth="yes"/>
      <point x="296" y="1193" type="line"/>
      <point x="259" y="1189"/>
      <point x="183" y="1181"/>
      <point x="143" y="1176" type="qcurve"/>
      <point x="143" y="1239" type="line"/>
      <point x="258" y="1267"/>
      <point x="483" y="1290"/>
      <point x="586" y="1290" type="qcurve" smooth="yes"/>
      <point x="703" y="1290"/>
      <point x="885" y="1212"/>
      <point x="1011" y="1070"/>
      <point x="1077" y="869"/>
    </contour>
  </outline>
</glyph>
<glyph name="E" format="1">
  <advance width="946"/>
  <unicode hex="0045"/>
  <outline>
    <contour>
      <point x="856" y="244" type="line"/>
      <point x="836" y="157"/>
      <point x="795" y="29"/>
      <point x="784" y="0" type="qcurve"/>
      <point x="0" y="0" type="line"/>
      <point x="6" y="43" type="line"/>
      <point x="69" y="57"/>
      <point x="145" y="90"/>
      <point x="147" y="104" type="qcurve" smooth="yes"/>
      <point x="293" y="1155" type="line" smooth="yes"/>
      <point x="295" y="1167"/>
      <point x="233" y="1203"/>
      <point x="168" y="1217" type="qcurve"/>
      <point x="174" y="1260" type="line"/>
      <point x="911" y="1260" type="line"/>
      <point x="936" y="1235" type="line"/>
      <point x="931" y="1209"/>
      <point x="916" y="1147"/>
      <point x="897" y="1085"/>
      <point x="877" y="1029"/>
      <point x="868" y="1010" type="qcurve"/>
      <point x="825" y="1010" type="line"/>
      <point x="830" y="1056"/>
      <point x="828" y="1117"/>
      <point x="814" y="1154"/>
      <point x="790" y="1169"/>
      <point x="772" y="1169" type="qcurve" smooth="yes"/>
      <point x="437" y="1169" type="line"/>
      <point x="378" y="735" type="line"/>
      <point x="752" y="735" type="line"/>
      <point x="772" y="707" type="line"/>
      <point x="762" y="693"/>
      <point x="737" y="663"/>
      <point x="710" y="634"/>
      <point x="684" y="609"/>
      <point x="674" y="600" type="qcurve"/>
      <point x="658" y="617"/>
      <point x="622" y="638"/>
      <point x="569" y="650"/>
      <point x="492" y="655"/>
      <point x="436" y="655" type="qcurve" smooth="yes"/>
      <point x="367" y="655" type="line"/>
      <point x="299" y="154" type="line" smooth="yes"/>
      <point x="297" y="139"/>
      <point x="307" y="116"/>
      <point x="345" y="99"/>
      <point x="417" y="90"/>
      <point x="477" y="90" type="qcurve" smooth="yes"/>
      <point x="598" y="90" type="line" smooth="yes"/>
      <point x="640" y="90"/>
      <point x="698" y="100"/>
      <point x="745" y="135"/>
      <point x="789" y="203"/>
      <point x="817" y="262" type="qcurve"/>
      <point x="856" y="244" type="line"/>
    </contour>
  </outline>
</glyph>
<glyph name="N" format="1">
  <advance width="1239"/>
  <unicode hex="004E"/>
  <outline>
    <contour>
      <point x="1288" y="1217" type="line"/>
      <point x="1222" y="1207"/>
      <point x="1155" y="1172"/>
      <point x="1153" y="1155" type="qcurve" smooth="yes"/>
      <point x="989" y="-31" type="line"/>
      <point x="968" y="-28"/>
      <point x="934" y="-20"/>
      <point x="906" y="-4"/>
      <point x="882" y="23"/>
      <point x="870" y="45" type="qcurve" smooth="yes"/>
      <point x="373" y="1004" type="line"/>
      <point x="250" y="104" type="line" smooth="yes"/>
      <point x="247" y="92"/>
      <point x="303" y="54"/>
      <point x="371" y="43" type="qcurve"/>
      <point x="365" y="0" type="line"/>
      <point x="0" y="0" type="line"/>
      <point x="6" y="43" type="line"/>
      <point x="74" y="52"/>
      <point x="141" y="90"/>
      <point x="143" y="104" type="qcurve" smooth="yes"/>
      <point x="289" y="1154" type="line"/>
      <point x="263" y="1184"/>
      <point x="201" y="1209"/>
      <point x="158" y="1217" type="qcurve"/>
      <point x="164" y="1260" type="line"/>
      <point x="342" y="1260" type="line" smooth="yes"/>
      <point x="364" y="1260"/>
      <point x="389" y="1258"/>
      <point x="408" y="1243"/>
      <point x="425" y="1211"/>
      <point x="440" y="1182" type="qcurve" smooth="yes"/>
      <point x="924" y="258" type="line"/>
      <point x="1047" y="1155" type="line" smooth="yes"/>
      <point x="1048" y="1161"/>
      <point x="1036" y="1178"/>
      <point x="1007" y="1195"/>
      <point x="959" y="1211"/>
      <point x="924" y="1217" type="qcurve"/>
      <point x="930" y="1260" type="line"/>
      <point x="1294" y="1260" type="line"/>
    </contour>
  </outline>
</glyph>
<glyph name="Q" format="1">
  <advance width="1135"/>
  <unicode hex="0051"/>
  <outline>
    <contour>
      <point x="936" y="756" type="qcurve" smooth="yes"/>
      <point x="936" y="840"/>
      <point x="900" y="989"/>
      <point x="830" y="1100"/>
      <point x="728" y="1165"/>
      <point x="662" y="1165" type="qcurve" smooth="yes"/>
      <point x="586" y="1165"/>
      <point x="465" y="1106"/>
      <point x="371" y="1008"/>
      <point x="305" y="878"/>
      <point x="262" y="738"/>
      <point x="242" y="595"/>
      <point x="242" y="532" type="qcurve" smooth="yes"/>
      <point x="242" y="439"/>
      <point x="281" y="280"/>
      <point x="353" y="165"/>
      <point x="454" y="100"/>
      <point x="516" y="100" type="qcurve" smooth="yes"/>
      <point x="593" y="100"/>
      <point x="716" y="162"/>
      <point x="809" y="265"/>
      <point x="875" y="400"/>
      <point x="917" y="546"/>
      <point x="936" y="692"/>
    </contour>
    <contour>
      <point x="1104" y="-117" type="line"/>
      <point x="1075" y="-161"/>
      <point x="1019" y="-228"/>
      <point x="968" y="-273"/>
      <point x="926" y="-297"/>
      <point x="911" y="-297" type="qcurve" smooth="yes"/>
      <point x="855" y="-297"/>
      <point x="755" y="-239"/>
      <point x="659" y="-155"/>
      <point x="564" y="-62"/>
      <point x="514" y="-28" type="qcurve"/>
      <point x="493" y="-31"/>
      <point x="471" y="-31" type="qcurve" smooth="yes"/>
      <point x="375" y="-31"/>
      <point x="232" y="51"/>
      <point x="137" y="192"/>
      <point x="90" y="380"/>
      <point x="90" y="485" type="qcurve" smooth="yes"/>
      <point x="90" y="548"/>
      <point x="113" y="689"/>
      <point x="156" y="830"/>
      <point x="218" y="963"/>
      <point x="258" y="1018" type="qcurve" smooth="yes"/>
      <point x="300" y="1074"/>
      <point x="397" y="1173"/>
      <point x="508" y="1247"/>
      <point x="634" y="1290"/>
      <point x="705" y="1290" type="qcurve" smooth="yes"/>
      <point x="803" y="1290"/>
      <point x="947" y="1208"/>
      <point x="1040" y="1067"/>
      <point x="1085" y="879"/>
      <point x="1085" y="774" type="qcurve" smooth="yes"/>
      <point x="1085" y="703"/>
      <point x="1062" y="557"/>
      <point x="1015" y="415"/>
      <point x="946" y="282"/>
      <point x="901" y="225" type="qcurve" smooth="yes"/>
      <point x="847" y="156"/>
      <point x="724" y="45"/>
      <point x="652" y="10" type="qcurve"/>
      <point x="691" y="-14"/>
      <point x="764" y="-73"/>
      <point x="835" y="-125"/>
      <point x="904" y="-160"/>
      <point x="938" y="-160" type="qcurve" smooth="yes"/>
      <point x="950" y="-160"/>
      <point x="975" y="-152"/>
      <point x="1008" y="-134"/>
      <point x="1052" y="-104"/>
      <point x="1083" y="-82" type="qcurve"/>
      <point x="1104" y="-117" type="line"/>
    </contour>
  </outline>
</glyph>
<glyph name="R" format="1">
  <advance width="1077"/>
  <unicode hex="0052"/>
  <outline>
    <contour>
      <point x="514" y="1206" type="qcurve" smooth="yes"/>
      <point x="496" y="1206"/>
      <point x="478" y="1206" type="qcurve" smooth="yes"/>
      <point x="460" y="1206"/>
      <point x="443" y="1205" type="qcurve"/>
      <point x="371" y="678" type="line"/>
      <point x="400" y="670"/>
      <point x="457" y="662"/>
      <point x="485" y="662" type="qcurve" smooth="yes"/>
      <point x="548" y="662"/>
      <point x="664" y="697"/>
      <point x="752" y="766"/>
      <point x="805" y="871"/>
      <point x="805" y="942" type="qcurve" smooth="yes"/>
      <point x="805" y="1016"/>
      <point x="750" y="1117"/>
      <point x="665" y="1179"/>
      <point x="562" y="1206"/>
    </contour>
    <contour>
      <point x="1077" y="109" type="line"/>
      <point x="1038" y="83"/>
      <point x="962" y="38"/>
      <point x="898" y="5"/>
      <point x="847" y="-14"/>
      <point x="834" y="-14" type="qcurve" smooth="yes"/>
      <point x="817" y="-14"/>
      <point x="786" y="-4"/>
      <point x="755" y="25"/>
      <point x="721" y="76"/>
      <point x="702" y="117" type="qcurve" smooth="yes"/>
      <point x="702" y="117"/>
      <point x="675" y="173"/>
      <point x="633" y="261"/>
      <point x="581" y="369"/>
      <point x="531" y="474"/>
      <point x="488" y="564"/>
      <point x="476" y="589" type="qcurve"/>
      <point x="447" y="591"/>
      <point x="386" y="599"/>
      <point x="361" y="605" type="qcurve"/>
      <point x="293" y="104" type="line" smooth="yes"/>
      <point x="290" y="92"/>
      <point x="353" y="57"/>
      <point x="416" y="43" type="qcurve"/>
      <point x="410" y="0" type="line"/>
      <point x="0" y="0" type="line"/>
      <point x="6" y="43" type="line"/>
      <point x="69" y="57"/>
      <point x="145" y="90"/>
      <point x="147" y="104" type="qcurve" smooth="yes"/>
      <point x="296" y="1193" type="line"/>
      <point x="257" y="1188"/>
      <point x="180" y="1175"/>
      <point x="141" y="1167" type="qcurve"/>
      <point x="141" y="1227" type="line"/>
      <point x="186" y="1240"/>
      <point x="277" y="1263"/>
      <point x="377" y="1280"/>
      <point x="491" y="1290"/>
      <point x="559" y="1290" type="qcurve" smooth="yes"/>
      <point x="647" y="1290"/>
      <point x="790" y="1249"/>
      <point x="892" y="1168"/>
      <point x="948" y="1049"/>
      <point x="948" y="971" type="qcurve" smooth="yes"/>
      <point x="948" y="932"/>
      <point x="913" y="819"/>
      <point x="834" y="708"/>
      <point x="706" y="615"/>
      <point x="612" y="597" type="qcurve"/>
      <point x="846" y="184" type="line" smooth="yes"/>
      <point x="864" y="152"/>
      <point x="897" y="118"/>
      <point x="942" y="110"/>
      <point x="1008" y="128"/>
      <point x="1059" y="147" type="qcurve"/>
      <point x="1077" y="109" type="line"/>
    </contour>
  </outline>
</glyph>
<glyph name="U" format="1">
  <advance width="1227"/>
  <unicode hex="0055"/>
  <outline>
    <contour>
      <point x="1280" y="1217" type="line"/>
      <point x="1217" y="1203"/>
      <point x="1147" y="1169"/>
      <point x="1145" y="1155" type="qcurve" smooth="yes"/>
      <point x="1055" y="512" type="line" smooth="yes"/>
      <point x="1037" y="381"/>
      <point x="952" y="178"/>
      <point x="823" y="40"/>
      <point x="656" y="-31"/>
      <point x="557" y="-31" type="qcurve" smooth="yes"/>
      <point x="475" y="-31"/>
      <point x="338" y="19"/>
      <point x="240" y="115"/>
      <point x="186" y="256"/>
      <point x="186" y="348" type="qcurve" smooth="yes"/>
      <point x="186" y="374"/>
      <point x="190" y="432"/>
      <point x="195" y="463" type="qcurve" smooth="yes"/>
      <point x="293" y="1155" type="line" smooth="yes"/>
      <point x="295" y="1167"/>
      <point x="233" y="1203"/>
      <point x="168" y="1217" type="qcurve"/>
      <point x="174" y="1260" type="line"/>
      <point x="584" y="1260" type="line"/>
      <point x="578" y="1217" type="line"/>
      <point x="515" y="1203"/>
      <point x="439" y="1169"/>
      <point x="436" y="1155" type="qcurve" smooth="yes"/>
      <point x="348" y="510" type="line" smooth="yes"/>
      <point x="342" y="451"/>
      <point x="342" y="397" type="qcurve" smooth="yes"/>
      <point x="342" y="327"/>
      <point x="376" y="213"/>
      <point x="443" y="131"/>
      <point x="543" y="86"/>
      <point x="608" y="86" type="qcurve" smooth="yes"/>
      <point x="673" y="86"/>
      <point x="783" y="150"/>
      <point x="866" y="256"/>
      <point x="921" y="394"/>
      <point x="932" y="469" type="qcurve" smooth="yes"/>
      <point x="1024" y="1155" type="line" smooth="yes"/>
      <point x="1027" y="1167"/>
      <point x="970" y="1203"/>
      <point x="905" y="1217" type="qcurve"/>
      <point x="911" y="1260" type="line"/>
      <point x="1286" y="1260" type="line"/>
    </contour>
  </outline>
</glyph>
<glyph name="W" format="1">
  <advance width="1571"/>
  <unicode hex="0057"/>
  <outline>
    <contour>
      <point x="1665" y="1217" type="line"/>
      <point x="1636" y="1210"/>
      <point x="1584" y="1198"/>
      <point x="1544" y="1184"/>
      <point x="1517" y="1167"/>
      <point x="1513" y="1155" type="qcurve" smooth="yes"/>
      <point x="1153" y="59" type="line" smooth="yes"/>
      <point x="1145" y="37"/>
      <point x="1110" y="5"/>
      <point x="1069" y="-16"/>
      <point x="1028" y="-28"/>
      <point x="1016" y="-31" type="qcurve"/>
      <point x="851" y="946" type="line"/>
      <point x="467" y="59" type="line" smooth="yes"/>
      <point x="457" y="36"/>
      <point x="417" y="5"/>
      <point x="373" y="-16"/>
      <point x="331" y="-28"/>
      <point x="319" y="-31" type="qcurve"/>
      <point x="246" y="1147" type="line" smooth="yes"/>
      <point x="244" y="1172"/>
      <point x="194" y="1204"/>
      <point x="129" y="1217" type="qcurve"/>
      <point x="135" y="1260" type="line"/>
      <point x="526" y="1260" type="line"/>
      <point x="520" y="1217" type="line"/>
      <point x="476" y="1212"/>
      <point x="422" y="1197"/>
      <point x="393" y="1179"/>
      <point x="384" y="1158"/>
      <point x="385" y="1147" type="qcurve" smooth="yes"/>
      <point x="444" y="254" type="line"/>
      <point x="881" y="1260" type="line"/>
      <point x="936" y="1260" type="line"/>
      <point x="1116" y="254" type="line"/>
      <point x="1409" y="1155" type="line" smooth="yes"/>
      <point x="1413" y="1167"/>
      <point x="1396" y="1185"/>
      <point x="1360" y="1199"/>
      <point x="1309" y="1211"/>
      <point x="1278" y="1217" type="qcurve"/>
      <point x="1284" y="1260" type="line"/>
      <point x="1669" y="1260" type="line"/>
    </contour>
  </outline>
</glyph>
<glyph name="X" format="1">
  <advance width="1171"/>
  <unicode hex="0058"/>
  <outline>
    <contour>
      <point x="1085" y="0" type="line"/>
      <point x="674" y="0" type="line"/>
      <point x="680" y="43" type="line"/>
      <point x="720" y="47"/>
      <point x="772" y="60"/>
      <point x="797" y="79"/>
      <point x="798" y="107"/>
      <point x="788" y="127" type="qcurve" smooth="yes"/>
      <point x="581" y="547" type="line"/>
      <point x="287" y="127" type="line" smooth="yes"/>
      <point x="256" y="83"/>
      <point x="314" y="49"/>
      <point x="397" y="43" type="qcurve"/>
      <point x="391" y="0" type="line"/>
      <point x="-20" y="0" type="line"/>
      <point x="-14" y="43" type="line"/>
      <point x="46" y="48"/>
      <point x="136" y="85"/>
      <point x="164" y="127" type="qcurve" smooth="yes"/>
      <point x="529" y="653" type="line"/>
      <point x="293" y="1133" type="line" smooth="yes"/>
      <point x="281" y="1155"/>
      <point x="259" y="1183"/>
      <point x="229" y="1201"/>
      <point x="188" y="1212"/>
      <point x="158" y="1217" type="qcurve"/>
      <point x="164" y="1260" type="line"/>
      <point x="575" y="1260" type="line"/>
      <point x="569" y="1217" type="line"/>
      <point x="491" y="1209"/>
      <point x="437" y="1177"/>
      <point x="459" y="1133" type="qcurve" smooth="yes"/>
      <point x="639" y="767" type="line"/>
      <point x="895" y="1133" type="line" smooth="yes"/>
      <point x="911" y="1156"/>
      <point x="911" y="1170" type="qcurve" smooth="yes"/>
      <point x="911" y="1185"/>
      <point x="881" y="1204"/>
      <point x="824" y="1214"/>
      <point x="784" y="1217" type="qcurve"/>
      <point x="791" y="1260" type="line"/>
      <point x="1202" y="1260" type="line"/>
      <point x="1196" y="1217" type="line"/>
      <point x="1163" y="1213"/>
      <point x="1111" y="1202"/>
      <point x="1068" y="1183"/>
      <point x="1033" y="1154"/>
      <point x="1018" y="1133" type="qcurve" smooth="yes"/>
      <point x="690" y="665" type="line"/>
      <point x="956" y="127" type="line" smooth="yes"/>
      <point x="976" y="84"/>
      <point x="1039" y="50"/>
      <point x="1092" y="43" type="qcurve"/>
    </contour>
  </outline>
</glyph>
<glyph name="underscore" format="1">
  <advance width="893"/>
  <unicode hex="005F"/>
  <outline>
    <contour>
      <point x="731" y="-156" type="line"/>
      <point x="725" y="-177"/>
      <point x="702" y="-227"/>
      <point x="692" y="-246" type="qcurve"/>
      <point x="-37" y="-246" type="line"/>
      <point x="-53" y="-219" type="line"/>
      <point x="-47" y="-199"/>
      <point x="-25" y="-151"/>
      <point x="-12" y="-131" type="qcurve"/>
      <point x="713" y="-131" type="line"/>
      <point x="731" y="-156" type="line"/>
    </contour>
  </outline>
</glyph>
<glyph name="grave" format="1">
  <advance width="606"/>
  <unicode hex="0060"/>
  <outline>
    <contour>
      <point x="565" y="1047" type="line"/>
      <point x="545" y="1035"/>
      <point x="521" y="1027"/>
      <point x="503" y="1026" type="qcurve"/>
      <point x="253" y="1412" type="line"/>
      <point x="285" y="1448" type="line"/>
      <point x="297" y="1450"/>
      <point x="334" y="1454"/>
      <point x="375" y="1457"/>
      <point x="413" y="1459"/>
      <point x="426" y="1459" type="qcurve"/>
      <point x="565" y="1047" type="line"/>
    </contour>
  </outline>
</glyph>
<glyph name="b" format="1">
  <advance width="956"/>
  <unicode hex="0062"/>
  <outline>
    <contour>
      <point x="604" y="803" type="qcurve" smooth="yes"/>
      <point x="585" y="803"/>
      <point x="513" y="754"/>
      <point x="426" y="665"/>
      <point x="335" y="544"/>
      <point x="298" y="472" type="qcurve"/>
      <point x="287" y="400"/>
      <point x="276" y="287"/>
      <point x="276" y="256" type="qcurve" smooth="yes"/>
      <point x="276" y="230"/>
      <point x="307" y="170"/>
      <point x="359" y="119"/>
      <point x="424" y="86"/>
      <point x="459" y="86" type="qcurve" smooth="yes"/>
      <point x="495" y="86"/>
      <point x="557" y="112"/>
      <point x="610" y="153"/>
      <point x="652" y="204"/>
      <point x="668" y="229" type="qcurve" smooth="yes"/>
      <point x="691" y="265"/>
      <point x="719" y="343"/>
      <point x="735" y="421"/>
      <point x="741" y="496"/>
      <point x="741" y="530" type="qcurve" smooth="yes"/>
      <point x="741" y="599"/>
      <point x="716" y="702"/>
      <point x="677" y="770"/>
      <point x="628" y="803"/>
    </contour>
    <contour>
      <point x="885" y="610" type="qcurve" smooth="yes"/>
      <point x="883" y="504"/>
      <point x="824" y="289"/>
      <point x="752" y="188" type="qcurve" smooth="yes"/>
      <point x="718" y="143"/>
      <point x="635" y="60"/>
      <point x="537" y="-3"/>
      <point x="425" y="-41"/>
      <point x="362" y="-41" type="qcurve" smooth="yes"/>
      <point x="341" y="-41"/>
      <point x="290" y="-20"/>
      <point x="237" y="18"/>
      <point x="186" y="68"/>
      <point x="147" y="125"/>
      <point x="123" y="187"/>
      <point x="123" y="217" type="qcurve" smooth="yes"/>
      <point x="123" y="243"/>
      <point x="136" y="355"/>
      <point x="157" y="505"/>
      <point x="184" y="681"/>
      <point x="211" y="864"/>
      <point x="238" y="1043"/>
      <point x="259" y="1197"/>
      <point x="272" y="1315"/>
      <point x="272" y="1346" type="qcurve" smooth="yes"/>
      <point x="272" y="1369"/>
      <point x="262" y="1396"/>
      <point x="246" y="1409"/>
      <point x="228" y="1413"/>
      <point x="219" y="1413" type="qcurve" smooth="yes"/>
      <point x="210" y="1413"/>
      <point x="176" y="1405"/>
      <point x="143" y="1394"/>
      <point x="119" y="1386"/>
      <point x="119" y="1386" type="qcurve"/>
      <point x="106" y="1425" type="line"/>
      <point x="148" y="1444"/>
      <point x="236" y="1478"/>
      <point x="313" y="1504"/>
      <point x="371" y="1520"/>
      <point x="383" y="1520" type="qcurve" smooth="yes"/>
      <point x="411" y="1520"/>
      <point x="432" y="1484"/>
      <point x="432" y="1438" type="qcurve" smooth="yes"/>
      <point x="432" y="1408"/>
      <point x="422" y="1306"/>
      <point x="405" y="1177"/>
      <point x="382" y="1026"/>
      <point x="357" y="866"/>
      <point x="331" y="703"/>
      <point x="320" y="627" type="qcurve"/>
      <point x="371" y="713"/>
      <point x="480" y="831"/>
      <point x="582" y="904"/>
      <point x="671" y="936"/>
      <point x="702" y="936" type="qcurve" smooth="yes"/>
      <point x="741" y="936"/>
      <point x="809" y="893"/>
      <point x="858" y="811"/>
      <point x="886" y="689"/>
    </contour>
  </outline>
</glyph>
<glyph name="j" format="1">
  <advance width="502"/>
  <unicode hex="006A"/>
  <outline>
    <contour>
      <point x="458" y="1262" type="qcurve" smooth="yes"/>
      <point x="458" y="1234"/>
      <point x="440" y="1179"/>
      <point x="407" y="1134"/>
      <point x="361" y="1106"/>
      <point x="333" y="1106" type="qcurve" smooth="yes"/>
      <point x="269" y="1106"/>
      <point x="269" y="1176" type="qcurve" smooth="yes"/>
      <point x="269" y="1203"/>
      <point x="286" y="1258"/>
      <point x="318" y="1304"/>
      <point x="363" y="1333"/>
      <point x="392" y="1333" type="qcurve" smooth="yes"/>
      <point x="423" y="1333"/>
      <point x="458" y="1296"/>
    </contour>
    <contour>
      <point x="375" y="870" type="qcurve" smooth="yes"/>
      <point x="375" y="859"/>
      <point x="370" y="804"/>
      <point x="362" y="730"/>
      <point x="353" y="645"/>
      <point x="344" y="564"/>
      <point x="336" y="494"/>
      <point x="334" y="473" type="qcurve" smooth="yes"/>
      <point x="330" y="438"/>
      <point x="322" y="349"/>
      <point x="310" y="245"/>
      <point x="296" y="128"/>
      <point x="286" y="66" type="qcurve" smooth="yes"/>
      <point x="266" y="-51"/>
      <point x="207" y="-210"/>
      <point x="137" y="-319"/>
      <point x="58" y="-392"/>
      <point x="17" y="-424" type="qcurve" smooth="yes"/>
      <point x="-10" y="-445"/>
      <point x="-74" y="-474"/>
      <point x="-136" y="-492"/>
      <point x="-190" y="-500"/>
      <point x="-208" y="-500" type="qcurve" smooth="yes"/>
      <point x="-236" y="-500"/>
      <point x="-298" y="-484"/>
      <point x="-350" y="-460"/>
      <point x="-384" y="-434"/>
      <point x="-384" y="-424" type="qcurve" smooth="yes"/>
      <point x="-384" y="-411"/>
      <point x="-358" y="-369"/>
      <point x="-322" y="-330"/>
      <point x="-285" y="-301"/>
      <point x="-275" y="-301" type="qcurve" smooth="yes"/>
      <point x="-267" y="-301"/>
      <point x="-243" y="-327"/>
      <point x="-203" y="-357"/>
      <point x="-143" y="-383"/>
      <point x="-99" y="-383" type="qcurve" smooth="yes"/>
      <point x="-14" y="-383"/>
      <point x="96" y="-177"/>
      <point x="128" y="11" type="qcurve" smooth="yes"/>
      <point x="141" y="85"/>
      <point x="159" y="219"/>
      <point x="171" y="333"/>
      <point x="179" y="422"/>
      <point x="182" y="451" type="qcurve" smooth="yes"/>
      <point x="183" y="467"/>
      <point x="189" y="520"/>
      <point x="195" y="581"/>
      <point x="202" y="646"/>
      <point x="208" y="704"/>
      <point x="211" y="749"/>
      <point x="211" y="760" type="qcurve" smooth="yes"/>
      <point x="211" y="783"/>
      <point x="205" y="810"/>
      <point x="194" y="823"/>
      <point x="179" y="827"/>
      <point x="170" y="827" type="qcurve" smooth="yes"/>
      <point x="161" y="827"/>
      <point x="128" y="819"/>
      <point x="95" y="810"/>
      <point x="70" y="803"/>
      <point x="70" y="803" type="qcurve"/>
      <point x="55" y="840" type="line"/>
      <point x="97" y="859"/>
      <point x="181" y="894"/>
      <point x="253" y="920"/>
      <point x="307" y="936"/>
      <point x="319" y="936" type="qcurve" smooth="yes"/>
      <point x="347" y="936"/>
      <point x="375" y="912"/>
    </contour>
  </outline>
</glyph>
<glyph name="braceleft" format="1">
  <advance width="641"/>
  <unicode hex="007B"/>
  <outline>
    <contour>
      <point x="741" y="1552" type="line"/>
      <point x="701" y="1528"/>
      <point x="630" y="1466"/>
      <point x="573" y="1391"/>
      <point x="534" y="1303"/>
      <point x="526" y="1251" type="qcurve" smooth="yes"/>
      <point x="518" y="1193"/>
      <point x="521" y="1119"/>
      <point x="526" y="1054"/>
      <point x="527" y="980"/>
      <point x="518" y="922" type="qcurve" smooth="yes"/>
      <point x="512" y="880"/>
      <point x="478" y="800"/>
      <point x="426" y="729"/>
      <point x="355" y="671"/>
      <point x="313" y="653" type="qcurve"/>
      <point x="358" y="644"/>
      <point x="416" y="599"/>
      <point x="446" y="531"/>
      <point x="450" y="440"/>
      <point x="442" y="385" type="qcurve" smooth="yes"/>
      <point x="434" y="325"/>
      <point x="410" y="241"/>
      <point x="386" y="167"/>
      <point x="363" y="93"/>
      <point x="356" y="43" type="qcurve" smooth="yes"/>
      <point x="348" y="-12"/>
      <point x="351" y="-97"/>
      <point x="378" y="-166"/>
      <point x="432" y="-225"/>
      <point x="477" y="-254" type="qcurve"/>
      <point x="449" y="-315" type="line"/>
      <point x="376" y="-281"/>
      <point x="274" y="-206"/>
      <point x="215" y="-114"/>
      <point x="197" y="0"/>
      <point x="207" y="72" type="qcurve" smooth="yes"/>
      <point x="215" y="131"/>
      <point x="238" y="208"/>
      <point x="262" y="279"/>
      <point x="286" y="360"/>
      <point x="295" y="422" type="qcurve" smooth="yes"/>
      <point x="306" y="503"/>
      <point x="241" y="586"/>
      <point x="172" y="586" type="qcurve" smooth="yes"/>
      <point x="160" y="586"/>
      <point x="154" y="586" type="qcurve" smooth="yes"/>
      <point x="148" y="586"/>
      <point x="138" y="585"/>
      <point x="124" y="582"/>
      <point x="111" y="580" type="qcurve"/>
      <point x="102" y="633" type="line"/>
      <point x="217" y="664"/>
      <point x="345" y="787"/>
      <point x="356" y="862" type="qcurve" smooth="yes"/>
      <point x="362" y="902"/>
      <point x="364" y="960"/>
      <point x="363" y="1007"/>
      <point x="358" y="1048"/>
      <point x="357" y="1094"/>
      <point x="359" y="1153"/>
      <point x="365" y="1194" type="qcurve" smooth="yes"/>
      <point x="385" y="1330"/>
      <point x="573" y="1531"/>
      <point x="723" y="1599" type="qcurve"/>
      <point x="741" y="1552" type="line"/>
    </contour>
  </outline>
</glyph>
<glyph name="asciitilde" format="1">
  <advance width="930"/>
  <unicode hex="007E"/>
  <outline>
    <contour>
      <point x="911" y="774" type="line"/>
      <point x="884" y="725"/>
      <point x="810" y="620"/>
      <point x="725" y="533"/>
      <point x="634" y="477"/>
      <point x="590" y="477" type="qcurve" smooth="yes"/>
      <point x="550" y="477"/>
      <point x="469" y="527"/>
      <point x="387" y="587"/>
      <point x="306" y="637"/>
      <point x="266" y="637" type="qcurve" smooth="yes"/>
      <point x="220" y="637"/>
      <point x="131" y="559"/>
      <point x="82" y="475" type="qcurve"/>
      <point x="37" y="502" type="line"/>
      <point x="63" y="551"/>
      <point x="137" y="656"/>
      <point x="223" y="743"/>
      <point x="314" y="799"/>
      <point x="358" y="799" type="qcurve" smooth="yes"/>
      <point x="401" y="799"/>
      <point x="484" y="749"/>
      <point x="565" y="689"/>
      <point x="642" y="639"/>
      <point x="680" y="639" type="qcurve" smooth="yes"/>
      <point x="725" y="639"/>
      <point x="815" y="717"/>
      <point x="866" y="799" type="qcurve"/>
      <point x="911" y="774" type="line"/>
    </contour>
  </outline>
</glyph>
<glyph name="exclamdown" format="1">
  <advance width="410"/>
  <unicode hex="00A1"/>
  <outline>
    <contour>
      <point x="111" y="748" type="qcurve" smooth="yes"/>
      <point x="111" y="778"/>
      <point x="132" y="843"/>
      <point x="171" y="896"/>
      <point x="225" y="930"/>
      <point x="258" y="930" type="qcurve" smooth="yes"/>
      <point x="298" y="930"/>
      <point x="344" y="876"/>
      <point x="344" y="831" type="qcurve" smooth="yes"/>
      <point x="344" y="802"/>
      <point x="321" y="739"/>
      <point x="281" y="687"/>
      <point x="226" y="653"/>
      <point x="195" y="653" type="qcurve" smooth="yes"/>
      <point x="156" y="653"/>
      <point x="111" y="706"/>
    </contour>
    <contour>
      <point x="158" y="-442" type="line"/>
      <point x="143" y="-452"/>
      <point x="100" y="-480"/>
      <point x="53" y="-508"/>
      <point x="6" y="-531"/>
      <point x="-14" y="-537" type="qcurve"/>
      <point x="-51" y="-512" type="line"/>
      <point x="143" y="510" type="line"/>
      <point x="163" y="524"/>
      <point x="194" y="541"/>
      <point x="217" y="549" type="qcurve"/>
      <point x="242" y="528" type="line"/>
    </contour>
  </outline>
</glyph>
<glyph name="cent" format="1">
  <advance width="823"/>
  <unicode hex="00A2"/>
  <outline>
    <contour>
      <point x="250" y="510" type="qcurve" smooth="yes"/>
      <point x="250" y="459"/>
      <point x="272" y="371"/>
      <point x="311" y="302"/>
      <point x="365" y="252"/>
      <point x="396" y="239" type="qcurve"/>
      <point x="493" y="946" type="line"/>
      <point x="435" y="932"/>
      <point x="344" y="839"/>
      <point x="282" y="714"/>
      <point x="250" y="573"/>
    </contour>
    <contour>
      <point x="586" y="1050" type="line"/>
      <point x="600" y="1052"/>
      <point x="628" y="1055"/>
      <point x="641" y="1055" type="qcurve" smooth="yes"/>
      <point x="685" y="1055"/>
      <point x="754" y="1022"/>
      <point x="808" y="980"/>
      <point x="849" y="941"/>
      <point x="864" y="936" type="qcurve"/>
      <point x="843" y="921"/>
      <point x="802" y="884"/>
      <point x="765" y="852"/>
      <point x="733" y="831"/>
      <point x="721" y="831" type="qcurve" smooth="yes"/>
      <point x="711" y="831"/>
      <point x="690" y="862"/>
      <point x="657" y="903"/>
      <point x="608" y="941"/>
      <point x="572" y="948" type="qcurve"/>
      <point x="473" y="225" type="line"/>
      <point x="491" y="226"/>
      <point x="540" y="240"/>
      <point x="604" y="274"/>
      <point x="685" y="330"/>
      <point x="737" y="373" type="qcurve"/>
      <point x="745" y="360"/>
      <point x="763" y="339"/>
      <point x="768" y="330" type="qcurve"/>
      <point x="713" y="280"/>
      <point x="624" y="209"/>
      <point x="549" y="159"/>
      <point x="487" y="130"/>
      <point x="459" y="122" type="qcurve"/>
      <point x="440" y="-18" type="line"/>
      <point x="431" y="-26"/>
      <point x="418" y="-35"/>
      <point x="406" y="-41"/>
      <point x="391" y="-45"/>
      <point x="379" y="-49" type="qcurve"/>
      <point x="360" y="-27" type="line"/>
      <point x="379" y="111" type="line"/>
      <point x="367" y="111" type="line" smooth="yes"/>
      <point x="344" y="111"/>
      <point x="288" y="125"/>
      <point x="229" y="158"/>
      <point x="174" y="213"/>
      <point x="130" y="293"/>
      <point x="104" y="401"/>
      <point x="104" y="471" type="qcurve" smooth="yes"/>
      <point x="104" y="538"/>
      <point x="132" y="675"/>
      <point x="195" y="805"/>
      <point x="297" y="924"/>
      <point x="371" y="973" type="qcurve" smooth="yes"/>
      <point x="399" y="991"/>
      <point x="468" y="1021"/>
      <point x="505" y="1032" type="qcurve"/>
      <point x="526" y="1186" type="line"/>
      <point x="539" y="1195"/>
      <point x="551" y="1204"/>
      <point x="560" y="1209"/>
      <point x="572" y="1213"/>
      <point x="586" y="1217" type="qcurve"/>
      <point x="606" y="1194" type="line"/>
    </contour>
  </outline>
</glyph>
<glyph name="sterling" format="1">
  <advance width="823"/>
  <unicode hex="00A3"/>
  <outline>
    <contour>
      <point x="523" y="537" type="line"/>
      <point x="305" y="537" type="line"/>
      <point x="298" y="468"/>
      <point x="267" y="342"/>
      <point x="223" y="231"/>
      <point x="170" y="137"/>
      <point x="142" y="101" type="qcurve"/>
      <point x="204" y="107"/>
      <point x="245" y="107" type="qcurve" smooth="yes"/>
      <point x="286" y="107"/>
      <point x="355" y="103"/>
      <point x="426" y="99"/>
      <point x="476" y="101" type="qcurve" smooth="yes"/>
      <point x="518" y="102"/>
      <point x="578" y="112"/>
      <point x="629" y="146"/>
      <point x="675" y="213"/>
      <point x="702" y="272" type="qcurve"/>
      <point x="739" y="254" type="line"/>
      <point x="730" y="211"/>
      <point x="709" y="132"/>
      <point x="689" y="65"/>
      <point x="672" y="15"/>
      <point x="667" y="0" type="qcurve"/>
      <point x="623" y="-25"/>
      <point x="513" y="-31"/>
      <point x="390" y="-17"/>
      <point x="261" y="6"/>
      <point x="135" y="16"/>
      <point x="18" y="1"/>
      <point x="-31" y="-30" type="qcurve"/>
      <point x="-44" y="19" type="line"/>
      <point x="-13" y="44"/>
      <point x="36" y="88"/>
      <point x="74" y="139"/>
      <point x="103" y="207"/>
      <point x="125" y="305"/>
      <point x="142" y="442"/>
      <point x="150" y="537" type="qcurve"/>
      <point x="47" y="537" type="line"/>
      <point x="32" y="562" type="line"/>
      <point x="37" y="577"/>
      <point x="52" y="611"/>
      <point x="60" y="627" type="qcurve"/>
      <point x="157" y="627" type="line"/>
      <point x="171" y="769"/>
      <point x="242" y="995"/>
      <point x="357" y="1152"/>
      <point x="517" y="1235"/>
      <point x="620" y="1235" type="qcurve" smooth="yes"/>
      <point x="644" y="1235"/>
      <point x="687" y="1231"/>
      <point x="735" y="1216"/>
      <point x="794" y="1189"/>
      <point x="833" y="1165" type="qcurve"/>
      <point x="828" y="1139"/>
      <point x="811" y="1065"/>
      <point x="790" y="988"/>
      <point x="769" y="919"/>
      <point x="761" y="900" type="qcurve"/>
      <point x="718" y="900" type="line"/>
      <point x="722" y="1024"/>
      <point x="631" y="1136"/>
      <point x="540" y="1136" type="qcurve" smooth="yes"/>
      <point x="516" y="1136"/>
      <point x="467" y="1125"/>
      <point x="419" y="1090"/>
      <point x="375" y="1023"/>
      <point x="340" y="910"/>
      <point x="315" y="743"/>
      <point x="310" y="627" type="qcurve"/>
      <point x="536" y="627" type="line"/>
      <point x="556" y="604" type="line"/>
    </contour>
  </outline>
</glyph>
<glyph name="brokenbar" format="1">
  <advance width="410"/>
  <unicode hex="00A6"/>
  <outline>
    <contour>
      <point x="180" y="-285" type="line"/>
      <point x="171" y="-292"/>
      <point x="142" y="-307"/>
      <point x="110" y="-320"/>
      <point x="79" y="-332"/>
      <point x="68" y="-336" type="qcurve"/>
      <point x="39" y="-311" type="line"/>
      <point x="152" y="489" type="line"/>
      <point x="179" y="506"/>
      <point x="233" y="531"/>
      <point x="262" y="541" type="qcurve"/>
      <point x="295" y="516" type="line"/>
    </contour>
    <contour>
      <point x="330" y="766" type="line"/>
      <point x="320" y="758"/>
      <point x="291" y="743"/>
      <point x="259" y="730"/>
      <point x="227" y="719"/>
      <point x="215" y="715" type="qcurve"/>
      <point x="184" y="737" type="line"/>
      <point x="299" y="1550" type="line"/>
      <point x="328" y="1567"/>
      <point x="383" y="1591"/>
      <point x="412" y="1599" type="qcurve"/>
      <point x="442" y="1577" type="line"/>
    </contour>
  </outline>
</glyph>
<glyph name="dieresis" format="1">
  <advance width="1042"/>
  <unicode hex="00A8"/>
  <outline>
    <contour>
      <point x="513" y="1262" type="qcurve" smooth="yes"/>
      <point x="513" y="1234"/>
      <point x="495" y="1179"/>
      <point x="463" y="1134"/>
      <point x="416" y="1106"/>
      <point x="388" y="1106" type="qcurve" smooth="yes"/>
      <point x="356" y="1106"/>
      <point x="320" y="1142"/>
      <point x="320" y="1176" type="qcurve" smooth="yes"/>
      <point x="320" y="1203"/>
      <point x="339" y="1258"/>
      <point x="372" y="1304"/>
      <point x="419" y="1333"/>
      <point x="447" y="1333" type="qcurve" smooth="yes"/>
      <point x="478" y="1333"/>
      <point x="513" y="1296"/>
    </contour>
    <contour>
      <point x="886" y="1262" type="qcurve" smooth="yes"/>
      <point x="886" y="1234"/>
      <point x="868" y="1179"/>
      <point x="835" y="1134"/>
      <point x="788" y="1106"/>
      <point x="759" y="1106" type="qcurve" smooth="yes"/>
      <point x="728" y="1106"/>
      <point x="693" y="1142"/>
      <point x="693" y="1176" type="qcurve" smooth="yes"/>
      <point x="693" y="1203"/>
      <point x="711" y="1258"/>
      <point x="743" y="1304"/>
      <point x="789" y="1333"/>
      <point x="818" y="1333" type="qcurve" smooth="yes"/>
      <point x="849" y="1333"/>
      <point x="886" y="1296"/>
    </contour>
  </outline>
</glyph>
<glyph name="macron" format="1">
  <advance width="801"/>
  <unicode hex="00AF"/>
  <outline>
    <contour>
      <point x="834" y="1258" type="line"/>
      <point x="831" y="1247"/>
      <point x="818" y="1219"/>
      <point x="803" y="1191"/>
      <point x="789" y="1165"/>
      <point x="784" y="1157" type="qcurve"/>
      <point x="235" y="1157" type="line"/>
      <point x="219" y="1181" type="line"/>
      <point x="223" y="1191"/>
      <point x="235" y="1218"/>
      <point x="248" y="1246"/>
      <point x="262" y="1273"/>
      <point x="268" y="1283" type="qcurve"/>
      <point x="815" y="1283" type="line"/>
      <point x="834" y="1258" type="line"/>
    </contour>
  </outline>
</glyph>
<glyph name="plusminus" format="1">
  <advance width="780"/>
  <unicode hex="00B1"/>
  <outline>
    <contour>
      <point x="690" y="217" type="line"/>
      <point x="683" y="197"/>
      <point x="660" y="146"/>
      <point x="650" y="129" type="qcurve"/>
      <point x="54" y="129" type="line"/>
      <point x="36" y="153" type="line"/>
      <point x="44" y="173"/>
      <point x="65" y="221"/>
      <point x="76" y="241" type="qcurve"/>
      <point x="672" y="241" type="line"/>
      <point x="690" y="217" type="line"/>
    </contour>
    <contour>
      <point x="439" y="366" type="line"/>
      <point x="421" y="356"/>
      <point x="374" y="340"/>
      <point x="354" y="335" type="qcurve"/>
      <point x="335" y="357" type="line"/>
      <point x="374" y="636" type="line"/>
      <point x="125" y="636" type="line"/>
      <point x="106" y="660" type="line"/>
      <point x="114" y="680"/>
      <point x="136" y="728"/>
      <point x="147" y="748" type="qcurve"/>
      <point x="389" y="748" type="line"/>
      <point x="428" y="1021" type="line"/>
      <point x="445" y="1027"/>
      <point x="494" y="1045"/>
      <point x="514" y="1050" type="qcurve"/>
      <point x="531" y="1027" type="line"/>
      <point x="492" y="748" type="line"/>
      <point x="743" y="748" type="line"/>
      <point x="760" y="724" type="line"/>
      <point x="754" y="704"/>
      <point x="730" y="653"/>
      <point x="721" y="636" type="qcurve"/>
      <point x="476" y="636" type="line"/>
      <point x="439" y="366" type="line"/>
    </contour>
  </outline>
</glyph>
<glyph name="acute" format="1">
  <advance width="606"/>
  <unicode hex="00B4"/>
  <outline>
    <contour>
      <point x="572" y="1374" type="line"/>
      <point x="217" y="1026" type="line"/>
      <point x="201" y="1030"/>
      <point x="186" y="1044"/>
      <point x="172" y="1061" type="qcurve"/>
      <point x="444" y="1459" type="line"/>
      <point x="454" y="1456"/>
      <point x="485" y="1447"/>
      <point x="519" y="1436"/>
      <point x="549" y="1424"/>
      <point x="557" y="1419" type="qcurve"/>
    </contour>
  </outline>
</glyph>
<glyph name="mu" format="1">
  <advance width="1051"/>
  <unicode hex="00B5"/>
  <outline>
    <contour>
      <point x="1022" y="215" type="line"/>
      <point x="980" y="138"/>
      <point x="914" y="39"/>
      <point x="856" y="-19"/>
      <point x="799" y="-41"/>
      <point x="768" y="-41" type="qcurve" smooth="yes"/>
      <point x="747" y="-41"/>
      <point x="714" y="0"/>
      <point x="691" y="67"/>
      <point x="680" y="155"/>
      <point x="680" y="203" type="qcurve" smooth="yes"/>
      <point x="680" y="213"/>
      <point x="681" y="235"/>
      <point x="682" y="247" type="qcurve"/>
      <point x="647" y="183"/>
      <point x="575" y="77"/>
      <point x="500" y="1"/>
      <point x="422" y="-41"/>
      <point x="381" y="-41" type="qcurve" smooth="yes"/>
      <point x="348" y="-41"/>
      <point x="288" y="-12"/>
      <point x="238" y="41"/>
      <point x="198" y="116"/>
      <point x="184" y="162" type="qcurve"/>
      <point x="182" y="148"/>
      <point x="178" y="120"/>
      <point x="176" y="104" type="qcurve" smooth="yes"/>
      <point x="162" y="1"/>
      <point x="168" y="-178"/>
      <point x="189" y="-316"/>
      <point x="214" y="-407"/>
      <point x="219" y="-420" type="qcurve"/>
      <point x="204" y="-426"/>
      <point x="154" y="-447"/>
      <point x="100" y="-471"/>
      <point x="52" y="-494"/>
      <point x="40" y="-500" type="qcurve"/>
      <point x="7" y="-471" type="line"/>
      <point x="14" y="-414"/>
      <point x="37" y="-268"/>
      <point x="64" y="-104"/>
      <point x="95" y="70"/>
      <point x="124" y="241"/>
      <point x="151" y="400"/>
      <point x="162" y="467" type="qcurve" smooth="yes"/>
      <point x="166" y="506"/>
      <point x="179" y="587"/>
      <point x="189" y="663"/>
      <point x="197" y="733"/>
      <point x="197" y="760" type="qcurve" smooth="yes"/>
      <point x="197" y="783"/>
      <point x="191" y="810"/>
      <point x="180" y="823"/>
      <point x="166" y="827"/>
      <point x="158" y="827" type="qcurve" smooth="yes"/>
      <point x="149" y="827"/>
      <point x="114" y="819"/>
      <point x="80" y="810"/>
      <point x="55" y="803"/>
      <point x="55" y="803" type="qcurve"/>
      <point x="41" y="840" type="line"/>
      <point x="83" y="859"/>
      <point x="168" y="894"/>
      <point x="242" y="920"/>
      <point x="297" y="936"/>
      <point x="309" y="936" type="qcurve" smooth="yes"/>
      <point x="337" y="936"/>
      <point x="356" y="898"/>
      <point x="356" y="852" type="qcurve" smooth="yes"/>
      <point x="356" y="823"/>
      <point x="347" y="743"/>
      <point x="333" y="654"/>
      <point x="317" y="560"/>
      <point x="303" y="472"/>
      <point x="294" y="396"/>
      <point x="294" y="369" type="qcurve" smooth="yes"/>
      <point x="294" y="314"/>
      <point x="312" y="222"/>
      <point x="344" y="156"/>
      <point x="388" y="119"/>
      <point x="414" y="119" type="qcurve" smooth="yes"/>
      <point x="475" y="119"/>
      <point x="622" y="267"/>
      <point x="705" y="428" type="qcurve"/>
      <point x="713" y="478"/>
      <point x="730" y="577"/>
      <point x="743" y="666"/>
      <point x="752" y="738"/>
      <point x="752" y="760" type="qcurve" smooth="yes"/>
      <point x="752" y="792"/>
      <point x="745" y="858"/>
      <point x="735" y="877" type="qcurve"/>
      <point x="753" y="884"/>
      <point x="796" y="900"/>
      <point x="842" y="916"/>
      <point x="888" y="931"/>
      <point x="909" y="936" type="qcurve"/>
      <point x="917" y="925"/>
      <point x="927" y="906"/>
      <point x="930" y="897" type="qcurve"/>
      <point x="924" y="868"/>
      <point x="904" y="768"/>
      <point x="881" y="647"/>
      <point x="858" y="515"/>
      <point x="839" y="391"/>
      <point x="827" y="287"/>
      <point x="827" y="254" type="qcurve" smooth="yes"/>
      <point x="827" y="209"/>
      <point x="833" y="155"/>
      <point x="843" y="127"/>
      <point x="856" y="119"/>
      <point x="864" y="119" type="qcurve" smooth="yes"/>
      <point x="874" y="119"/>
      <point x="893" y="124"/>
      <point x="920" y="148"/>
      <point x="958" y="199"/>
      <point x="987" y="244" type="qcurve"/>
      <point x="1022" y="215" type="line"/>
    </contour>
  </outline>
</glyph>
<glyph name="paragraph" format="1">
  <advance width="1020"/>
  <unicode hex="00B6"/>
  <outline>
    <contour>
      <point x="799" y="1160" type="line"/>
      <point x="781" y="1167"/>
      <point x="744" y="1177"/>
      <point x="727" y="1182" type="qcurve"/>
      <point x="543" y="-145" type="line" smooth="yes"/>
      <point x="541" y="-156"/>
      <point x="564" y="-173"/>
      <point x="573" y="-176" type="qcurve"/>
      <point x="584" y="-173"/>
      <point x="612" y="-156"/>
      <point x="614" y="-145" type="qcurve" smooth="yes"/>
      <point x="799" y="1160" type="line"/>
    </contour>
    <contour>
      <point x="555" y="610" type="line"/>
      <point x="638" y="1200" type="line"/>
      <point x="582" y="1206"/>
      <point x="543" y="1206" type="qcurve" smooth="yes"/>
      <point x="487" y="1206"/>
      <point x="387" y="1164"/>
      <point x="310" y="1092"/>
      <point x="259" y="994"/>
      <point x="252" y="938" type="qcurve" smooth="yes"/>
      <point x="243" y="884"/>
      <point x="262" y="768"/>
      <point x="323" y="672"/>
      <point x="431" y="610"/>
      <point x="512" y="610" type="qcurve" smooth="yes"/>
    </contour>
    <contour>
      <point x="1034" y="1217" type="line"/>
      <point x="969" y="1203"/>
      <point x="893" y="1169"/>
      <point x="891" y="1155" type="qcurve" smooth="yes"/>
      <point x="709" y="-145" type="line" smooth="yes"/>
      <point x="707" y="-158"/>
      <point x="770" y="-193"/>
      <point x="836" y="-207" type="qcurve"/>
      <point x="829" y="-250" type="line"/>
      <point x="299" y="-250" type="line"/>
      <point x="305" y="-207" type="line"/>
      <point x="370" y="-193"/>
      <point x="445" y="-159"/>
      <point x="449" y="-145" type="qcurve" smooth="yes"/>
      <point x="544" y="532" type="line"/>
      <point x="527" y="529"/>
      <point x="487" y="526"/>
      <point x="461" y="526" type="qcurve" smooth="yes"/>
      <point x="374" y="526"/>
      <point x="227" y="573"/>
      <point x="126" y="668"/>
      <point x="79" y="809"/>
      <point x="92" y="903" type="qcurve" smooth="yes"/>
      <point x="104" y="988"/>
      <point x="187" y="1130"/>
      <point x="314" y="1233"/>
      <point x="478" y="1290"/>
      <point x="571" y="1290" type="qcurve" smooth="yes"/>
      <point x="598" y="1290"/>
      <point x="679" y="1286"/>
      <point x="769" y="1279"/>
      <point x="859" y="1271"/>
      <point x="930" y="1264"/>
      <point x="975" y="1260"/>
      <point x="975" y="1260" type="qcurve"/>
      <point x="1040" y="1260" type="line"/>
    </contour>
  </outline>
</glyph>
<glyph name="onehalf" format="1">
  <advance width="1110"/>
  <unicode hex="00BD"/>
  <outline>
    <contour>
      <point x="133" y="637" type="line"/>
      <point x="138" y="671" type="line"/>
      <point x="178" y="675"/>
      <point x="230" y="686"/>
      <point x="260" y="697"/>
      <point x="272" y="709"/>
      <point x="272" y="714" type="qcurve" smooth="yes"/>
      <point x="322" y="1080" type="line" smooth="yes"/>
      <point x="325" y="1100"/>
      <point x="325" y="1110" type="qcurve" smooth="yes"/>
      <point x="325" y="1121"/>
      <point x="319" y="1127" type="qcurve" smooth="yes"/>
      <point x="317" y="1130"/>
      <point x="303" y="1134"/>
      <point x="274" y="1133"/>
      <point x="229" y="1127"/>
      <point x="195" y="1120" type="qcurve"/>
      <point x="188" y="1153" type="line"/>
      <point x="210" y="1159"/>
      <point x="273" y="1179"/>
      <point x="338" y="1202"/>
      <point x="397" y="1226"/>
      <point x="415" y="1235" type="qcurve"/>
      <point x="431" y="1218" type="line"/>
      <point x="362" y="714" type="line" smooth="yes"/>
      <point x="362" y="709"/>
      <point x="369" y="698"/>
      <point x="393" y="686"/>
      <point x="438" y="675"/>
      <point x="476" y="671" type="qcurve"/>
      <point x="471" y="637" type="line"/>
    </contour>
    <contour>
      <point x="961" y="0" type="line"/>
      <point x="596" y="0" type="line"/>
      <point x="586" y="35" type="line"/>
      <point x="689" y="134"/>
      <point x="819" y="266"/>
      <point x="894" y="356"/>
      <point x="925" y="416"/>
      <point x="929" y="443" type="qcurve" smooth="yes"/>
      <point x="935" y="488"/>
      <point x="900" y="540"/>
      <point x="848" y="540" type="qcurve" smooth="yes"/>
      <point x="829" y="540"/>
      <point x="795" y="524"/>
      <point x="769" y="498"/>
      <point x="752" y="465"/>
      <point x="749" y="448" type="qcurve"/>
      <point x="712" y="429"/>
      <point x="666" y="425" type="qcurve"/>
      <point x="654" y="439" type="line"/>
      <point x="657" y="464"/>
      <point x="701" y="519"/>
      <point x="767" y="564"/>
      <point x="848" y="593"/>
      <point x="890" y="593" type="qcurve" smooth="yes"/>
      <point x="956" y="593"/>
      <point x="1032" y="527"/>
      <point x="1023" y="457" type="qcurve" smooth="yes"/>
      <point x="1018" y="425"/>
      <point x="982" y="359"/>
      <point x="906" y="272"/>
      <point x="785" y="153"/>
      <point x="696" y="66" type="qcurve"/>
      <point x="892" y="66" type="line" smooth="yes"/>
      <point x="909" y="66"/>
      <point x="933" y="90"/>
      <point x="948" y="119"/>
      <point x="955" y="143"/>
      <point x="955" y="143" type="qcurve"/>
      <point x="986" y="138" type="line"/>
    </contour>
    <contour>
      <point x="244" y="3" type="line"/>
      <point x="221" y="-8"/>
      <point x="182" y="-23"/>
      <point x="156" y="-30" type="qcurve"/>
      <point x="138" y="0" type="line"/>
      <point x="987" y="1203" type="line"/>
      <point x="1005" y="1211"/>
      <point x="1051" y="1230"/>
      <point x="1071" y="1235" type="qcurve"/>
      <point x="1090" y="1207" type="line"/>
    </contour>
  </outline>
</glyph>
<glyph name="threequarters" format="1">
  <advance width="1110"/>
  <unicode hex="00BE"/>
  <outline>
    <contour>
      <point x="881" y="491" type="line"/>
      <point x="664" y="226" type="line"/>
      <point x="845" y="226" type="line"/>
    </contour>
    <contour>
      <point x="539" y="825" type="qcurve" smooth="yes"/>
      <point x="534" y="784"/>
      <point x="495" y="713"/>
      <point x="433" y="659"/>
      <point x="350" y="628"/>
      <point x="301" y="628" type="qcurve" smooth="yes"/>
      <point x="256" y="628"/>
      <point x="168" y="665"/>
      <point x="127" y="707" type="qcurve"/>
      <point x="149" y="740" type="line"/>
      <point x="191" y="707"/>
      <point x="257" y="684"/>
      <point x="295" y="684" type="qcurve" smooth="yes"/>
      <point x="354" y="684"/>
      <point x="434" y="748"/>
      <point x="442" y="809" type="qcurve" smooth="yes"/>
      <point x="447" y="845"/>
      <point x="432" y="894"/>
      <point x="401" y="924"/>
      <point x="360" y="937"/>
      <point x="339" y="937" type="qcurve" smooth="yes"/>
      <point x="332" y="937"/>
      <point x="328" y="937" type="qcurve" smooth="yes"/>
      <point x="325" y="937"/>
      <point x="319" y="936"/>
      <point x="311" y="935"/>
      <point x="303" y="934" type="qcurve"/>
      <point x="302" y="971" type="line"/>
      <point x="348" y="983"/>
      <point x="406" y="1013"/>
      <point x="438" y="1046"/>
      <point x="451" y="1078"/>
      <point x="453" y="1093" type="qcurve" smooth="yes"/>
      <point x="455" y="1109"/>
      <point x="450" y="1141"/>
      <point x="432" y="1167"/>
      <point x="402" y="1182"/>
      <point x="379" y="1182" type="qcurve" smooth="yes"/>
      <point x="341" y="1182"/>
      <point x="296" y="1141"/>
      <point x="298" y="1109" type="qcurve"/>
      <point x="281" y="1101"/>
      <point x="234" y="1092"/>
      <point x="211" y="1090" type="qcurve"/>
      <point x="199" y="1105" type="line"/>
      <point x="202" y="1125"/>
      <point x="241" y="1171"/>
      <point x="301" y="1210"/>
      <point x="376" y="1235"/>
      <point x="415" y="1235" type="qcurve" smooth="yes"/>
      <point x="454" y="1235"/>
      <point x="508" y="1212"/>
      <point x="539" y="1174"/>
      <point x="550" y="1126"/>
      <point x="547" y="1102" type="qcurve" smooth="yes"/>
      <point x="545" y="1084"/>
      <point x="525" y="1047"/>
      <point x="493" y="1013"/>
      <point x="450" y="986"/>
      <point x="424" y="977" type="qcurve"/>
      <point x="452" y="974"/>
      <point x="499" y="947"/>
      <point x="530" y="907"/>
      <point x="543" y="854"/>
    </contour>
    <contour>
      <point x="996" y="210" type="line"/>
      <point x="983" y="195"/>
      <point x="962" y="172"/>
      <point x="949" y="164" type="qcurve"/>
      <point x="922" y="164" type="line"/>
      <point x="907" y="58" type="line" smooth="yes"/>
      <point x="907" y="54"/>
      <point x="910" y="48"/>
      <point x="922" y="41"/>
      <point x="946" y="33"/>
      <point x="966" y="29" type="qcurve"/>
      <point x="963" y="0" type="line"/>
      <point x="716" y="0" type="line"/>
      <point x="719" y="29" type="line"/>
      <point x="752" y="34"/>
      <point x="793" y="43"/>
      <point x="815" y="51"/>
      <point x="823" y="59"/>
      <point x="823" y="63" type="qcurve" smooth="yes"/>
      <point x="837" y="164" type="line"/>
      <point x="587" y="164" type="line"/>
      <point x="572" y="180" type="line"/>
      <point x="876" y="563" type="line"/>
      <point x="899" y="572"/>
      <point x="946" y="590"/>
      <point x="963" y="598" type="qcurve"/>
      <point x="978" y="581" type="line"/>
      <point x="930" y="226" type="line"/>
      <point x="984" y="226" type="line"/>
      <point x="996" y="210" type="line"/>
    </contour>
    <contour>
      <point x="244" y="3" type="line"/>
      <point x="221" y="-8"/>
      <point x="182" y="-23"/>
      <point x="156" y="-30" type="qcurve"/>
      <point x="138" y="0" type="line"/>
      <point x="987" y="1203" type="line"/>
      <point x="1005" y="1211"/>
      <point x="1051" y="1230"/>
      <point x="1071" y="1235" type="qcurve"/>
      <point x="1090" y="1207" type="line"/>
    </contour>
  </outline>
</glyph>
<glyph name="questiondown" format="1">
  <advance width="813"/>
  <unicode hex="00BF"/>
  <outline>
    <contour>
      <point x="352" y="750" type="qcurve" smooth="yes"/>
      <point x="352" y="780"/>
      <point x="373" y="843"/>
      <point x="412" y="896"/>
      <point x="466" y="930"/>
      <point x="500" y="930" type="qcurve" smooth="yes"/>
      <point x="540" y="930"/>
      <point x="584" y="876"/>
      <point x="584" y="831" type="qcurve" smooth="yes"/>
      <point x="584" y="803"/>
      <point x="561" y="741"/>
      <point x="520" y="689"/>
      <point x="465" y="655"/>
      <point x="434" y="655" type="qcurve" smooth="yes"/>
      <point x="397" y="655"/>
      <point x="352" y="706"/>
    </contour>
    <contour>
      <point x="631" y="-190" type="line"/>
      <point x="631" y="-254"/>
      <point x="575" y="-376"/>
      <point x="471" y="-472"/>
      <point x="323" y="-530"/>
      <point x="231" y="-530" type="qcurve" smooth="yes"/>
      <point x="168" y="-530"/>
      <point x="75" y="-491"/>
      <point x="14" y="-425"/>
      <point x="-16" y="-336"/>
      <point x="-16" y="-285" type="qcurve" smooth="yes"/>
      <point x="-16" y="-197"/>
      <point x="35" y="-64"/>
      <point x="113" y="43"/>
      <point x="206" y="135"/>
      <point x="291" y="232"/>
      <point x="356" y="342"/>
      <point x="367" y="414" type="qcurve" smooth="yes"/>
      <point x="381" y="510" type="line"/>
      <point x="400" y="525"/>
      <point x="429" y="545"/>
      <point x="455" y="553" type="qcurve"/>
      <point x="475" y="530" type="line"/>
      <point x="473" y="414" type="line" smooth="yes"/>
      <point x="471" y="347"/>
      <point x="421" y="235"/>
      <point x="347" y="133"/>
      <point x="263" y="38"/>
      <point x="191" y="-60"/>
      <point x="143" y="-167"/>
      <point x="143" y="-229" type="qcurve" smooth="yes"/>
      <point x="143" y="-328"/>
      <point x="231" y="-434"/>
      <point x="317" y="-434" type="qcurve" smooth="yes"/>
      <point x="359" y="-434"/>
      <point x="423" y="-396"/>
      <point x="462" y="-331"/>
      <point x="475" y="-246"/>
      <point x="467" y="-199" type="qcurve"/>
      <point x="488" y="-189"/>
      <point x="521" y="-176"/>
      <point x="554" y="-167"/>
      <point x="589" y="-162"/>
      <point x="610" y="-160" type="qcurve"/>
      <point x="631" y="-190" type="line"/>
    </contour>
  </outline>
</glyph>
<glyph name="AE" format="1">
  <advance width="1464"/>
  <unicode hex="00C6"/>
  <outline>
    <contour>
      <point x="819" y="1147" type="line"/>
      <point x="820" y="1158"/>
      <point x="804" y="1169"/>
      <point x="780" y="1166"/>
      <point x="754" y="1148"/>
      <point x="745" y="1130" type="qcurve" smooth="yes"/>
      <point x="551" y="735" type="line"/>
      <point x="764" y="735" type="line"/>
      <point x="819" y="1147" type="line"/>
    </contour>
    <contour>
      <point x="1454" y="1235" type="line"/>
      <point x="1449" y="1209"/>
      <point x="1434" y="1147"/>
      <point x="1416" y="1085"/>
      <point x="1397" y="1029"/>
      <point x="1389" y="1010" type="qcurve"/>
      <point x="1348" y="1010" type="line"/>
      <point x="1352" y="1056"/>
      <point x="1349" y="1117"/>
      <point x="1336" y="1154"/>
      <point x="1312" y="1169"/>
      <point x="1294" y="1169" type="qcurve" smooth="yes"/>
      <point x="967" y="1169" type="line"/>
      <point x="907" y="735" type="line"/>
      <point x="1272" y="735" type="line"/>
      <point x="1292" y="707" type="line"/>
      <point x="1282" y="693"/>
      <point x="1257" y="662"/>
      <point x="1231" y="633"/>
      <point x="1205" y="608"/>
      <point x="1194" y="600" type="qcurve"/>
      <point x="1182" y="615"/>
      <point x="1154" y="635"/>
      <point x="1115" y="649"/>
      <point x="1061" y="655"/>
      <point x="1024" y="655" type="qcurve" smooth="yes"/>
      <point x="897" y="655" type="line"/>
      <point x="827" y="154" type="line" smooth="yes"/>
      <point x="825" y="139"/>
      <point x="835" y="116"/>
      <point x="873" y="99"/>
      <point x="944" y="90"/>
      <point x="1004" y="90" type="qcurve" smooth="yes"/>
      <point x="1118" y="90" type="line" smooth="yes"/>
      <point x="1160" y="90"/>
      <point x="1220" y="100"/>
      <point x="1270" y="135"/>
      <point x="1316" y="203"/>
      <point x="1343" y="262" type="qcurve"/>
      <point x="1380" y="244" type="line"/>
      <point x="1360" y="157"/>
      <point x="1321" y="29"/>
      <point x="1309" y="0" type="qcurve"/>
      <point x="532" y="0" type="line"/>
      <point x="539" y="43" type="line"/>
      <point x="602" y="57"/>
      <point x="675" y="90"/>
      <point x="678" y="104" type="qcurve" smooth="yes"/>
      <point x="752" y="655" type="line"/>
      <point x="510" y="655" type="line"/>
      <point x="238" y="111" type="line" smooth="yes"/>
      <point x="222" y="82"/>
      <point x="273" y="52"/>
      <point x="344" y="43" type="qcurve"/>
      <point x="340" y="0" type="line"/>
      <point x="-35" y="0" type="line"/>
      <point x="-29" y="43" type="line"/>
      <point x="33" y="55"/>
      <point x="107" y="82"/>
      <point x="121" y="111" type="qcurve" smooth="yes"/>
      <point x="635" y="1133" type="line" smooth="yes"/>
      <point x="643" y="1150"/>
      <point x="627" y="1173"/>
      <point x="584" y="1192"/>
      <point x="516" y="1208"/>
      <point x="473" y="1217" type="qcurve"/>
      <point x="479" y="1260" type="line"/>
      <point x="1432" y="1260" type="line"/>
      <point x="1454" y="1235" type="line"/>
    </contour>
  </outline>
</glyph>
<glyph name="Thorn" format="1">
  <advance width="965"/>
  <unicode hex="00DE"/>
  <outline>
    <contour>
      <point x="604" y="1217" type="line"/>
      <point x="557" y="1208"/>
      <point x="494" y="1192"/>
      <point x="456" y="1177"/>
      <point x="439" y="1162"/>
      <point x="438" y="1155" type="qcurve" smooth="yes"/>
      <point x="418" y="1009" type="line"/>
      <point x="482" y="1020"/>
      <point x="557" y="1020" type="qcurve" smooth="yes"/>
      <point x="646" y="1020"/>
      <point x="788" y="973"/>
      <point x="886" y="887"/>
      <point x="938" y="765"/>
      <point x="938" y="690" type="qcurve" smooth="yes"/>
      <point x="938" y="603"/>
      <point x="872" y="448"/>
      <point x="757" y="332"/>
      <point x="601" y="264"/>
      <point x="512" y="264" type="qcurve" smooth="yes"/>
      <point x="470" y="264"/>
      <point x="399" y="280"/>
      <point x="371" y="297" type="qcurve"/>
      <point x="360" y="371" type="line"/>
      <point x="396" y="352"/>
      <point x="464" y="342"/>
      <point x="496" y="342" type="qcurve" smooth="yes"/>
      <point x="564" y="342"/>
      <point x="675" y="390"/>
      <point x="754" y="473"/>
      <point x="797" y="586"/>
      <point x="797" y="651" type="qcurve" smooth="yes"/>
      <point x="797" y="720"/>
      <point x="751" y="827"/>
      <point x="670" y="900"/>
      <point x="560" y="938"/>
      <point x="496" y="938" type="qcurve" smooth="yes"/>
      <point x="473" y="938"/>
      <point x="429" y="933"/>
      <point x="407" y="928" type="qcurve"/>
      <point x="295" y="104" type="line" smooth="yes"/>
      <point x="293" y="98"/>
      <point x="305" y="84"/>
      <point x="339" y="68"/>
      <point x="397" y="52"/>
      <point x="442" y="43" type="qcurve"/>
      <point x="436" y="0" type="line"/>
      <point x="4" y="0" type="line"/>
      <point x="10" y="43" type="line"/>
      <point x="73" y="57"/>
      <point x="148" y="90"/>
      <point x="150" y="104" type="qcurve" smooth="yes"/>
      <point x="295" y="1155" type="line" smooth="yes"/>
      <point x="297" y="1167"/>
      <point x="235" y="1203"/>
      <point x="172" y="1217" type="qcurve"/>
      <point x="178" y="1260" type="line"/>
      <point x="610" y="1260" type="line"/>
    </contour>
  </outline>
</glyph>
<glyph name="ae" format="1">
  <advance width="1325"/>
  <unicode hex="00E6"/>
  <outline>
    <contour>
      <point x="911" y="782" type="qcurve" smooth="yes"/>
      <point x="878" y="752"/>
      <point x="815" y="666"/>
      <point x="764" y="566"/>
      <point x="730" y="457"/>
      <point x="726" y="404" type="qcurve"/>
      <point x="857" y="455"/>
      <point x="1010" y="538"/>
      <point x="1088" y="612"/>
      <point x="1110" y="680"/>
      <point x="1110" y="715" type="qcurve" smooth="yes"/>
      <point x="1110" y="746"/>
      <point x="1094" y="791"/>
      <point x="1068" y="818"/>
      <point x="1035" y="831"/>
      <point x="1018" y="831" type="qcurve" smooth="yes"/>
      <point x="1002" y="831"/>
      <point x="940" y="808"/>
    </contour>
    <contour>
      <point x="599" y="443" type="qcurve"/>
      <point x="606" y="488"/>
      <point x="621" y="586"/>
      <point x="635" y="674"/>
      <point x="646" y="743"/>
      <point x="649" y="760" type="qcurve" smooth="yes"/>
      <point x="649" y="762" type="line"/>
      <point x="634" y="774"/>
      <point x="598" y="798"/>
      <point x="558" y="818"/>
      <point x="513" y="831"/>
      <point x="489" y="831" type="qcurve" smooth="yes"/>
      <point x="444" y="831"/>
      <point x="364" y="786"/>
      <point x="297" y="712"/>
      <point x="245" y="617"/>
      <point x="209" y="516"/>
      <point x="190" y="418"/>
      <point x="190" y="379" type="qcurve" smooth="yes"/>
      <point x="190" y="314"/>
      <point x="211" y="210"/>
      <point x="247" y="136"/>
      <point x="297" y="96"/>
      <point x="326" y="96" type="qcurve" smooth="yes"/>
      <point x="350" y="96"/>
      <point x="420" y="160"/>
      <point x="496" y="261"/>
      <point x="570" y="384"/>
    </contour>
    <contour>
      <point x="862" y="901" type="line"/>
      <point x="847" y="889"/>
      <point x="826" y="868"/>
      <point x="811" y="844"/>
      <point x="798" y="812"/>
      <point x="792" y="787" type="qcurve"/>
      <point x="824" y="818"/>
      <point x="860" y="846" type="qcurve" smooth="yes"/>
      <point x="884" y="864"/>
      <point x="943" y="897"/>
      <point x="1006" y="922"/>
      <point x="1071" y="936"/>
      <point x="1102" y="936" type="qcurve" smooth="yes"/>
      <point x="1145" y="936"/>
      <point x="1208" y="905"/>
      <point x="1250" y="855"/>
      <point x="1270" y="792"/>
      <point x="1270" y="760" type="qcurve" smooth="yes"/>
      <point x="1270" y="732"/>
      <point x="1257" y="670"/>
      <point x="1216" y="604"/>
      <point x="1143" y="532"/>
      <point x="1022" y="455"/>
      <point x="848" y="372"/>
      <point x="727" y="327" type="qcurve"/>
      <point x="733" y="271"/>
      <point x="768" y="179"/>
      <point x="815" y="113"/>
      <point x="870" y="76"/>
      <point x="897" y="76" type="qcurve" smooth="yes"/>
      <point x="918" y="76"/>
      <point x="978" y="85"/>
      <point x="1057" y="115"/>
      <point x="1156" y="173"/>
      <point x="1217" y="221" type="qcurve"/>
      <point x="1228" y="215"/>
      <point x="1242" y="188"/>
      <point x="1247" y="180" type="qcurve"/>
      <point x="1164" y="109"/>
      <point x="1039" y="22"/>
      <point x="940" y="-25"/>
      <point x="861" y="-41"/>
      <point x="825" y="-41" type="qcurve" smooth="yes"/>
      <point x="793" y="-41"/>
      <point x="714" y="-8"/>
      <point x="642" y="66"/>
      <point x="590" y="185"/>
      <point x="585" y="270" type="qcurve"/>
      <point x="559" y="224"/>
      <point x="482" y="116"/>
      <point x="394" y="22"/>
      <point x="302" y="-41"/>
      <point x="262" y="-41" type="qcurve" smooth="yes"/>
      <point x="228" y="-41"/>
      <point x="154" y="-3"/>
      <point x="93" y="80"/>
      <point x="53" y="211"/>
      <point x="53" y="305" type="qcurve" smooth="yes"/>
      <point x="53" y="384"/>
      <point x="88" y="535"/>
      <point x="159" y="673"/>
      <point x="266" y="794"/>
      <point x="338" y="842" type="qcurve" smooth="yes"/>
      <point x="365" y="860"/>
      <point x="428" y="894"/>
      <point x="494" y="920"/>
      <point x="561" y="936"/>
      <point x="592" y="936" type="qcurve" smooth="yes"/>
      <point x="613" y="936"/>
      <point x="653" y="925"/>
      <point x="691" y="907"/>
      <point x="727" y="885"/>
      <point x="743" y="875" type="qcurve"/>
      <point x="766" y="892"/>
      <point x="816" y="923"/>
      <point x="842" y="936" type="qcurve"/>
      <point x="862" y="901" type="line"/>
    </contour>
  </outline>
</glyph>
<glyph name="eth" format="1">
  <advance width="885"/>
  <unicode hex="00F0"/>
  <outline>
    <contour>
      <point x="395" y="68" type="qcurve" smooth="yes"/>
      <point x="467" y="68"/>
      <point x="574" y="158"/>
      <point x="649" y="301"/>
      <point x="693" y="480"/>
      <point x="703" y="569" type="qcurve"/>
      <point x="693" y="625"/>
      <point x="644" y="719"/>
      <point x="578" y="787"/>
      <point x="501" y="825"/>
      <point x="463" y="825" type="qcurve" smooth="yes"/>
      <point x="419" y="825"/>
      <point x="344" y="785"/>
      <point x="284" y="719"/>
      <point x="239" y="632"/>
      <point x="208" y="537"/>
      <point x="193" y="440"/>
      <point x="193" y="397" type="qcurve" smooth="yes"/>
      <point x="193" y="329"/>
      <point x="226" y="209"/>
      <point x="281" y="120"/>
      <point x="354" y="68"/>
    </contour>
    <contour>
      <point x="844" y="707" type="qcurve" smooth="yes"/>
      <point x="844" y="602"/>
      <point x="806" y="409"/>
      <point x="738" y="242"/>
      <point x="646" y="107"/>
      <point x="539" y="11"/>
      <point x="421" y="-41"/>
      <point x="362" y="-41" type="qcurve" smooth="yes"/>
      <point x="288" y="-41"/>
      <point x="173" y="14"/>
      <point x="94" y="111"/>
      <point x="53" y="245"/>
      <point x="53" y="324" type="qcurve" smooth="yes"/>
      <point x="53" y="402"/>
      <point x="86" y="553"/>
      <point x="146" y="689"/>
      <point x="229" y="804"/>
      <point x="330" y="889"/>
      <point x="443" y="936"/>
      <point x="504" y="936" type="qcurve" smooth="yes"/>
      <point x="531" y="936"/>
      <point x="587" y="915"/>
      <point x="639" y="879"/>
      <point x="687" y="831"/>
      <point x="706" y="804" type="qcurve"/>
      <point x="695" y="904"/>
      <point x="626" y="1065"/>
      <point x="572" y="1136" type="qcurve"/>
      <point x="358" y="1040" type="line"/>
      <point x="342" y="1043"/>
      <point x="324" y="1046"/>
      <point x="310" y="1050"/>
      <point x="294" y="1056"/>
      <point x="281" y="1061" type="qcurve"/>
      <point x="276" y="1096" type="line"/>
      <point x="517" y="1205" type="line"/>
      <point x="496" y="1228"/>
      <point x="449" y="1267"/>
      <point x="394" y="1292"/>
      <point x="331" y="1302"/>
      <point x="293" y="1296" type="qcurve"/>
      <point x="293" y="1337" type="line"/>
      <point x="481" y="1409" type="line"/>
      <point x="526" y="1372"/>
      <point x="603" y="1297"/>
      <point x="636" y="1259" type="qcurve"/>
      <point x="834" y="1348" type="line"/>
      <point x="854" y="1344"/>
      <point x="875" y="1339"/>
      <point x="889" y="1335"/>
      <point x="900" y="1329"/>
      <point x="911" y="1325" type="qcurve"/>
      <point x="913" y="1290" type="line"/>
      <point x="690" y="1189" type="line"/>
      <point x="771" y="1075"/>
      <point x="844" y="835"/>
    </contour>
  </outline>
</glyph>
<glyph name="divide" format="1">
  <advance width="780"/>
  <unicode hex="00F7"/>
  <outline>
    <contour>
      <point x="523" y="820" type="qcurve" smooth="yes"/>
      <point x="520" y="798"/>
      <point x="501" y="758"/>
      <point x="474" y="728"/>
      <point x="442" y="711"/>
      <point x="424" y="711" type="qcurve" smooth="yes"/>
      <point x="392" y="711"/>
      <point x="370" y="751"/>
      <point x="375" y="788" type="qcurve" smooth="yes"/>
      <point x="378" y="810"/>
      <point x="397" y="850"/>
      <point x="423" y="879"/>
      <point x="456" y="896"/>
      <point x="473" y="896" type="qcurve" smooth="yes"/>
      <point x="534" y="896"/>
    </contour>
    <contour>
      <point x="456" y="340" type="qcurve" smooth="yes"/>
      <point x="453" y="318"/>
      <point x="435" y="278"/>
      <point x="408" y="248"/>
      <point x="376" y="231"/>
      <point x="358" y="231" type="qcurve" smooth="yes"/>
      <point x="326" y="231"/>
      <point x="303" y="271"/>
      <point x="308" y="308" type="qcurve" smooth="yes"/>
      <point x="311" y="330"/>
      <point x="330" y="370"/>
      <point x="356" y="399"/>
      <point x="389" y="416"/>
      <point x="406" y="416" type="qcurve" smooth="yes"/>
      <point x="467" y="416"/>
    </contour>
    <contour>
      <point x="742" y="594" type="line"/>
      <point x="735" y="574"/>
      <point x="712" y="523"/>
      <point x="703" y="506" type="qcurve"/>
      <point x="107" y="506" type="line"/>
      <point x="88" y="530" type="line"/>
      <point x="96" y="550"/>
      <point x="118" y="598"/>
      <point x="129" y="618" type="qcurve"/>
      <point x="725" y="618" type="line"/>
      <point x="742" y="594" type="line"/>
    </contour>
  </outline>
</glyph>
<glyph name="oslash" format="1">
  <advance width="864"/>
  <unicode hex="00F8"/>
  <outline>
    <contour>
      <point x="197" y="399" type="qcurve" smooth="yes"/>
      <point x="197" y="360"/>
      <point x="208" y="287"/>
      <point x="219" y="255" type="qcurve"/>
      <point x="612" y="737" type="line"/>
      <point x="556" y="819"/>
      <point x="453" y="819" type="qcurve" smooth="yes"/>
      <point x="381" y="819"/>
      <point x="283" y="736"/>
      <point x="223" y="610"/>
      <point x="197" y="463"/>
    </contour>
    <contour>
      <point x="668" y="504" type="qcurve" smooth="yes"/>
      <point x="668" y="584"/>
      <point x="651" y="649" type="qcurve"/>
      <point x="259" y="169" type="line"/>
      <point x="288" y="124"/>
      <point x="367" y="72"/>
      <point x="414" y="72" type="qcurve" smooth="yes"/>
      <point x="460" y="72"/>
      <point x="533" y="113"/>
      <point x="590" y="182"/>
      <point x="630" y="271"/>
      <point x="656" y="367"/>
      <point x="668" y="463"/>
    </contour>
    <contour>
      <point x="811" y="559" type="qcurve" smooth="yes"/>
      <point x="811" y="492"/>
      <point x="781" y="355"/>
      <point x="723" y="226"/>
      <point x="638" y="109"/>
      <point x="582" y="63" type="qcurve" smooth="yes"/>
      <point x="556" y="42"/>
      <point x="498" y="4"/>
      <point x="438" y="-25"/>
      <point x="376" y="-41"/>
      <point x="346" y="-41" type="qcurve" smooth="yes"/>
      <point x="286" y="-41"/>
      <point x="190" y="3"/>
      <point x="154" y="41" type="qcurve"/>
      <point x="127" y="8" type="line" smooth="yes"/>
      <point x="118" y="0"/>
      <point x="86" y="-21"/>
      <point x="51" y="-41"/>
      <point x="18" y="-58"/>
      <point x="6" y="-61" type="qcurve"/>
      <point x="-14" y="-31" type="line"/>
      <point x="103" y="113" type="line"/>
      <point x="78" y="161"/>
      <point x="53" y="278"/>
      <point x="53" y="344" type="qcurve" smooth="yes"/>
      <point x="53" y="416"/>
      <point x="77" y="549"/>
      <point x="131" y="673"/>
      <point x="221" y="787"/>
      <point x="287" y="840" type="qcurve" smooth="yes"/>
      <point x="338" y="880"/>
      <point x="460" y="936"/>
      <point x="522" y="936" type="qcurve" smooth="yes"/>
      <point x="585" y="936"/>
      <point x="681" y="899"/>
      <point x="715" y="865" type="qcurve"/>
      <point x="735" y="889" type="line"/>
      <point x="763" y="906"/>
      <point x="826" y="950"/>
      <point x="854" y="958" type="qcurve"/>
      <point x="877" y="926" type="line"/>
      <point x="767" y="791" type="line"/>
      <point x="790" y="744"/>
      <point x="811" y="627"/>
    </contour>
  </outline>
</glyph>
<glyph name="thorn" format="1">
  <advance width="965"/>
  <unicode hex="00FE"/>
  <outline>
    <contour>
      <point x="610" y="805" type="qcurve" smooth="yes"/>
      <point x="584" y="805"/>
      <point x="505" y="758"/>
      <point x="417" y="671"/>
      <point x="331" y="550"/>
      <point x="298" y="476" type="qcurve"/>
      <point x="291" y="434"/>
      <point x="278" y="351"/>
      <point x="270" y="307" type="qcurve"/>
      <point x="285" y="276"/>
      <point x="340" y="199"/>
      <point x="410" y="132"/>
      <point x="489" y="86"/>
      <point x="528" y="86" type="qcurve" smooth="yes"/>
      <point x="556" y="86"/>
      <point x="604" y="107"/>
      <point x="643" y="144"/>
      <point x="674" y="192"/>
      <point x="686" y="219" type="qcurve" smooth="yes"/>
      <point x="704" y="258"/>
      <point x="726" y="343"/>
      <point x="736" y="426"/>
      <point x="739" y="502"/>
      <point x="739" y="532" type="qcurve" smooth="yes"/>
      <point x="739" y="602"/>
      <point x="717" y="705"/>
      <point x="680" y="772"/>
      <point x="634" y="805"/>
    </contour>
    <contour>
      <point x="432" y="1427" type="qcurve" smooth="yes"/>
      <point x="432" y="1406"/>
      <point x="418" y="1280"/>
      <point x="391" y="1082"/>
      <point x="352" y="815"/>
      <point x="326" y="653" type="qcurve"/>
      <point x="390" y="749"/>
      <point x="499" y="861"/>
      <point x="592" y="919"/>
      <point x="667" y="936"/>
      <point x="696" y="936" type="qcurve" smooth="yes"/>
      <point x="735" y="936"/>
      <point x="803" y="896"/>
      <point x="855" y="817"/>
      <point x="885" y="702"/>
      <point x="885" y="627" type="qcurve" smooth="yes"/>
      <point x="885" y="527"/>
      <point x="829" y="303"/>
      <point x="766" y="188" type="qcurve" smooth="yes"/>
      <point x="743" y="148"/>
      <point x="680" y="67"/>
      <point x="605" y="1"/>
      <point x="518" y="-41"/>
      <point x="471" y="-41" type="qcurve" smooth="yes"/>
      <point x="439" y="-41"/>
      <point x="379" y="-5"/>
      <point x="323" y="55"/>
      <point x="271" y="131"/>
      <point x="247" y="172" type="qcurve"/>
      <point x="239" y="131"/>
      <point x="226" y="49"/>
      <point x="218" y="6" type="qcurve" smooth="yes"/>
      <point x="183" y="-200"/>
      <point x="168" y="-419"/>
      <point x="179" y="-447" type="qcurve"/>
      <point x="164" y="-451"/>
      <point x="124" y="-464"/>
      <point x="81" y="-479"/>
      <point x="42" y="-494"/>
      <point x="29" y="-500" type="qcurve"/>
      <point x="-3" y="-471" type="line"/>
      <point x="12" y="-382"/>
      <point x="52" y="-146"/>
      <point x="97" y="121"/>
      <point x="143" y="407"/>
      <point x="187" y="685"/>
      <point x="226" y="944"/>
      <point x="255" y="1157"/>
      <point x="272" y="1311"/>
      <point x="272" y="1346" type="qcurve" smooth="yes"/>
      <point x="272" y="1369"/>
      <point x="264" y="1396"/>
      <point x="249" y="1409"/>
      <point x="230" y="1413"/>
      <point x="219" y="1413" type="qcurve" smooth="yes"/>
      <point x="210" y="1413"/>
      <point x="176" y="1405"/>
      <point x="143" y="1394"/>
      <point x="119" y="1386"/>
      <point x="119" y="1386" type="qcurve"/>
      <point x="106" y="1425" type="line"/>
      <point x="148" y="1444"/>
      <point x="236" y="1478"/>
      <point x="312" y="1504"/>
      <point x="370" y="1520"/>
      <point x="383" y="1520" type="qcurve" smooth="yes"/>
      <point x="415" y="1520"/>
      <point x="432" y="1477"/>
    </contour>
  </outline>
</glyph>
<glyph name="dcroat" format="1">
  <advance width="969"/>
  <unicode hex="0111"/>
  <outline>
    <contour>
      <point x="621" y="424" type="qcurve"/>
      <point x="630" y="484"/>
      <point x="654" y="637"/>
      <point x="668" y="722" type="qcurve"/>
      <point x="651" y="740"/>
      <point x="612" y="779"/>
      <point x="567" y="811"/>
      <point x="517" y="831"/>
      <point x="489" y="831" type="qcurve" smooth="yes"/>
      <point x="444" y="831"/>
      <point x="364" y="786"/>
      <point x="297" y="712"/>
      <point x="245" y="617"/>
      <point x="209" y="516"/>
      <point x="190" y="418"/>
      <point x="190" y="379" type="qcurve" smooth="yes"/>
      <point x="190" y="314"/>
      <point x="217" y="210"/>
      <point x="261" y="136"/>
      <point x="317" y="96"/>
      <point x="346" y="96" type="qcurve" smooth="yes"/>
      <point x="373" y="96"/>
      <point x="439" y="146"/>
      <point x="510" y="235"/>
      <point x="585" y="355"/>
    </contour>
    <contour>
      <point x="924" y="68" type="line"/>
      <point x="839" y="11"/>
      <point x="730" y="-41"/>
      <point x="696" y="-41" type="qcurve" smooth="yes"/>
      <point x="677" y="-41"/>
      <point x="645" y="-10"/>
      <point x="622" y="65"/>
      <point x="608" y="189"/>
      <point x="608" y="281" type="qcurve"/>
      <point x="574" y="218"/>
      <point x="495" y="102"/>
      <point x="409" y="12"/>
      <point x="319" y="-41"/>
      <point x="276" y="-41" type="qcurve" smooth="yes"/>
      <point x="242" y="-41"/>
      <point x="164" y="0"/>
      <point x="97" y="87"/>
      <point x="53" y="222"/>
      <point x="53" y="315" type="qcurve" smooth="yes"/>
      <point x="53" y="394"/>
      <point x="87" y="543"/>
      <point x="156" y="678"/>
      <point x="261" y="795"/>
      <point x="332" y="842" type="qcurve" smooth="yes"/>
      <point x="360" y="860"/>
      <point x="425" y="893"/>
      <point x="493" y="918"/>
      <point x="561" y="934"/>
      <point x="592" y="934" type="qcurve" smooth="yes"/>
      <point x="617" y="934"/>
      <point x="668" y="902"/>
      <point x="694" y="882" type="qcurve"/>
      <point x="704" y="942"/>
      <point x="722" y="1058"/>
      <point x="730" y="1112" type="qcurve"/>
      <point x="457" y="1112" type="line"/>
      <point x="438" y="1137" type="line"/>
      <point x="444" y="1152"/>
      <point x="460" y="1188"/>
      <point x="469" y="1202" type="qcurve"/>
      <point x="742" y="1202" type="line"/>
      <point x="747" y="1247"/>
      <point x="754" y="1321"/>
      <point x="754" y="1346" type="qcurve" smooth="yes"/>
      <point x="754" y="1369"/>
      <point x="747" y="1396"/>
      <point x="734" y="1409"/>
      <point x="718" y="1413"/>
      <point x="709" y="1413" type="qcurve" smooth="yes"/>
      <point x="700" y="1413"/>
      <point x="665" y="1405"/>
      <point x="629" y="1394"/>
      <point x="602" y="1386"/>
      <point x="602" y="1386" type="qcurve"/>
      <point x="590" y="1425" type="line"/>
      <point x="632" y="1444"/>
      <point x="717" y="1478"/>
      <point x="790" y="1504"/>
      <point x="846" y="1520"/>
      <point x="858" y="1520" type="qcurve" smooth="yes"/>
      <point x="886" y="1520"/>
      <point x="913" y="1484"/>
      <point x="913" y="1438" type="qcurve" smooth="yes"/>
      <point x="913" y="1400"/>
      <point x="899" y="1277"/>
      <point x="888" y="1202" type="qcurve"/>
      <point x="1028" y="1202" type="line"/>
      <point x="1047" y="1180" type="line"/>
      <point x="1016" y="1112" type="line"/>
      <point x="874" y="1112" type="line"/>
      <point x="862" y="1037"/>
      <point x="834" y="875"/>
      <point x="807" y="715"/>
      <point x="781" y="563"/>
      <point x="762" y="432"/>
      <point x="750" y="330"/>
      <point x="750" y="299" type="qcurve" smooth="yes"/>
      <point x="750" y="183"/>
      <point x="772" y="78"/>
      <point x="795" y="78" type="qcurve" smooth="yes"/>
      <point x="821" y="78"/>
      <point x="876" y="89"/>
      <point x="911" y="104" type="qcurve"/>
      <point x="924" y="68" type="line"/>
    </contour>
  </outline>
</glyph>
<glyph name="Hbar" format="1">
  <advance width="1235"/>
  <unicode hex="0126"/>
  <outline>
    <contour>
      <point x="375" y="705" type="line"/>
      <point x="931" y="705" type="line"/>
      <point x="956" y="890" type="line"/>
      <point x="400" y="890" type="line"/>
    </contour>
    <contour>
      <point x="578" y="1217" type="line"/>
      <point x="515" y="1203"/>
      <point x="439" y="1169"/>
      <point x="436" y="1155" type="qcurve" smooth="yes"/>
      <point x="412" y="980" type="line"/>
      <point x="969" y="980" type="line"/>
      <point x="993" y="1155" type="line" smooth="yes"/>
      <point x="995" y="1167"/>
      <point x="933" y="1203"/>
      <point x="870" y="1217" type="qcurve"/>
      <point x="874" y="1260" type="line"/>
      <point x="1286" y="1260" type="line"/>
      <point x="1280" y="1217" type="line"/>
      <point x="1217" y="1203"/>
      <point x="1141" y="1169"/>
      <point x="1139" y="1155" type="qcurve" smooth="yes"/>
      <point x="1114" y="980" type="line"/>
      <point x="1224" y="980" type="line"/>
      <point x="1243" y="957" type="line"/>
      <point x="1214" y="890" type="line"/>
      <point x="1102" y="890" type="line"/>
      <point x="993" y="104" type="line" smooth="yes"/>
      <point x="991" y="92"/>
      <point x="1053" y="57"/>
      <point x="1118" y="43" type="qcurve"/>
      <point x="1112" y="0" type="line"/>
      <point x="702" y="0" type="line"/>
      <point x="709" y="43" type="line"/>
      <point x="772" y="57"/>
      <point x="846" y="90"/>
      <point x="848" y="104" type="qcurve" smooth="yes"/>
      <point x="918" y="615" type="line"/>
      <point x="362" y="615" type="line"/>
      <point x="293" y="104" type="line" smooth="yes"/>
      <point x="290" y="92"/>
      <point x="353" y="57"/>
      <point x="416" y="43" type="qcurve"/>
      <point x="410" y="0" type="line"/>
      <point x="0" y="0" type="line"/>
      <point x="6" y="43" type="line"/>
      <point x="69" y="57"/>
      <point x="145" y="90"/>
      <point x="147" y="104" type="qcurve" smooth="yes"/>
      <point x="256" y="890" type="line"/>
      <point x="144" y="890" type="line"/>
      <point x="128" y="915" type="line"/>
      <point x="134" y="930"/>
      <point x="148" y="964"/>
      <point x="156" y="980" type="qcurve"/>
      <point x="268" y="980" type="line"/>
      <point x="293" y="1155" type="line" smooth="yes"/>
      <point x="295" y="1167"/>
      <point x="233" y="1203"/>
      <point x="168" y="1217" type="qcurve"/>
      <point x="174" y="1260" type="line"/>
      <point x="584" y="1260" type="line"/>
    </contour>
  </outline>
</glyph>
<glyph name="Lslash" format="1">
  <advance width="918"/>
  <unicode hex="0141"/>
  <outline>
    <contour>
      <point x="657" y="823" type="line"/>
      <point x="654" y="814"/>
      <point x="642" y="788"/>
      <point x="628" y="761"/>
      <point x="612" y="736"/>
      <point x="606" y="729" type="qcurve" smooth="yes"/>
      <point x="360" y="600" type="line"/>
      <point x="299" y="154" type="line" smooth="yes"/>
      <point x="297" y="136"/>
      <point x="309" y="111"/>
      <point x="346" y="96"/>
      <point x="411" y="90"/>
      <point x="461" y="90" type="qcurve" smooth="yes"/>
      <point x="588" y="90" type="line" smooth="yes"/>
      <point x="630" y="90"/>
      <point x="689" y="100"/>
      <point x="737" y="135"/>
      <point x="781" y="203"/>
      <point x="809" y="262" type="qcurve"/>
      <point x="848" y="244" type="line"/>
      <point x="828" y="157"/>
      <point x="787" y="29"/>
      <point x="774" y="0" type="qcurve"/>
      <point x="0" y="0" type="line"/>
      <point x="6" y="43" type="line"/>
      <point x="69" y="57"/>
      <point x="145" y="90"/>
      <point x="147" y="104" type="qcurve" smooth="yes"/>
      <point x="204" y="518" type="line"/>
      <point x="84" y="455" type="line"/>
      <point x="61" y="477" type="line"/>
      <point x="64" y="487"/>
      <point x="77" y="516"/>
      <point x="92" y="544"/>
      <point x="107" y="569"/>
      <point x="113" y="575" type="qcurve" smooth="yes"/>
      <point x="220" y="631" type="line"/>
      <point x="293" y="1155" type="line" smooth="yes"/>
      <point x="295" y="1167"/>
      <point x="233" y="1203"/>
      <point x="168" y="1217" type="qcurve"/>
      <point x="174" y="1260" type="line"/>
      <point x="584" y="1260" type="line"/>
      <point x="578" y="1217" type="line"/>
      <point x="515" y="1203"/>
      <point x="439" y="1169"/>
      <point x="436" y="1155" type="qcurve" smooth="yes"/>
      <point x="375" y="712" type="line"/>
      <point x="637" y="848" type="line"/>
      <point x="657" y="823" type="line"/>
    </contour>
  </outline>
</glyph>
<glyph name="Eng" format="1">
  <advance width="1124"/>
  <unicode hex="014A"/>
  <outline>
    <contour>
      <point x="1106" y="1042" type="qcurve" smooth="yes"/>
      <point x="1106" y="1002"/>
      <point x="1100" y="950" type="qcurve" smooth="yes"/>
      <point x="999" y="213" type="line" smooth="yes"/>
      <point x="985" y="109"/>
      <point x="928" y="-63"/>
      <point x="850" y="-203"/>
      <point x="756" y="-312"/>
      <point x="705" y="-352" type="qcurve" smooth="yes"/>
      <point x="681" y="-371"/>
      <point x="615" y="-405"/>
      <point x="542" y="-430"/>
      <point x="467" y="-444"/>
      <point x="434" y="-444" type="qcurve" smooth="yes"/>
      <point x="390" y="-444"/>
      <point x="312" y="-418"/>
      <point x="253" y="-381"/>
      <point x="219" y="-341"/>
      <point x="219" y="-326" type="qcurve" smooth="yes"/>
      <point x="219" y="-318"/>
      <point x="250" y="-281"/>
      <point x="294" y="-244"/>
      <point x="342" y="-215"/>
      <point x="358" y="-215" type="qcurve" smooth="yes"/>
      <point x="367" y="-215"/>
      <point x="392" y="-250"/>
      <point x="430" y="-293"/>
      <point x="487" y="-328"/>
      <point x="528" y="-328" type="qcurve" smooth="yes"/>
      <point x="658" y="-328"/>
      <point x="814" y="-88"/>
      <point x="848" y="160" type="qcurve" smooth="yes"/>
      <point x="940" y="842" type="line" smooth="yes"/>
      <point x="946" y="880"/>
      <point x="950" y="946"/>
      <point x="950" y="975" type="qcurve" smooth="yes"/>
      <point x="950" y="1024"/>
      <point x="933" y="1091"/>
      <point x="903" y="1133"/>
      <point x="860" y="1151"/>
      <point x="834" y="1151" type="qcurve" smooth="yes"/>
      <point x="807" y="1151"/>
      <point x="722" y="1118"/>
      <point x="625" y="1054"/>
      <point x="523" y="959"/>
      <point x="436" y="833"/>
      <point x="370" y="678"/>
      <point x="358" y="586" type="qcurve" smooth="yes"/>
      <point x="293" y="104" type="line" smooth="yes"/>
      <point x="290" y="92"/>
      <point x="353" y="57"/>
      <point x="416" y="43" type="qcurve"/>
      <point x="410" y="0" type="line"/>
      <point x="0" y="0" type="line"/>
      <point x="6" y="43" type="line"/>
      <point x="69" y="57"/>
      <point x="145" y="90"/>
      <point x="147" y="104" type="qcurve" smooth="yes"/>
      <point x="276" y="1038" type="line" smooth="yes"/>
      <point x="285" y="1096"/>
      <point x="280" y="1159"/>
      <point x="244" y="1180"/>
      <point x="174" y="1168"/>
      <point x="117" y="1153" type="qcurve"/>
      <point x="106" y="1208" type="line"/>
      <point x="158" y="1227"/>
      <point x="251" y="1258"/>
      <point x="325" y="1279"/>
      <point x="379" y="1290"/>
      <point x="393" y="1290" type="qcurve" smooth="yes"/>
      <point x="418" y="1290"/>
      <point x="434" y="1232"/>
      <point x="434" y="1184" type="qcurve" smooth="yes"/>
      <point x="434" y="1167"/>
      <point x="430" y="1105"/>
      <point x="423" y="1031"/>
      <point x="411" y="953"/>
      <point x="403" y="920" type="qcurve"/>
      <point x="466" y="1022"/>
      <point x="604" y="1163"/>
      <point x="739" y="1251"/>
      <point x="863" y="1290"/>
      <point x="911" y="1290" type="qcurve" smooth="yes"/>
      <point x="945" y="1290"/>
      <point x="1014" y="1267"/>
      <point x="1070" y="1210"/>
      <point x="1106" y="1114"/>
    </contour>
  </outline>
</glyph>
<glyph name="uni0180" format="1">
  <advance width="956"/>
  <unicode hex="0180"/>
  <outline>
    <contour>
      <point x="604" y="803" type="qcurve" smooth="yes"/>
      <point x="585" y="803"/>
      <point x="513" y="754"/>
      <point x="426" y="665"/>
      <point x="335" y="544"/>
      <point x="298" y="472" type="qcurve"/>
      <point x="287" y="400"/>
      <point x="276" y="287"/>
      <point x="276" y="256" type="qcurve" smooth="yes"/>
      <point x="276" y="230"/>
      <point x="307" y="170"/>
      <point x="359" y="119"/>
      <point x="424" y="86"/>
      <point x="459" y="86" type="qcurve" smooth="yes"/>
      <point x="495" y="86"/>
      <point x="557" y="112"/>
      <point x="610" y="153"/>
      <point x="652" y="204"/>
      <point x="668" y="229" type="qcurve" smooth="yes"/>
      <point x="691" y="265"/>
      <point x="719" y="343"/>
      <point x="735" y="421"/>
      <point x="741" y="496"/>
      <point x="741" y="530" type="qcurve" smooth="yes"/>
      <point x="741" y="599"/>
      <point x="716" y="702"/>
      <point x="677" y="770"/>
      <point x="628" y="803"/>
    </contour>
    <contour>
      <point x="664" y="1112" type="line"/>
      <point x="395" y="1112" type="line"/>
      <point x="378" y="997"/>
      <point x="338" y="745"/>
      <point x="320" y="627" type="qcurve"/>
      <point x="371" y="713"/>
      <point x="480" y="831"/>
      <point x="582" y="904"/>
      <point x="671" y="936"/>
      <point x="702" y="936" type="qcurve" smooth="yes"/>
      <point x="741" y="936"/>
      <point x="809" y="893"/>
      <point x="858" y="811"/>
      <point x="886" y="689"/>
      <point x="885" y="610" type="qcurve" smooth="yes"/>
      <point x="883" y="504"/>
      <point x="824" y="289"/>
      <point x="752" y="188" type="qcurve" smooth="yes"/>
      <point x="718" y="143"/>
      <point x="635" y="60"/>
      <point x="537" y="-3"/>
      <point x="425" y="-41"/>
      <point x="362" y="-41" type="qcurve" smooth="yes"/>
      <point x="341" y="-41"/>
      <point x="290" y="-20"/>
      <point x="237" y="18"/>
      <point x="186" y="68"/>
      <point x="147" y="125"/>
      <point x="123" y="187"/>
      <point x="123" y="217" type="qcurve" smooth="yes"/>
      <point x="123" y="243"/>
      <point x="136" y="353"/>
      <point x="156" y="501"/>
      <point x="182" y="676"/>
      <point x="210" y="857"/>
      <point x="236" y="1035"/>
      <point x="247" y="1112" type="qcurve"/>
      <point x="85" y="1112" type="line"/>
      <point x="66" y="1137" type="line"/>
      <point x="72" y="1152"/>
      <point x="88" y="1188"/>
      <point x="97" y="1202" type="qcurve"/>
      <point x="259" y="1202" type="line"/>
      <point x="265" y="1250"/>
      <point x="272" y="1323"/>
      <point x="272" y="1346" type="qcurve" smooth="yes"/>
      <point x="272" y="1369"/>
      <point x="262" y="1396"/>
      <point x="246" y="1409"/>
      <point x="228" y="1413"/>
      <point x="219" y="1413" type="qcurve" smooth="yes"/>
      <point x="210" y="1413"/>
      <point x="176" y="1405"/>
      <point x="143" y="1394"/>
      <point x="119" y="1386"/>
      <point x="119" y="1386" type="qcurve"/>
      <point x="106" y="1425" type="line"/>
      <point x="148" y="1444"/>
      <point x="236" y="1478"/>
      <point x="313" y="1504"/>
      <point x="371" y="1520"/>
      <point x="383" y="1520" type="qcurve" smooth="yes"/>
      <point x="411" y="1520"/>
      <point x="432" y="1484"/>
      <point x="432" y="1438" type="qcurve" smooth="yes"/>
      <point x="432" y="1403"/>
      <point x="419" y="1280"/>
      <point x="408" y="1202" type="qcurve"/>
      <point x="676" y="1202" type="line"/>
      <point x="695" y="1180" type="line"/>
    </contour>
  </outline>
</glyph>
<glyph name="uni0184" format="1">
  <advance width="1007"/>
  <unicode hex="0184"/>
  <outline>
    <contour>
      <point x="321" y="354" type="line"/>
      <point x="288" y="104" type="line" smooth="yes"/>
      <point x="286" y="98"/>
      <point x="294" y="89" type="qcurve"/>
      <point x="309" y="83"/>
      <point x="347" y="76"/>
      <point x="388" y="72"/>
      <point x="429" y="70"/>
      <point x="447" y="70" type="qcurve" smooth="yes"/>
      <point x="512" y="70"/>
      <point x="622" y="107"/>
      <point x="705" y="173"/>
      <point x="757" y="266"/>
      <point x="765" y="322" type="qcurve" smooth="yes"/>
      <point x="772" y="377"/>
      <point x="754" y="493"/>
      <point x="694" y="588"/>
      <point x="589" y="649"/>
      <point x="511" y="649" type="qcurve" smooth="yes"/>
      <point x="467" y="649"/>
      <point x="393" y="641"/>
      <point x="360" y="635" type="qcurve"/>
      <point x="322" y="354" type="line"/>
    </contour>
    <contour>
      <point x="917" y="356" type="qcurve" smooth="yes"/>
      <point x="905" y="271"/>
      <point x="827" y="134"/>
      <point x="705" y="38"/>
      <point x="547" y="-14"/>
      <point x="456" y="-14" type="qcurve" smooth="yes"/>
      <point x="425" y="-14"/>
      <point x="325" y="-11"/>
      <point x="221" y="-7"/>
      <point x="125" y="-3"/>
      <point x="68" y="0"/>
      <point x="66" y="0" type="qcurve" smooth="yes"/>
      <point x="0" y="0" type="line"/>
      <point x="5" y="43" type="line"/>
      <point x="68" y="57"/>
      <point x="142" y="90"/>
      <point x="144" y="104" type="qcurve" smooth="yes"/>
      <point x="195" y="485" type="line"/>
      <point x="195" y="485"/>
      <point x="195" y="485" type="qcurve"/>
      <point x="195" y="486"/>
      <point x="196" y="486" type="qcurve" smooth="yes"/>
      <point x="228" y="726" type="line" smooth="yes"/>
      <point x="234" y="768"/>
      <point x="233" y="822"/>
      <point x="210" y="858"/>
      <point x="157" y="879"/>
      <point x="110" y="887" type="qcurve"/>
      <point x="116" y="930" type="line"/>
      <point x="199" y="979"/>
      <point x="354" y="1168"/>
      <point x="417" y="1290" type="qcurve"/>
      <point x="445" y="1260" type="line"/>
      <point x="371" y="720" type="line"/>
      <point x="413" y="728"/>
      <point x="508" y="739"/>
      <point x="558" y="739" type="qcurve" smooth="yes"/>
      <point x="657" y="739"/>
      <point x="802" y="683"/>
      <point x="893" y="581"/>
      <point x="928" y="440"/>
    </contour>
  </outline>
</glyph>
<glyph name="uni0185" format="1">
  <advance width="956"/>
  <unicode hex="0185"/>
  <outline>
    <contour>
      <point x="604" y="803" type="qcurve" smooth="yes"/>
      <point x="585" y="803"/>
      <point x="511" y="752"/>
      <point x="423" y="662"/>
      <point x="331" y="538"/>
      <point x="294" y="465" type="qcurve"/>
      <point x="286" y="394"/>
      <point x="276" y="285"/>
      <point x="276" y="256" type="qcurve" smooth="yes"/>
      <point x="276" y="230"/>
      <point x="307" y="170"/>
      <point x="359" y="119"/>
      <point x="424" y="86"/>
      <point x="459" y="86" type="qcurve" smooth="yes"/>
      <point x="495" y="86"/>
      <point x="557" y="112"/>
      <point x="610" y="153"/>
      <point x="652" y="204"/>
      <point x="668" y="229" type="qcurve" smooth="yes"/>
      <point x="691" y="265"/>
      <point x="719" y="343"/>
      <point x="735" y="421"/>
      <point x="741" y="496"/>
      <point x="741" y="530" type="qcurve" smooth="yes"/>
      <point x="741" y="599"/>
      <point x="716" y="702"/>
      <point x="677" y="770"/>
      <point x="628" y="803"/>
    </contour>
    <contour>
      <point x="885" y="610" type="qcurve" smooth="yes"/>
      <point x="883" y="504"/>
      <point x="824" y="289"/>
      <point x="752" y="188" type="qcurve" smooth="yes"/>
      <point x="718" y="143"/>
      <point x="635" y="60"/>
      <point x="537" y="-3"/>
      <point x="425" y="-41"/>
      <point x="362" y="-41" type="qcurve" smooth="yes"/>
      <point x="341" y="-41"/>
      <point x="290" y="-20"/>
      <point x="237" y="18"/>
      <point x="186" y="68"/>
      <point x="147" y="125"/>
      <point x="123" y="187"/>
      <point x="123" y="217" type="qcurve" smooth="yes"/>
      <point x="123" y="250"/>
      <point x="140" y="398"/>
      <point x="168" y="600"/>
      <point x="203" y="838"/>
      <point x="221" y="961" type="qcurve" smooth="yes"/>
      <point x="226" y="998"/>
      <point x="224" y="1053"/>
      <point x="194" y="1092"/>
      <point x="129" y="1115"/>
      <point x="72" y="1120" type="qcurve"/>
      <point x="77" y="1162" type="line"/>
      <point x="133" y="1179"/>
      <point x="235" y="1254"/>
      <point x="324" y="1352"/>
      <point x="398" y="1463"/>
      <point x="425" y="1517" type="qcurve"/>
      <point x="453" y="1487" type="line"/>
      <point x="313" y="617" type="line"/>
      <point x="313" y="615" type="line"/>
      <point x="365" y="704"/>
      <point x="476" y="827"/>
      <point x="580" y="903"/>
      <point x="670" y="936"/>
      <point x="702" y="936" type="qcurve" smooth="yes"/>
      <point x="741" y="936"/>
      <point x="809" y="893"/>
      <point x="858" y="811"/>
      <point x="886" y="689"/>
    </contour>
  </outline>
</glyph>
<glyph name="uni018B" format="1">
  <advance width="1013"/>
  <unicode hex="018B"/>
  <outline>
    <contour>
      <point x="499" y="70" type="qcurve" smooth="yes"/>
      <point x="516" y="70"/>
      <point x="558" y="72"/>
      <point x="600" y="76"/>
      <point x="640" y="83"/>
      <point x="657" y="89" type="qcurve" smooth="yes"/>
      <point x="666" y="96"/>
      <point x="668" y="104" type="qcurve" smooth="yes"/>
      <point x="740" y="635" type="line"/>
      <point x="708" y="641"/>
      <point x="637" y="649"/>
      <point x="593" y="649" type="qcurve" smooth="yes"/>
      <point x="515" y="649"/>
      <point x="396" y="604"/>
      <point x="313" y="527"/>
      <point x="264" y="427"/>
      <point x="257" y="372" type="qcurve" smooth="yes"/>
      <point x="248" y="308"/>
      <point x="273" y="198"/>
      <point x="336" y="117"/>
      <point x="434" y="70"/>
    </contour>
    <contour>
      <point x="863" y="0" type="line"/>
      <point x="863" y="0"/>
      <point x="819" y="-2"/>
      <point x="749" y="-5"/>
      <point x="661" y="-9"/>
      <point x="574" y="-12"/>
      <point x="494" y="-14"/>
      <point x="468" y="-14" type="qcurve" smooth="yes"/>
      <point x="377" y="-14"/>
      <point x="231" y="29"/>
      <point x="135" y="118"/>
      <point x="93" y="253"/>
      <point x="105" y="346" type="qcurve" smooth="yes"/>
      <point x="115" y="423"/>
      <point x="189" y="565"/>
      <point x="309" y="674"/>
      <point x="471" y="739"/>
      <point x="570" y="739" type="qcurve" smooth="yes"/>
      <point x="620" y="739"/>
      <point x="712" y="728"/>
      <point x="751" y="720" type="qcurve"/>
      <point x="812" y="1170" type="line"/>
      <point x="446" y="1170" type="line" smooth="yes"/>
      <point x="432" y="1170"/>
      <point x="403" y="1137"/>
      <point x="368" y="1075"/>
      <point x="324" y="983"/>
      <point x="296" y="925" type="qcurve"/>
      <point x="261" y="944" type="line"/>
      <point x="264" y="973"/>
      <point x="282" y="1060"/>
      <point x="303" y="1150"/>
      <point x="325" y="1234"/>
      <point x="333" y="1260" type="qcurve"/>
      <point x="1100" y="1260" type="line"/>
      <point x="1094" y="1217" type="line"/>
      <point x="1027" y="1203"/>
      <point x="956" y="1167"/>
      <point x="954" y="1155" type="qcurve" smooth="yes"/>
      <point x="812" y="104" type="line" smooth="yes"/>
      <point x="810" y="90"/>
      <point x="875" y="57"/>
      <point x="934" y="43" type="qcurve"/>
      <point x="929" y="0" type="line"/>
    </contour>
  </outline>
</glyph>
<glyph name="uni018C" format="1">
  <advance width="969"/>
  <unicode hex="018C"/>
  <outline>
    <contour>
      <point x="621" y="424" type="qcurve"/>
      <point x="630" y="484"/>
      <point x="654" y="636"/>
      <point x="668" y="721" type="qcurve"/>
      <point x="651" y="739"/>
      <point x="612" y="778"/>
      <point x="567" y="810"/>
      <point x="517" y="831"/>
      <point x="489" y="831" type="qcurve" smooth="yes"/>
      <point x="444" y="831"/>
      <point x="364" y="786"/>
      <point x="297" y="712"/>
      <point x="245" y="617"/>
      <point x="209" y="516"/>
      <point x="190" y="418"/>
      <point x="190" y="379" type="qcurve" smooth="yes"/>
      <point x="190" y="314"/>
      <point x="217" y="210"/>
      <point x="261" y="136"/>
      <point x="317" y="96"/>
      <point x="346" y="96" type="qcurve" smooth="yes"/>
      <point x="373" y="96"/>
      <point x="439" y="146"/>
      <point x="510" y="235"/>
      <point x="585" y="355"/>
    </contour>
    <contour>
      <point x="924" y="68" type="line"/>
      <point x="839" y="11"/>
      <point x="730" y="-41"/>
      <point x="696" y="-41" type="qcurve" smooth="yes"/>
      <point x="677" y="-41"/>
      <point x="645" y="-10"/>
      <point x="622" y="65"/>
      <point x="608" y="189"/>
      <point x="608" y="281" type="qcurve"/>
      <point x="574" y="218"/>
      <point x="495" y="102"/>
      <point x="409" y="12"/>
      <point x="319" y="-41"/>
      <point x="276" y="-41" type="qcurve" smooth="yes"/>
      <point x="242" y="-41"/>
      <point x="164" y="0"/>
      <point x="97" y="87"/>
      <point x="53" y="222"/>
      <point x="53" y="315" type="qcurve" smooth="yes"/>
      <point x="53" y="394"/>
      <point x="87" y="543"/>
      <point x="156" y="678"/>
      <point x="261" y="795"/>
      <point x="332" y="842" type="qcurve" smooth="yes"/>
      <point x="360" y="860"/>
      <point x="425" y="893"/>
      <point x="493" y="920"/>
      <point x="561" y="936"/>
      <point x="592" y="936" type="qcurve" smooth="yes"/>
      <point x="617" y="936"/>
      <point x="669" y="903"/>
      <point x="695" y="882" type="qcurve"/>
      <point x="706" y="952"/>
      <point x="727" y="1085"/>
      <point x="742" y="1202"/>
      <point x="751" y="1296"/>
      <point x="751" y="1326" type="qcurve" smooth="yes"/>
      <point x="751" y="1347"/>
      <point x="743" y="1375"/>
      <point x="729" y="1392"/>
      <point x="713" y="1399"/>
      <point x="704" y="1400" type="qcurve" smooth="yes"/>
      <point x="468" y="1400" type="line" smooth="yes"/>
      <point x="454" y="1400"/>
      <point x="425" y="1367"/>
      <point x="390" y="1305"/>
      <point x="346" y="1213"/>
      <point x="318" y="1155" type="qcurve"/>
      <point x="283" y="1174" type="line"/>
      <point x="286" y="1203"/>
      <point x="304" y="1290"/>
      <point x="325" y="1380"/>
      <point x="347" y="1464"/>
      <point x="355" y="1490" type="qcurve"/>
      <point x="877" y="1490" type="line"/>
      <point x="882" y="1490" type="line" smooth="yes"/>
      <point x="891" y="1490"/>
      <point x="903" y="1474"/>
      <point x="909" y="1449"/>
      <point x="912" y="1416"/>
      <point x="912" y="1400" type="qcurve" smooth="yes"/>
      <point x="912" y="1372"/>
      <point x="898" y="1263"/>
      <point x="875" y="1119"/>
      <point x="846" y="950"/>
      <point x="816" y="774"/>
      <point x="787" y="601"/>
      <point x="764" y="451"/>
      <point x="750" y="333"/>
      <point x="750" y="299" type="qcurve" smooth="yes"/>
      <point x="750" y="183"/>
      <point x="772" y="78"/>
      <point x="795" y="78" type="qcurve" smooth="yes"/>
      <point x="821" y="78"/>
      <point x="876" y="89"/>
      <point x="911" y="104" type="qcurve"/>
      <point x="924" y="68" type="line"/>
    </contour>
  </outline>
</glyph>
<glyph name="uni018E" format="1">
  <advance width="914"/>
  <unicode hex="018E"/>
  <outline>
    <contour>
      <point x="245" y="663" type="line"/>
      <point x="255" y="677"/>
      <point x="280" y="708"/>
      <point x="306" y="737"/>
      <point x="332" y="762"/>
      <point x="343" y="770" type="qcurve"/>
      <point x="355" y="755"/>
      <point x="384" y="741"/>
      <point x="424" y="735"/>
      <point x="451" y="735" type="qcurve" smooth="yes"/>
      <point x="478" y="735"/>
      <point x="516" y="735" type="qcurve" smooth="yes"/>
      <point x="643" y="735" type="line"/>
      <point x="702" y="1170" type="line"/>
      <point x="483" y="1170" type="line" smooth="yes"/>
      <point x="442" y="1170"/>
      <point x="382" y="1160"/>
      <point x="332" y="1125"/>
      <point x="287" y="1056"/>
      <point x="260" y="998" type="qcurve"/>
      <point x="223" y="1016" type="line"/>
      <point x="242" y="1103"/>
      <point x="282" y="1231"/>
      <point x="294" y="1260" type="qcurve"/>
      <point x="990" y="1260" type="line"/>
      <point x="984" y="1217" type="line"/>
      <point x="921" y="1203"/>
      <point x="846" y="1170"/>
      <point x="844" y="1156" type="qcurve" smooth="yes"/>
      <point x="702" y="105" type="line" smooth="yes"/>
      <point x="700" y="93"/>
      <point x="761" y="57"/>
      <point x="824" y="43" type="qcurve"/>
      <point x="819" y="0" type="line"/>
      <point x="68" y="0" type="line"/>
      <point x="41" y="25" type="line"/>
      <point x="41" y="50"/>
      <point x="43" y="134"/>
      <point x="49" y="221"/>
      <point x="59" y="298"/>
      <point x="67" y="317" type="qcurve"/>
      <point x="108" y="317" type="line"/>
      <point x="103" y="271"/>
      <point x="119" y="188"/>
      <point x="149" y="126"/>
      <point x="185" y="90"/>
      <point x="202" y="90" type="qcurve" smooth="yes"/>
      <point x="375" y="90" type="line" smooth="yes"/>
      <point x="433" y="90"/>
      <point x="505" y="98"/>
      <point x="546" y="115"/>
      <point x="563" y="143"/>
      <point x="566" y="163" type="qcurve" smooth="yes"/>
      <point x="632" y="655" type="line"/>
      <point x="443" y="655" type="line" smooth="yes"/>
      <point x="422" y="655"/>
      <point x="372" y="652"/>
      <point x="324" y="646"/>
      <point x="281" y="639"/>
      <point x="266" y="635" type="qcurve"/>
      <point x="245" y="663" type="line"/>
    </contour>
  </outline>
</glyph>
<glyph name="uni0191" format="1">
  <advance width="891"/>
  <unicode hex="0191"/>
  <outline>
    <contour>
      <point x="303" y="178" type="line"/>
      <point x="288" y="68"/>
      <point x="237" y="-82"/>
      <point x="173" y="-186"/>
      <point x="99" y="-257"/>
      <point x="60" y="-288" type="qcurve" smooth="yes"/>
      <point x="33" y="-309"/>
      <point x="-30" y="-343"/>
      <point x="-91" y="-367"/>
      <point x="-145" y="-380"/>
      <point x="-163" y="-380" type="qcurve" smooth="yes"/>
      <point x="-190" y="-380"/>
      <point x="-241" y="-361"/>
      <point x="-280" y="-336"/>
      <point x="-302" y="-309"/>
      <point x="-301" y="-300" type="qcurve" smooth="yes"/>
      <point x="-300" y="-292"/>
      <point x="-273" y="-262"/>
      <point x="-235" y="-232"/>
      <point x="-196" y="-205"/>
      <point x="-183" y="-200" type="qcurve"/>
      <point x="-161" y="-218"/>
      <point x="-126" y="-241"/>
      <point x="-95" y="-253"/>
      <point x="-65" y="-257"/>
      <point x="-48" y="-257" type="qcurve" smooth="yes"/>
      <point x="-26" y="-257"/>
      <point x="31" y="-225"/>
      <point x="86" y="-144"/>
      <point x="134" y="-4"/>
      <point x="149" y="104" type="qcurve" smooth="yes"/>
      <point x="291" y="1155" type="line" smooth="yes"/>
      <point x="293" y="1167"/>
      <point x="233" y="1203"/>
      <point x="170" y="1217" type="qcurve"/>
      <point x="176" y="1260" type="line"/>
      <point x="920" y="1260" type="line"/>
      <point x="944" y="1235" type="line"/>
      <point x="940" y="1209"/>
      <point x="924" y="1147"/>
      <point x="906" y="1085"/>
      <point x="887" y="1029"/>
      <point x="879" y="1010" type="qcurve"/>
      <point x="837" y="1010" type="line"/>
      <point x="841" y="1056"/>
      <point x="839" y="1118"/>
      <point x="825" y="1155"/>
      <point x="801" y="1170"/>
      <point x="784" y="1170" type="qcurve" smooth="yes"/>
      <point x="437" y="1170" type="line"/>
      <point x="378" y="735" type="line"/>
      <point x="695" y="735" type="line"/>
      <point x="717" y="707" type="line"/>
      <point x="707" y="693"/>
      <point x="682" y="662"/>
      <point x="655" y="633"/>
      <point x="629" y="608"/>
      <point x="619" y="600" type="qcurve"/>
      <point x="607" y="615"/>
      <point x="579" y="635"/>
      <point x="540" y="649"/>
      <point x="485" y="655"/>
      <point x="448" y="655" type="qcurve" smooth="yes"/>
      <point x="367" y="655" type="line"/>
      <point x="303" y="178" type="line"/>
    </contour>
  </outline>
</glyph>
<glyph name="uni0195" format="1">
  <advance width="1438"/>
  <unicode hex="0195"/>
  <outline>
    <contour>
      <point x="1381" y="588" type="qcurve" smooth="yes"/>
      <point x="1372" y="519"/>
      <point x="1318" y="373"/>
      <point x="1238" y="233"/>
      <point x="1135" y="108"/>
      <point x="1019" y="14"/>
      <point x="894" y="-41"/>
      <point x="832" y="-41" type="qcurve" smooth="yes"/>
      <point x="807" y="-41"/>
      <point x="749" y="-10"/>
      <point x="698" y="52"/>
      <point x="664" y="144"/>
      <point x="664" y="205" type="qcurve" smooth="yes"/>
      <point x="664" y="235"/>
      <point x="673" y="318"/>
      <point x="687" y="411"/>
      <point x="702" y="509"/>
      <point x="716" y="600"/>
      <point x="725" y="675"/>
      <point x="725" y="700" type="qcurve" smooth="yes"/>
      <point x="725" y="738"/>
      <point x="719" y="789"/>
      <point x="704" y="821"/>
      <point x="677" y="834"/>
      <point x="655" y="834" type="qcurve" smooth="yes"/>
      <point x="642" y="834"/>
      <point x="576" y="803"/>
      <point x="491" y="740"/>
      <point x="400" y="646"/>
      <point x="362" y="582" type="qcurve" smooth="yes"/>
      <point x="335" y="534"/>
      <point x="299" y="391"/>
      <point x="285" y="301" type="qcurve" smooth="yes"/>
      <point x="276" y="246"/>
      <point x="266" y="162"/>
      <point x="261" y="97"/>
      <point x="260" y="46"/>
      <point x="262" y="25" type="qcurve"/>
      <point x="249" y="18"/>
      <point x="210" y="1"/>
      <point x="169" y="-17"/>
      <point x="131" y="-34"/>
      <point x="119" y="-41" type="qcurve"/>
      <point x="86" y="-10" type="line"/>
      <point x="95" y="44"/>
      <point x="122" y="203"/>
      <point x="153" y="394"/>
      <point x="186" y="606"/>
      <point x="218" y="817"/>
      <point x="247" y="1018"/>
      <point x="268" y="1187"/>
      <point x="281" y="1314"/>
      <point x="281" y="1346" type="qcurve" smooth="yes"/>
      <point x="281" y="1369"/>
      <point x="274" y="1396"/>
      <point x="263" y="1409"/>
      <point x="248" y="1413"/>
      <point x="240" y="1413" type="qcurve" smooth="yes"/>
      <point x="231" y="1413"/>
      <point x="192" y="1405"/>
      <point x="154" y="1394"/>
      <point x="125" y="1386"/>
      <point x="125" y="1386" type="qcurve"/>
      <point x="113" y="1425" type="line"/>
      <point x="155" y="1444"/>
      <point x="240" y="1478"/>
      <point x="314" y="1504"/>
      <point x="370" y="1520"/>
      <point x="383" y="1520" type="qcurve" smooth="yes"/>
      <point x="411" y="1520"/>
      <point x="442" y="1484"/>
      <point x="442" y="1438" type="qcurve" smooth="yes"/>
      <point x="442" y="1414"/>
      <point x="430" y="1303"/>
      <point x="411" y="1159"/>
      <point x="387" y="995"/>
      <point x="364" y="842"/>
      <point x="344" y="714"/>
      <point x="338" y="678" type="qcurve"/>
      <point x="396" y="750"/>
      <point x="510" y="849"/>
      <point x="618" y="909"/>
      <point x="717" y="936"/>
      <point x="762" y="936" type="qcurve" smooth="yes"/>
      <point x="825" y="936"/>
      <point x="879" y="857"/>
      <point x="879" y="760" type="qcurve" smooth="yes"/>
      <point x="879" y="731"/>
      <point x="870" y="650"/>
      <point x="856" y="559"/>
      <point x="840" y="463"/>
      <point x="826" y="372"/>
      <point x="817" y="291"/>
      <point x="817" y="262" type="qcurve" smooth="yes"/>
      <point x="817" y="214"/>
      <point x="832" y="146"/>
      <point x="857" y="101"/>
      <point x="889" y="80"/>
      <point x="905" y="80" type="qcurve" smooth="yes"/>
      <point x="944" y="80"/>
      <point x="1021" y="124"/>
      <point x="1092" y="197"/>
      <point x="1153" y="291"/>
      <point x="1201" y="392"/>
      <point x="1233" y="492"/>
      <point x="1239" y="535" type="qcurve" smooth="yes"/>
      <point x="1248" y="595"/>
      <point x="1244" y="702"/>
      <point x="1204" y="783"/>
      <point x="1122" y="831"/>
      <point x="1053" y="831" type="qcurve"/>
      <point x="1043" y="872" type="line"/>
      <point x="1058" y="879"/>
      <point x="1108" y="897"/>
      <point x="1160" y="914"/>
      <point x="1210" y="929"/>
      <point x="1225" y="934" type="qcurve"/>
      <point x="1267" y="924"/>
      <point x="1334" y="880"/>
      <point x="1378" y="800"/>
      <point x="1392" y="677"/>
    </contour>
  </outline>
</glyph>
<glyph name="uni0199" format="1">
  <advance width="899"/>
  <unicode hex="0199"/>
  <outline>
    <contour>
      <point x="889" y="68" type="line"/>
      <point x="823" y="12"/>
      <point x="724" y="-39"/>
      <point x="686" y="-39" type="qcurve" smooth="yes"/>
      <point x="650" y="-39"/>
      <point x="582" y="29"/>
      <point x="516" y="135"/>
      <point x="455" y="264"/>
      <point x="395" y="384"/>
      <point x="339" y="480"/>
      <point x="312" y="501" type="qcurve"/>
      <point x="301" y="428"/>
      <point x="282" y="290"/>
      <point x="270" y="167"/>
      <point x="266" y="64"/>
      <point x="270" y="27" type="qcurve"/>
      <point x="256" y="20"/>
      <point x="215" y="2"/>
      <point x="173" y="-17"/>
      <point x="133" y="-34"/>
      <point x="121" y="-41" type="qcurve"/>
      <point x="86" y="-10" type="line"/>
      <point x="91" y="29"/>
      <point x="113" y="168"/>
      <point x="140" y="341"/>
      <point x="171" y="533"/>
      <point x="201" y="715"/>
      <point x="225" y="873"/>
      <point x="233" y="926" type="qcurve" smooth="yes"/>
      <point x="244" y="1003"/>
      <point x="278" y="1145"/>
      <point x="335" y="1271"/>
      <point x="419" y="1381"/>
      <point x="480" y="1427" type="qcurve" smooth="yes"/>
      <point x="533" y="1466"/>
      <point x="653" y="1520"/>
      <point x="716" y="1520" type="qcurve" smooth="yes"/>
      <point x="759" y="1520"/>
      <point x="834" y="1487"/>
      <point x="894" y="1446"/>
      <point x="940" y="1408"/>
      <point x="955" y="1403" type="qcurve"/>
      <point x="934" y="1388"/>
      <point x="886" y="1353"/>
      <point x="840" y="1324"/>
      <point x="800" y="1305"/>
      <point x="787" y="1305" type="qcurve" smooth="yes"/>
      <point x="774" y="1305"/>
      <point x="745" y="1340"/>
      <point x="709" y="1382"/>
      <point x="665" y="1417"/>
      <point x="638" y="1417" type="qcurve" smooth="yes"/>
      <point x="540" y="1417"/>
      <point x="420" y="1185"/>
      <point x="384" y="952" type="qcurve" smooth="yes"/>
      <point x="367" y="845"/>
      <point x="329" y="617"/>
      <point x="312" y="506" type="qcurve"/>
      <point x="528" y="670" type="line" smooth="yes"/>
      <point x="597" y="722"/>
      <point x="685" y="796"/>
      <point x="710" y="841"/>
      <point x="663" y="860"/>
      <point x="596" y="858" type="qcurve"/>
      <point x="592" y="897" type="line"/>
      <point x="651" y="905"/>
      <point x="760" y="930"/>
      <point x="823" y="930" type="qcurve" smooth="yes"/>
      <point x="871" y="930"/>
      <point x="899" y="902"/>
      <point x="899" y="868" type="qcurve" smooth="yes"/>
      <point x="899" y="853"/>
      <point x="856" y="799"/>
      <point x="773" y="726"/>
      <point x="655" y="640"/>
      <point x="580" y="594" type="qcurve" smooth="yes"/>
      <point x="463" y="523" type="line"/>
      <point x="489" y="491"/>
      <point x="543" y="400"/>
      <point x="595" y="301"/>
      <point x="646" y="203"/>
      <point x="694" y="125"/>
      <point x="738" y="76"/>
      <point x="758" y="76" type="qcurve" smooth="yes"/>
      <point x="781" y="76"/>
      <point x="834" y="81"/>
      <point x="872" y="102" type="qcurve"/>
      <point x="889" y="68" type="line"/>
    </contour>
  </outline>
</glyph>
<glyph name="uni019C" format="1">
  <advance width="1808"/>
  <unicode hex="019C"/>
  <outline>
    <contour>
      <point x="581" y="1260" type="line"/>
      <point x="575" y="1217" type="line"/>
      <point x="504" y="1200"/>
      <point x="437" y="1169"/>
      <point x="435" y="1155" type="qcurve" smooth="yes"/>
      <point x="337" y="429" type="line" smooth="yes"/>
      <point x="324" y="335"/>
      <point x="327" y="212"/>
      <point x="354" y="139"/>
      <point x="405" y="110"/>
      <point x="441" y="110" type="qcurve" smooth="yes"/>
      <point x="477" y="110"/>
      <point x="567" y="157"/>
      <point x="669" y="246"/>
      <point x="779" y="376"/>
      <point x="836" y="459" type="qcurve"/>
      <point x="930" y="1155" type="line" smooth="yes"/>
      <point x="932" y="1169"/>
      <point x="867" y="1203"/>
      <point x="809" y="1217" type="qcurve"/>
      <point x="815" y="1260" type="line"/>
      <point x="1220" y="1260" type="line"/>
      <point x="1214" y="1217" type="line"/>
      <point x="1147" y="1202"/>
      <point x="1076" y="1169"/>
      <point x="1074" y="1155" type="qcurve" smooth="yes"/>
      <point x="974" y="419" type="line" smooth="yes"/>
      <point x="952" y="254"/>
      <point x="1004" y="110"/>
      <point x="1078" y="110" type="qcurve" smooth="yes"/>
      <point x="1153" y="110"/>
      <point x="1350" y="289"/>
      <point x="1475" y="459" type="qcurve"/>
      <point x="1569" y="1155" type="line" smooth="yes"/>
      <point x="1571" y="1169"/>
      <point x="1508" y="1203"/>
      <point x="1448" y="1217" type="qcurve"/>
      <point x="1454" y="1260" type="line"/>
      <point x="1859" y="1260" type="line"/>
      <point x="1853" y="1217" type="line"/>
      <point x="1786" y="1202"/>
      <point x="1715" y="1169"/>
      <point x="1713" y="1155" type="qcurve" smooth="yes"/>
      <point x="1588" y="234" type="line" smooth="yes"/>
      <point x="1582" y="190"/>
      <point x="1584" y="138"/>
      <point x="1608" y="110"/>
      <point x="1658" y="98"/>
      <point x="1700" y="93" type="qcurve"/>
      <point x="1694" y="50" type="line"/>
      <point x="1647" y="39"/>
      <point x="1582" y="24"/>
      <point x="1529" y="7"/>
      <point x="1477" y="-14"/>
      <point x="1442" y="-30" type="qcurve"/>
      <point x="1413" y="6" type="line"/>
      <point x="1452" y="294" type="line"/>
      <point x="1386" y="205"/>
      <point x="1264" y="82"/>
      <point x="1155" y="5"/>
      <point x="1059" y="-30"/>
      <point x="1019" y="-30" type="qcurve" smooth="yes"/>
      <point x="948" y="-30"/>
      <point x="864" y="27"/>
      <point x="822" y="119"/>
      <point x="814" y="235"/>
      <point x="819" y="293" type="qcurve"/>
      <point x="757" y="209"/>
      <point x="636" y="87"/>
      <point x="523" y="8"/>
      <point x="423" y="-30"/>
      <point x="382" y="-30" type="qcurve" smooth="yes"/>
      <point x="325" y="-30"/>
      <point x="237" y="10"/>
      <point x="183" y="96"/>
      <point x="165" y="230"/>
      <point x="178" y="324" type="qcurve" smooth="yes"/>
      <point x="291" y="1155" type="line" smooth="yes"/>
      <point x="293" y="1169"/>
      <point x="233" y="1202"/>
      <point x="170" y="1217" type="qcurve"/>
      <point x="176" y="1260" type="line"/>
    </contour>
  </outline>
</glyph>
<glyph name="uni019E" format="1">
  <advance width="982"/>
  <unicode hex="019E"/>
  <outline>
    <contour>
      <point x="902" y="-387" type="line"/>
      <point x="811" y="-441"/>
      <point x="684" y="-500"/>
      <point x="646" y="-500" type="qcurve" smooth="yes"/>
      <point x="628" y="-500"/>
      <point x="598" y="-483"/>
      <point x="576" y="-444"/>
      <point x="563" y="-382"/>
      <point x="563" y="-336" type="qcurve" smooth="yes"/>
      <point x="563" y="-306"/>
      <point x="577" y="-196"/>
      <point x="600" y="-56"/>
      <point x="630" y="107"/>
      <point x="660" y="273"/>
      <point x="690" y="433"/>
      <point x="713" y="570"/>
      <point x="727" y="674"/>
      <point x="727" y="700" type="qcurve" smooth="yes"/>
      <point x="727" y="776"/>
      <point x="695" y="836"/>
      <point x="651" y="836" type="qcurve" smooth="yes"/>
      <point x="638" y="836"/>
      <point x="573" y="804"/>
      <point x="491" y="740"/>
      <point x="402" y="644"/>
      <point x="365" y="580" type="qcurve" smooth="yes"/>
      <point x="337" y="532"/>
      <point x="302" y="398"/>
      <point x="285" y="301" type="qcurve" smooth="yes"/>
      <point x="269" y="212"/>
      <point x="260" y="84"/>
      <point x="262" y="25" type="qcurve"/>
      <point x="249" y="18"/>
      <point x="210" y="1"/>
      <point x="169" y="-17"/>
      <point x="131" y="-34"/>
      <point x="119" y="-41" type="qcurve"/>
      <point x="86" y="-10" type="line"/>
      <point x="100" y="56"/>
      <point x="127" y="210"/>
      <point x="152" y="365"/>
      <point x="174" y="516"/>
      <point x="190" y="643"/>
      <point x="199" y="738"/>
      <point x="199" y="762" type="qcurve" smooth="yes"/>
      <point x="199" y="785"/>
      <point x="194" y="812"/>
      <point x="185" y="825"/>
      <point x="171" y="829"/>
      <point x="162" y="829" type="qcurve" smooth="yes"/>
      <point x="153" y="829"/>
      <point x="118" y="821"/>
      <point x="82" y="811"/>
      <point x="55" y="803"/>
      <point x="55" y="803" type="qcurve"/>
      <point x="41" y="842" type="line"/>
      <point x="83" y="860"/>
      <point x="168" y="894"/>
      <point x="242" y="920"/>
      <point x="297" y="936"/>
      <point x="309" y="936" type="qcurve" smooth="yes"/>
      <point x="323" y="936"/>
      <point x="339" y="927"/>
      <point x="346" y="903"/>
      <point x="348" y="859"/>
      <point x="348" y="823" type="qcurve" smooth="yes"/>
      <point x="348" y="812"/>
      <point x="346" y="774"/>
      <point x="343" y="731"/>
      <point x="339" y="690"/>
      <point x="338" y="678" type="qcurve"/>
      <point x="392" y="746"/>
      <point x="502" y="844"/>
      <point x="608" y="907"/>
      <point x="707" y="936"/>
      <point x="752" y="936" type="qcurve" smooth="yes"/>
      <point x="783" y="936"/>
      <point x="832" y="918"/>
      <point x="864" y="877"/>
      <point x="881" y="810"/>
      <point x="881" y="762" type="qcurve" smooth="yes"/>
      <point x="881" y="728"/>
      <point x="867" y="620"/>
      <point x="844" y="485"/>
      <point x="814" y="330"/>
      <point x="784" y="171"/>
      <point x="754" y="15"/>
      <point x="731" y="-125"/>
      <point x="717" y="-239"/>
      <point x="717" y="-277" type="qcurve" smooth="yes"/>
      <point x="717" y="-313"/>
      <point x="724" y="-355"/>
      <point x="737" y="-377"/>
      <point x="753" y="-383"/>
      <point x="762" y="-383" type="qcurve" smooth="yes"/>
      <point x="785" y="-383"/>
      <point x="845" y="-367"/>
      <point x="887" y="-350" type="qcurve"/>
      <point x="902" y="-387" type="line"/>
    </contour>
  </outline>
</glyph>
<glyph name="uni019F" format="1">
  <advance width="1116"/>
  <unicode hex="019F"/>
  <outline>
    <contour>
      <point x="936" y="756" type="qcurve" smooth="yes"/>
      <point x="936" y="840"/>
      <point x="900" y="989"/>
      <point x="830" y="1100"/>
      <point x="728" y="1165"/>
      <point x="662" y="1165" type="qcurve" smooth="yes"/>
      <point x="572" y="1165"/>
      <point x="435" y="1084"/>
      <point x="336" y="953"/>
      <point x="274" y="789"/>
      <point x="258" y="705" type="qcurve"/>
      <point x="934" y="705" type="line"/>
      <point x="935" y="718"/>
      <point x="936" y="743"/>
    </contour>
    <contour>
      <point x="516" y="100" type="qcurve" smooth="yes"/>
      <point x="580" y="100"/>
      <point x="685" y="143"/>
      <point x="770" y="217"/>
      <point x="836" y="317"/>
      <point x="885" y="432"/>
      <point x="916" y="554"/>
      <point x="925" y="614" type="qcurve"/>
      <point x="246" y="614" type="line"/>
      <point x="244" y="592"/>
      <point x="242" y="552"/>
      <point x="242" y="532" type="qcurve" smooth="yes"/>
      <point x="242" y="439"/>
      <point x="281" y="280"/>
      <point x="353" y="165"/>
      <point x="454" y="100"/>
    </contour>
    <contour>
      <point x="1085" y="774" type="qcurve" smooth="yes"/>
      <point x="1085" y="703"/>
      <point x="1062" y="557"/>
      <point x="1015" y="415"/>
      <point x="946" y="282"/>
      <point x="901" y="225" type="qcurve" smooth="yes"/>
      <point x="859" y="171"/>
      <point x="764" y="78"/>
      <point x="657" y="9"/>
      <point x="538" y="-31"/>
      <point x="471" y="-31" type="qcurve" smooth="yes"/>
      <point x="375" y="-31"/>
      <point x="232" y="51"/>
      <point x="137" y="192"/>
      <point x="90" y="380"/>
      <point x="90" y="485" type="qcurve" smooth="yes"/>
      <point x="90" y="548"/>
      <point x="113" y="689"/>
      <point x="156" y="830"/>
      <point x="218" y="963"/>
      <point x="258" y="1018" type="qcurve" smooth="yes"/>
      <point x="300" y="1074"/>
      <point x="397" y="1173"/>
      <point x="508" y="1247"/>
      <point x="634" y="1290"/>
      <point x="705" y="1290" type="qcurve" smooth="yes"/>
      <point x="803" y="1290"/>
      <point x="947" y="1208"/>
      <point x="1040" y="1067"/>
      <point x="1085" y="879"/>
    </contour>
  </outline>
</glyph>
<glyph name="uni01A3" format="1">
  <advance width="1331"/>
  <unicode hex="01A3"/>
  <outline>
    <contour>
      <point x="668" y="504" type="qcurve" smooth="yes"/>
      <point x="668" y="657"/>
      <point x="556" y="819"/>
      <point x="453" y="819" type="qcurve" smooth="yes"/>
      <point x="381" y="819"/>
      <point x="283" y="736"/>
      <point x="223" y="610"/>
      <point x="197" y="463"/>
      <point x="197" y="399" type="qcurve" smooth="yes"/>
      <point x="197" y="332"/>
      <point x="230" y="213"/>
      <point x="289" y="124"/>
      <point x="368" y="72"/>
      <point x="414" y="72" type="qcurve" smooth="yes"/>
      <point x="460" y="72"/>
      <point x="533" y="113"/>
      <point x="590" y="182"/>
      <point x="630" y="271"/>
      <point x="656" y="367"/>
      <point x="668" y="463"/>
    </contour>
    <contour>
      <point x="1251" y="-387" type="line"/>
      <point x="1160" y="-441"/>
      <point x="1033" y="-500"/>
      <point x="995" y="-500" type="qcurve" smooth="yes"/>
      <point x="977" y="-500"/>
      <point x="947" y="-483"/>
      <point x="925" y="-444"/>
      <point x="912" y="-382"/>
      <point x="912" y="-336" type="qcurve" smooth="yes"/>
      <point x="912" y="-306"/>
      <point x="926" y="-196"/>
      <point x="949" y="-56"/>
      <point x="979" y="107"/>
      <point x="1009" y="273"/>
      <point x="1039" y="433"/>
      <point x="1062" y="570"/>
      <point x="1076" y="674"/>
      <point x="1076" y="700" type="qcurve" smooth="yes"/>
      <point x="1076" y="776"/>
      <point x="1044" y="836"/>
      <point x="1000" y="836" type="qcurve" smooth="yes"/>
      <point x="990" y="836"/>
      <point x="949" y="818"/>
      <point x="894" y="783"/>
      <point x="831" y="730"/>
      <point x="799" y="695" type="qcurve"/>
      <point x="811" y="632"/>
      <point x="811" y="559" type="qcurve" smooth="yes"/>
      <point x="811" y="492"/>
      <point x="781" y="355"/>
      <point x="723" y="226"/>
      <point x="638" y="109"/>
      <point x="582" y="63" type="qcurve" smooth="yes"/>
      <point x="556" y="42"/>
      <point x="498" y="4"/>
      <point x="438" y="-25"/>
      <point x="376" y="-41"/>
      <point x="346" y="-41" type="qcurve" smooth="yes"/>
      <point x="276" y="-41"/>
      <point x="167" y="18"/>
      <point x="92" y="121"/>
      <point x="53" y="262"/>
      <point x="53" y="344" type="qcurve" smooth="yes"/>
      <point x="53" y="416"/>
      <point x="77" y="549"/>
      <point x="131" y="673"/>
      <point x="221" y="787"/>
      <point x="287" y="840" type="qcurve" smooth="yes"/>
      <point x="338" y="880"/>
      <point x="460" y="936"/>
      <point x="522" y="936" type="qcurve" smooth="yes"/>
      <point x="621" y="936"/>
      <point x="742" y="850"/>
      <point x="774" y="775" type="qcurve"/>
      <point x="862" y="860"/>
      <point x="1029" y="936"/>
      <point x="1101" y="936" type="qcurve" smooth="yes"/>
      <point x="1132" y="936"/>
      <point x="1181" y="918"/>
      <point x="1213" y="877"/>
      <point x="1230" y="810"/>
      <point x="1230" y="762" type="qcurve" smooth="yes"/>
      <point x="1230" y="728"/>
      <point x="1216" y="620"/>
      <point x="1193" y="485"/>
      <point x="1163" y="330"/>
      <point x="1133" y="171"/>
      <point x="1103" y="15"/>
      <point x="1080" y="-125"/>
      <point x="1066" y="-239"/>
      <point x="1066" y="-277" type="qcurve" smooth="yes"/>
      <point x="1066" y="-313"/>
      <point x="1073" y="-355"/>
      <point x="1086" y="-377"/>
      <point x="1102" y="-383"/>
      <point x="1111" y="-383" type="qcurve" smooth="yes"/>
      <point x="1134" y="-383"/>
      <point x="1194" y="-367"/>
      <point x="1236" y="-350" type="qcurve"/>
      <point x="1251" y="-387" type="line"/>
    </contour>
  </outline>
</glyph>
<glyph name="uni01A6" format="1">
  <advance width="1011"/>
  <unicode hex="01A6"/>
  <outline>
    <contour>
      <point x="476" y="936" type="qcurve" smooth="yes"/>
      <point x="458" y="936"/>
      <point x="423" y="935"/>
      <point x="405" y="934" type="qcurve"/>
      <point x="348" y="511" type="line"/>
      <point x="372" y="506"/>
      <point x="408" y="504"/>
      <point x="428" y="504" type="qcurve" smooth="yes"/>
      <point x="590" y="504"/>
      <point x="759" y="624"/>
      <point x="771" y="726" type="qcurve" smooth="yes"/>
      <point x="775" y="764"/>
      <point x="755" y="839"/>
      <point x="689" y="899"/>
      <point x="570" y="936"/>
    </contour>
    <contour>
      <point x="1048" y="-124" type="line"/>
      <point x="1015" y="-149"/>
      <point x="942" y="-194"/>
      <point x="875" y="-227"/>
      <point x="818" y="-247"/>
      <point x="800" y="-247" type="qcurve" smooth="yes"/>
      <point x="774" y="-247"/>
      <point x="730" y="-214"/>
      <point x="719" y="-192" type="qcurve" smooth="yes"/>
      <point x="451" y="418" type="line"/>
      <point x="431" y="418" type="line" smooth="yes"/>
      <point x="408" y="418"/>
      <point x="361" y="423"/>
      <point x="337" y="429" type="qcurve"/>
      <point x="293" y="104" type="line" smooth="yes"/>
      <point x="291" y="92"/>
      <point x="352" y="57"/>
      <point x="415" y="43" type="qcurve"/>
      <point x="410" y="0" type="line"/>
      <point x="5" y="0" type="line"/>
      <point x="10" y="43" type="line"/>
      <point x="73" y="57"/>
      <point x="147" y="90"/>
      <point x="149" y="104" type="qcurve" smooth="yes"/>
      <point x="291" y="1155" type="line" smooth="yes"/>
      <point x="293" y="1167"/>
      <point x="233" y="1203"/>
      <point x="170" y="1217" type="qcurve"/>
      <point x="176" y="1260" type="line"/>
      <point x="581" y="1260" type="line"/>
      <point x="575" y="1217" type="line"/>
      <point x="512" y="1203"/>
      <point x="437" y="1169"/>
      <point x="435" y="1155" type="qcurve" smooth="yes"/>
      <point x="416" y="1015" type="line"/>
      <point x="440" y="1017"/>
      <point x="492" y="1020"/>
      <point x="520" y="1020" type="qcurve" smooth="yes"/>
      <point x="638" y="1020"/>
      <point x="795" y="975"/>
      <point x="887" y="901"/>
      <point x="920" y="806"/>
      <point x="913" y="757" type="qcurve" smooth="yes"/>
      <point x="904" y="692"/>
      <point x="850" y="586"/>
      <point x="764" y="504"/>
      <point x="650" y="448"/>
      <point x="582" y="433" type="qcurve"/>
      <point x="851" y="-94" type="line" smooth="yes"/>
      <point x="866" y="-123"/>
      <point x="957" y="-115"/>
      <point x="1033" y="-86" type="qcurve"/>
    </contour>
  </outline>
</glyph>
<glyph name="uni01AA" format="1">
  <advance width="577"/>
  <unicode hex="01AA"/>
  <outline>
    <contour>
      <point x="195" y="1190" type="qcurve" smooth="yes"/>
      <point x="221" y="1190"/>
      <point x="266" y="1212"/>
      <point x="302" y="1243"/>
      <point x="329" y="1278"/>
      <point x="338" y="1290" type="qcurve"/>
      <point x="327" y="1427"/>
      <point x="243" y="1427" type="qcurve" smooth="yes"/>
      <point x="224" y="1427"/>
      <point x="180" y="1407"/>
      <point x="142" y="1374"/>
      <point x="115" y="1331"/>
      <point x="112" y="1308" type="qcurve" smooth="yes"/>
      <point x="108" y="1282"/>
      <point x="119" y="1238"/>
      <point x="142" y="1207"/>
      <point x="176" y="1190"/>
    </contour>
    <contour>
      <point x="-11" y="1257" type="qcurve" smooth="yes"/>
      <point x="-5" y="1300"/>
      <point x="56" y="1393"/>
      <point x="149" y="1470"/>
      <point x="263" y="1520"/>
      <point x="321" y="1520" type="qcurve" smooth="yes"/>
      <point x="374" y="1520"/>
      <point x="444" y="1463"/>
      <point x="481" y="1369"/>
      <point x="489" y="1248"/>
      <point x="480" y="1184" type="qcurve" smooth="yes"/>
      <point x="460" y="1035"/>
      <point x="406" y="723"/>
      <point x="350" y="419"/>
      <point x="300" y="134"/>
      <point x="283" y="11" type="qcurve" smooth="yes"/>
      <point x="267" y="-107"/>
      <point x="267" y="-187" type="qcurve" smooth="yes"/>
      <point x="267" y="-267"/>
      <point x="293" y="-365"/>
      <point x="344" y="-407"/>
      <point x="379" y="-407" type="qcurve" smooth="yes"/>
      <point x="405" y="-407"/>
      <point x="454" y="-376"/>
      <point x="486" y="-326"/>
      <point x="492" y="-262"/>
      <point x="476" y="-228" type="qcurve" smooth="yes"/>
      <point x="474" y="-224"/>
      <point x="511" y="-202"/>
      <point x="564" y="-180"/>
      <point x="617" y="-161"/>
      <point x="630" y="-158" type="qcurve"/>
      <point x="648" y="-198" type="line"/>
      <point x="650" y="-229"/>
      <point x="621" y="-297"/>
      <point x="568" y="-364"/>
      <point x="495" y="-425"/>
      <point x="415" y="-472"/>
      <point x="332" y="-500"/>
      <point x="295" y="-500" type="qcurve" smooth="yes"/>
      <point x="235" y="-500"/>
      <point x="159" y="-438"/>
      <point x="122" y="-321"/>
      <point x="120" y="-154"/>
      <point x="134" y="-49" type="qcurve" smooth="yes"/>
      <point x="154" y="96"/>
      <point x="207" y="402"/>
      <point x="262" y="704"/>
      <point x="313" y="994"/>
      <point x="331" y="1124" type="qcurve" smooth="yes"/>
      <point x="333" y="1141"/>
      <point x="336" y="1172"/>
      <point x="338" y="1187" type="qcurve"/>
      <point x="287" y="1125"/>
      <point x="182" y="1072"/>
      <point x="131" y="1071" type="qcurve" smooth="yes"/>
      <point x="93" y="1071"/>
      <point x="35" y="1100"/>
      <point x="-2" y="1150"/>
      <point x="-16" y="1218"/>
    </contour>
  </outline>
</glyph>
<glyph name="uni01AB" format="1">
  <advance width="624"/>
  <unicode hex="01AB"/>
  <outline>
    <contour>
      <point x="580" y="117" type="line"/>
      <point x="578" y="115"/>
      <point x="577" y="115" type="qcurve" smooth="yes"/>
      <point x="560" y="95"/>
      <point x="533" y="26"/>
      <point x="525" y="-31" type="qcurve" smooth="yes"/>
      <point x="506" y="-174" type="line" smooth="yes"/>
      <point x="492" y="-279"/>
      <point x="426" y="-409"/>
      <point x="346" y="-479"/>
      <point x="261" y="-503"/>
      <point x="227" y="-503" type="qcurve" smooth="yes"/>
      <point x="189" y="-503"/>
      <point x="124" y="-469"/>
      <point x="80" y="-411"/>
      <point x="63" y="-335"/>
      <point x="73" y="-293" type="qcurve"/>
      <point x="82" y="-283"/>
      <point x="115" y="-256"/>
      <point x="153" y="-229"/>
      <point x="192" y="-207"/>
      <point x="206" y="-201" type="qcurve"/>
      <point x="209" y="-206"/>
      <point x="220" y="-220"/>
      <point x="224" y="-228" type="qcurve"/>
      <point x="203" y="-272"/>
      <point x="202" y="-340"/>
      <point x="225" y="-386"/>
      <point x="262" y="-409"/>
      <point x="280" y="-409" type="qcurve" smooth="yes"/>
      <point x="302" y="-409"/>
      <point x="346" y="-390"/>
      <point x="384" y="-343"/>
      <point x="414" y="-263"/>
      <point x="422" y="-203" type="qcurve" smooth="yes"/>
      <point x="442" y="-58" type="line" smooth="yes"/>
      <point x="447" y="-8"/>
      <point x="466" y="40" type="qcurve"/>
      <point x="397" y="1"/>
      <point x="284" y="-41"/>
      <point x="252" y="-41" type="qcurve" smooth="yes"/>
      <point x="227" y="-41"/>
      <point x="182" y="-11"/>
      <point x="147" y="42"/>
      <point x="127" y="116"/>
      <point x="127" y="160" type="qcurve" smooth="yes"/>
      <point x="127" y="179"/>
      <point x="129" y="217"/>
      <point x="132" y="258"/>
      <point x="137" y="304"/>
      <point x="141" y="332" type="qcurve" smooth="yes"/>
      <point x="218" y="815" type="line"/>
      <point x="74" y="815" type="line"/>
      <point x="59" y="846" type="line"/>
      <point x="160" y="905" type="line"/>
      <point x="232" y="905" type="line"/>
      <point x="238" y="940" type="line" smooth="yes"/>
      <point x="244" y="981"/>
      <point x="257" y="1035"/>
      <point x="274" y="1071"/>
      <point x="294" y="1094"/>
      <point x="307" y="1104" type="qcurve" smooth="yes"/>
      <point x="408" y="1176" type="line"/>
      <point x="436" y="1151" type="line"/>
      <point x="436" y="1151"/>
      <point x="428" y="1139"/>
      <point x="414" y="1099"/>
      <point x="395" y="1025"/>
      <point x="385" y="963" type="qcurve" smooth="yes"/>
      <point x="376" y="905" type="line"/>
      <point x="625" y="905" type="line"/>
      <point x="645" y="877" type="line"/>
      <point x="635" y="863"/>
      <point x="600" y="830"/>
      <point x="562" y="800"/>
      <point x="527" y="775"/>
      <point x="518" y="770" type="qcurve"/>
      <point x="512" y="784"/>
      <point x="491" y="801"/>
      <point x="455" y="811"/>
      <point x="402" y="815"/>
      <point x="365" y="815" type="qcurve" smooth="yes"/>
      <point x="362" y="815" type="line"/>
      <point x="291" y="356" type="line" smooth="yes"/>
      <point x="288" y="337"/>
      <point x="283" y="294"/>
      <point x="280" y="255"/>
      <point x="279" y="221"/>
      <point x="279" y="211" type="qcurve" smooth="yes"/>
      <point x="279" y="149"/>
      <point x="324" y="90"/>
      <point x="352" y="90" type="qcurve" smooth="yes"/>
      <point x="387" y="90"/>
      <point x="488" y="120"/>
      <point x="563" y="154" type="qcurve"/>
      <point x="580" y="117" type="line"/>
    </contour>
  </outline>
</glyph>
<glyph name="uni01AC" format="1">
  <advance width="1143"/>
  <unicode hex="01AC"/>
  <outline>
    <contour>
      <point x="123" y="1003" type="qcurve" smooth="yes"/>
      <point x="132" y="1068"/>
      <point x="193" y="1165"/>
      <point x="283" y="1229"/>
      <point x="395" y="1260"/>
      <point x="454" y="1260" type="qcurve" smooth="yes"/>
      <point x="1171" y="1260" type="line"/>
      <point x="1194" y="1235" type="line"/>
      <point x="1186" y="1184"/>
      <point x="1155" y="1063"/>
      <point x="1135" y="1000" type="qcurve"/>
      <point x="1094" y="1000" type="line"/>
      <point x="1092" y="1042"/>
      <point x="1087" y="1106"/>
      <point x="1076" y="1149"/>
      <point x="1053" y="1170"/>
      <point x="1033" y="1170" type="qcurve" smooth="yes"/>
      <point x="768" y="1170" type="line"/>
      <point x="625" y="115" type="line" smooth="yes"/>
      <point x="624" y="109"/>
      <point x="637" y="92"/>
      <point x="669" y="72"/>
      <point x="722" y="52"/>
      <point x="762" y="43" type="qcurve"/>
      <point x="757" y="0" type="line"/>
      <point x="318" y="0" type="line"/>
      <point x="323" y="43" type="line"/>
      <point x="366" y="52"/>
      <point x="426" y="72"/>
      <point x="463" y="91"/>
      <point x="480" y="108"/>
      <point x="481" y="115" type="qcurve" smooth="yes"/>
      <point x="624" y="1170" type="line"/>
      <point x="472" y="1170" type="line" smooth="yes"/>
      <point x="435" y="1170"/>
      <point x="369" y="1159"/>
      <point x="316" y="1129"/>
      <point x="281" y="1077"/>
      <point x="275" y="1036" type="qcurve" smooth="yes"/>
      <point x="270" y="1000"/>
      <point x="297" y="944"/>
      <point x="323" y="930" type="qcurve"/>
      <point x="320" y="924"/>
      <point x="288" y="902"/>
      <point x="245" y="880"/>
      <point x="198" y="860"/>
      <point x="179" y="856" type="qcurve"/>
      <point x="148" y="872"/>
      <point x="115" y="948"/>
    </contour>
  </outline>
</glyph>
<glyph name="uni01AD" format="1">
  <advance width="629"/>
  <unicode hex="01AD"/>
  <outline>
    <contour>
      <point x="645" y="877" type="line"/>
      <point x="635" y="863"/>
      <point x="600" y="830"/>
      <point x="562" y="800"/>
      <point x="527" y="775"/>
      <point x="518" y="770" type="qcurve"/>
      <point x="512" y="784"/>
      <point x="491" y="801"/>
      <point x="455" y="811"/>
      <point x="402" y="815"/>
      <point x="365" y="815" type="qcurve" smooth="yes"/>
      <point x="362" y="815" type="line"/>
      <point x="291" y="356" type="line" smooth="yes"/>
      <point x="287" y="337"/>
      <point x="283" y="294"/>
      <point x="280" y="255"/>
      <point x="279" y="221"/>
      <point x="279" y="211" type="qcurve" smooth="yes"/>
      <point x="279" y="149"/>
      <point x="324" y="90"/>
      <point x="352" y="90" type="qcurve" smooth="yes"/>
      <point x="387" y="90"/>
      <point x="488" y="120"/>
      <point x="563" y="154" type="qcurve"/>
      <point x="580" y="117" type="line"/>
      <point x="531" y="79"/>
      <point x="433" y="20"/>
      <point x="345" y="-20"/>
      <point x="274" y="-41"/>
      <point x="252" y="-41" type="qcurve" smooth="yes"/>
      <point x="227" y="-41"/>
      <point x="182" y="-11"/>
      <point x="147" y="42"/>
      <point x="127" y="116"/>
      <point x="127" y="160" type="qcurve" smooth="yes"/>
      <point x="127" y="179"/>
      <point x="129" y="217"/>
      <point x="132" y="258"/>
      <point x="137" y="304"/>
      <point x="141" y="332" type="qcurve" smooth="yes"/>
      <point x="218" y="815" type="line"/>
      <point x="74" y="815" type="line"/>
      <point x="59" y="846" type="line"/>
      <point x="160" y="905" type="line"/>
      <point x="232" y="905" type="line"/>
      <point x="235" y="923" type="line" smooth="yes"/>
      <point x="247" y="1001"/>
      <point x="281" y="1143"/>
      <point x="335" y="1271"/>
      <point x="417" y="1381"/>
      <point x="479" y="1427" type="qcurve" smooth="yes"/>
      <point x="532" y="1466"/>
      <point x="652" y="1520"/>
      <point x="715" y="1520" type="qcurve" smooth="yes"/>
      <point x="758" y="1520"/>
      <point x="833" y="1487"/>
      <point x="893" y="1446"/>
      <point x="939" y="1408"/>
      <point x="954" y="1403" type="qcurve"/>
      <point x="933" y="1388"/>
      <point x="885" y="1353"/>
      <point x="839" y="1324"/>
      <point x="799" y="1305"/>
      <point x="786" y="1305" type="qcurve" smooth="yes"/>
      <point x="773" y="1305"/>
      <point x="744" y="1340"/>
      <point x="708" y="1382"/>
      <point x="664" y="1417"/>
      <point x="637" y="1417" type="qcurve" smooth="yes"/>
      <point x="540" y="1417"/>
      <point x="420" y="1193"/>
      <point x="385" y="964" type="qcurve" smooth="yes"/>
      <point x="376" y="905" type="line"/>
      <point x="625" y="905" type="line"/>
      <point x="645" y="877" type="line"/>
    </contour>
  </outline>
</glyph>
<glyph name="uni01AE" format="1">
  <advance width="1068"/>
  <unicode hex="01AE"/>
  <outline>
    <contour>
      <point x="922" y="-115" type="line"/>
      <point x="919" y="-153"/>
      <point x="854" y="-245"/>
      <point x="752" y="-326"/>
      <point x="624" y="-380"/>
      <point x="558" y="-380" type="qcurve" smooth="yes"/>
      <point x="448" y="-380"/>
      <point x="361" y="-216"/>
      <point x="384" y="-47" type="qcurve" smooth="yes"/>
      <point x="549" y="1170" type="line"/>
      <point x="280" y="1170" type="line" smooth="yes"/>
      <point x="266" y="1170"/>
      <point x="243" y="1159"/>
      <point x="215" y="1123"/>
      <point x="178" y="1053"/>
      <point x="150" y="995" type="qcurve"/>
      <point x="113" y="1014" type="line"/>
      <point x="125" y="1073"/>
      <point x="160" y="1207"/>
      <point x="177" y="1260" type="qcurve"/>
      <point x="1096" y="1260" type="line"/>
      <point x="1119" y="1235" type="line"/>
      <point x="1111" y="1184"/>
      <point x="1080" y="1063"/>
      <point x="1060" y="1000" type="qcurve"/>
      <point x="1019" y="1000" type="line"/>
      <point x="1017" y="1042"/>
      <point x="1012" y="1106"/>
      <point x="1001" y="1149"/>
      <point x="978" y="1170"/>
      <point x="958" y="1170" type="qcurve" smooth="yes"/>
      <point x="693" y="1170" type="line"/>
      <point x="536" y="14" type="line" smooth="yes"/>
      <point x="525" y="-70"/>
      <point x="529" y="-184"/>
      <point x="557" y="-254"/>
      <point x="605" y="-285"/>
      <point x="637" y="-285" type="qcurve" smooth="yes"/>
      <point x="663" y="-285"/>
      <point x="712" y="-257"/>
      <point x="747" y="-215"/>
      <point x="761" y="-165"/>
      <point x="752" y="-144" type="qcurve" smooth="yes"/>
      <point x="750" y="-140"/>
      <point x="788" y="-115"/>
      <point x="842" y="-91"/>
      <point x="896" y="-74"/>
      <point x="910" y="-76" type="qcurve"/>
      <point x="922" y="-115" type="line"/>
    </contour>
  </outline>
</glyph>
<glyph name="uni01B2" format="1">
  <advance width="1144"/>
  <unicode hex="01B2"/>
  <outline>
    <contour>
      <point x="924" y="1290" type="line"/>
      <point x="984" y="1279"/>
      <point x="1067" y="1174"/>
      <point x="1113" y="1022"/>
      <point x="1125" y="841"/>
      <point x="1113" y="754" type="qcurve" smooth="yes"/>
      <point x="1098" y="644"/>
      <point x="1033" y="442"/>
      <point x="942" y="268"/>
      <point x="830" y="126"/>
      <point x="706" y="25"/>
      <point x="574" y="-30"/>
      <point x="509" y="-30" type="qcurve" smooth="yes"/>
      <point x="430" y="-30"/>
      <point x="300" y="27"/>
      <point x="213" y="144"/>
      <point x="178" y="322"/>
      <point x="195" y="444" type="qcurve" smooth="yes"/>
      <point x="291" y="1155" type="line" smooth="yes"/>
      <point x="293" y="1167"/>
      <point x="233" y="1203"/>
      <point x="170" y="1217" type="qcurve"/>
      <point x="176" y="1260" type="line"/>
      <point x="581" y="1260" type="line"/>
      <point x="575" y="1217" type="line"/>
      <point x="512" y="1203"/>
      <point x="437" y="1169"/>
      <point x="435" y="1155" type="qcurve" smooth="yes"/>
      <point x="346" y="494" type="line" smooth="yes"/>
      <point x="333" y="398"/>
      <point x="349" y="246"/>
      <point x="404" y="140"/>
      <point x="497" y="84"/>
      <point x="560" y="84" type="qcurve" smooth="yes"/>
      <point x="617" y="84"/>
      <point x="745" y="169"/>
      <point x="861" y="325"/>
      <point x="950" y="548"/>
      <point x="969" y="686" type="qcurve" smooth="yes"/>
      <point x="976" y="735"/>
      <point x="976" y="790" type="qcurve" smooth="yes"/>
      <point x="976" y="845"/>
      <point x="959" y="954"/>
      <point x="923" y="1054"/>
      <point x="864" y="1129"/>
      <point x="778" y="1173"/>
      <point x="721" y="1172" type="qcurve"/>
      <point x="709" y="1233" type="line"/>
      <point x="924" y="1290" type="line"/>
    </contour>
  </outline>
</glyph>
<glyph name="uni01B4" format="1">
  <advance width="946"/>
  <unicode hex="01B4"/>
  <outline>
    <contour>
      <point x="1481" y="1151" type="qcurve"/>
      <point x="1471" y="1139"/>
      <point x="1423" y="1105"/>
      <point x="1370" y="1072"/>
      <point x="1324" y="1049"/>
      <point x="1317" y="1049" type="qcurve" smooth="yes"/>
      <point x="1309" y="1049"/>
      <point x="1288" y="1076"/>
      <point x="1259" y="1109"/>
      <point x="1221" y="1137"/>
      <point x="1196" y="1137" type="qcurve" smooth="yes"/>
      <point x="1138" y="1137"/>
      <point x="1027" y="1045"/>
      <point x="918" y="888"/>
      <point x="811" y="679"/>
      <point x="702" y="443"/>
      <point x="589" y="194"/>
      <point x="470" y="-42"/>
      <point x="342" y="-251"/>
      <point x="203" y="-408"/>
      <point x="52" y="-500"/>
      <point x="-32" y="-500" type="qcurve" smooth="yes"/>
      <point x="-61" y="-500"/>
      <point x="-115" y="-491"/>
      <point x="-156" y="-477"/>
      <point x="-181" y="-458"/>
      <point x="-181" y="-449" type="qcurve" smooth="yes"/>
      <point x="-181" y="-437"/>
      <point x="-162" y="-392"/>
      <point x="-134" y="-346"/>
      <point x="-101" y="-307"/>
      <point x="-87" y="-301" type="qcurve"/>
      <point x="-68" y="-316"/>
      <point x="-28" y="-333"/>
      <point x="8" y="-342"/>
      <point x="38" y="-344"/>
      <point x="48" y="-344" type="qcurve" smooth="yes"/>
      <point x="93" y="-344"/>
      <point x="176" y="-295"/>
      <point x="256" y="-208"/>
      <point x="333" y="-86"/>
      <point x="371" y="-14" type="qcurve"/>
      <point x="360" y="46"/>
      <point x="331" y="188"/>
      <point x="297" y="337"/>
      <point x="260" y="484"/>
      <point x="224" y="612"/>
      <point x="190" y="715"/>
      <point x="176" y="745" type="qcurve" smooth="yes"/>
      <point x="153" y="796"/>
      <point x="121" y="827"/>
      <point x="104" y="827" type="qcurve" smooth="yes"/>
      <point x="95" y="827"/>
      <point x="62" y="819"/>
      <point x="30" y="810"/>
      <point x="6" y="803"/>
      <point x="6" y="803" type="qcurve"/>
      <point x="-6" y="840" type="line"/>
      <point x="36" y="859"/>
      <point x="112" y="894"/>
      <point x="173" y="920"/>
      <point x="219" y="936"/>
      <point x="231" y="936" type="qcurve" smooth="yes"/>
      <point x="245" y="936"/>
      <point x="266" y="922"/>
      <point x="286" y="892"/>
      <point x="305" y="843"/>
      <point x="317" y="809" type="qcurve" smooth="yes"/>
      <point x="335" y="758"/>
      <point x="377" y="623"/>
      <point x="419" y="467"/>
      <point x="461" y="297"/>
      <point x="479" y="212" type="qcurve"/>
      <point x="531" y="328"/>
      <point x="639" y="573"/>
      <point x="754" y="806"/>
      <point x="880" y="1013"/>
      <point x="1021" y="1169"/>
      <point x="1178" y="1260"/>
      <point x="1268" y="1260" type="qcurve" smooth="yes"/>
      <point x="1300" y="1260"/>
      <point x="1366" y="1229"/>
      <point x="1424" y="1190"/>
      <point x="1469" y="1155"/>
    </contour>
  </outline>
</glyph>
<glyph name="uni01B6" format="1">
  <advance width="776"/>
  <unicode hex="01B6"/>
  <outline>
    <contour>
      <point x="690" y="420" type="line"/>
      <point x="424" y="420" type="line"/>
      <point x="379" y="355"/>
      <point x="285" y="221"/>
      <point x="229" y="150" type="qcurve"/>
      <point x="232" y="152"/>
      <point x="280" y="166"/>
      <point x="311" y="166" type="qcurve" smooth="yes"/>
      <point x="331" y="166"/>
      <point x="398" y="147"/>
      <point x="478" y="123"/>
      <point x="561" y="104"/>
      <point x="598" y="104" type="qcurve" smooth="yes"/>
      <point x="607" y="104"/>
      <point x="633" y="109"/>
      <point x="663" y="131"/>
      <point x="699" y="175"/>
      <point x="719" y="213" type="qcurve"/>
      <point x="754" y="193" type="line"/>
      <point x="726" y="131"/>
      <point x="684" y="49"/>
      <point x="635" y="0"/>
      <point x="571" y="-20"/>
      <point x="522" y="-20" type="qcurve" smooth="yes"/>
      <point x="473" y="-20"/>
      <point x="385" y="1"/>
      <point x="307" y="26"/>
      <point x="236" y="47"/>
      <point x="205" y="47" type="qcurve" smooth="yes"/>
      <point x="189" y="47"/>
      <point x="155" y="37"/>
      <point x="112" y="17"/>
      <point x="56" y="-12"/>
      <point x="18" y="-31" type="qcurve"/>
      <point x="-4" y="2" type="line"/>
      <point x="68" y="89"/>
      <point x="226" y="309"/>
      <point x="302" y="420" type="qcurve"/>
      <point x="133" y="420" type="line"/>
      <point x="114" y="445" type="line"/>
      <point x="120" y="460"/>
      <point x="136" y="496"/>
      <point x="145" y="510" type="qcurve"/>
      <point x="364" y="510" type="line"/>
      <point x="427" y="601"/>
      <point x="532" y="751"/>
      <point x="569" y="795" type="qcurve"/>
      <point x="268" y="795" type="line" smooth="yes"/>
      <point x="244" y="795"/>
      <point x="211" y="786"/>
      <point x="184" y="759"/>
      <point x="160" y="708"/>
      <point x="145" y="666" type="qcurve"/>
      <point x="106" y="674" type="line"/>
      <point x="125" y="764"/>
      <point x="162" y="893"/>
      <point x="170" y="936" type="qcurve"/>
      <point x="189" y="931"/>
      <point x="233" y="915"/>
      <point x="268" y="915" type="qcurve" smooth="yes"/>
      <point x="756" y="915" type="line"/>
      <point x="776" y="885" type="line"/>
      <point x="689" y="791"/>
      <point x="551" y="606"/>
      <point x="485" y="510" type="qcurve"/>
      <point x="702" y="510" type="line"/>
      <point x="721" y="488" type="line"/>
    </contour>
  </outline>
</glyph>
<glyph name="uni01BA" format="1">
  <advance width="798"/>
  <unicode hex="01BA"/>
  <outline>
    <contour>
      <point x="663" y="254" type="qcurve" smooth="yes"/>
      <point x="656" y="205"/>
      <point x="614" y="127"/>
      <point x="537" y="62"/>
      <point x="424" y="11"/>
      <point x="345" y="-11" type="qcurve" smooth="yes"/>
      <point x="258" y="-35"/>
      <point x="155" y="-83"/>
      <point x="100" y="-133"/>
      <point x="81" y="-183"/>
      <point x="78" y="-209" type="qcurve" smooth="yes"/>
      <point x="72" y="-249"/>
      <point x="100" y="-317"/>
      <point x="153" y="-368"/>
      <point x="226" y="-397"/>
      <point x="266" y="-397" type="qcurve" smooth="yes"/>
      <point x="327" y="-397"/>
      <point x="413" y="-358"/>
      <point x="466" y="-298"/>
      <point x="484" y="-226"/>
      <point x="477" y="-194" type="qcurve"/>
      <point x="519" y="-175"/>
      <point x="585" y="-153"/>
      <point x="621" y="-147" type="qcurve"/>
      <point x="641" y="-177" type="line"/>
      <point x="640" y="-207"/>
      <point x="604" y="-279"/>
      <point x="545" y="-350"/>
      <point x="465" y="-416"/>
      <point x="372" y="-467"/>
      <point x="272" y="-499"/>
      <point x="222" y="-500" type="qcurve" smooth="yes"/>
      <point x="150" y="-502"/>
      <point x="38" y="-457"/>
      <point x="-36" y="-379"/>
      <point x="-70" y="-276"/>
      <point x="-62" y="-219" type="qcurve" smooth="yes"/>
      <point x="-56" y="-177"/>
      <point x="-22" y="-103"/>
      <point x="55" y="-36"/>
      <point x="184" y="25"/>
      <point x="285" y="54" type="qcurve" smooth="yes"/>
      <point x="355" y="75"/>
      <point x="442" y="110"/>
      <point x="491" y="146"/>
      <point x="511" y="187"/>
      <point x="515" y="214" type="qcurve" smooth="yes"/>
      <point x="518" y="240"/>
      <point x="506" y="296"/>
      <point x="470" y="343"/>
      <point x="405" y="373"/>
      <point x="355" y="373" type="qcurve" smooth="yes"/>
      <point x="293" y="373"/>
      <point x="186" y="319"/>
      <point x="134" y="282" type="qcurve"/>
      <point x="129" y="287"/>
      <point x="112" y="317"/>
      <point x="109" y="325" type="qcurve"/>
      <point x="544" y="795" type="line"/>
      <point x="255" y="795" type="line" smooth="yes"/>
      <point x="234" y="795"/>
      <point x="201" y="789"/>
      <point x="171" y="764"/>
      <point x="141" y="713"/>
      <point x="123" y="668" type="qcurve"/>
      <point x="87" y="678" type="line"/>
      <point x="152" y="939" type="line"/>
      <point x="181" y="923"/>
      <point x="248" y="915"/>
      <point x="305" y="915" type="qcurve" smooth="yes"/>
      <point x="736" y="915" type="line"/>
      <point x="757" y="880" type="line"/>
      <point x="371" y="459" type="line"/>
      <point x="394" y="465"/>
      <point x="438" y="472"/>
      <point x="460" y="472" type="qcurve" smooth="yes"/>
      <point x="497" y="472"/>
      <point x="576" y="446"/>
      <point x="637" y="392"/>
      <point x="670" y="310"/>
    </contour>
  </outline>
</glyph>
<glyph name="uni01C0" format="1">
  <advance width="461"/>
  <unicode hex="01C0"/>
  <outline>
    <contour>
      <point x="261" y="20" type="qcurve"/>
      <point x="252" y="12"/>
      <point x="210" y="-6"/>
      <point x="163" y="-23"/>
      <point x="119" y="-37"/>
      <point x="107" y="-41" type="qcurve"/>
      <point x="79" y="-19" type="line"/>
      <point x="88" y="30"/>
      <point x="116" y="189"/>
      <point x="148" y="388"/>
      <point x="181" y="613"/>
      <point x="213" y="843"/>
      <point x="239" y="1067"/>
      <point x="257" y="1261"/>
      <point x="263" y="1414"/>
      <point x="258" y="1459" type="qcurve"/>
      <point x="271" y="1467"/>
      <point x="316" y="1486"/>
      <point x="365" y="1502"/>
      <point x="409" y="1516"/>
      <point x="423" y="1520" type="qcurve"/>
      <point x="451" y="1498" type="line"/>
      <point x="442" y="1448"/>
      <point x="416" y="1286"/>
      <point x="386" y="1087"/>
      <point x="353" y="862"/>
      <point x="322" y="632"/>
      <point x="294" y="409"/>
      <point x="273" y="216"/>
      <point x="261" y="64"/>
    </contour>
  </outline>
</glyph>
<glyph name="uni01C1" format="1">
  <advance width="790"/>
  <unicode hex="01C1"/>
  <outline>
    <contour>
      <point x="590" y="20" type="qcurve"/>
      <point x="581" y="12"/>
      <point x="539" y="-6"/>
      <point x="492" y="-23"/>
      <point x="448" y="-37"/>
      <point x="436" y="-41" type="qcurve"/>
      <point x="408" y="-19" type="line"/>
      <point x="417" y="30"/>
      <point x="445" y="189"/>
      <point x="477" y="388"/>
      <point x="510" y="613"/>
      <point x="542" y="843"/>
      <point x="568" y="1067"/>
      <point x="586" y="1261"/>
      <point x="592" y="1414"/>
      <point x="587" y="1459" type="qcurve"/>
      <point x="600" y="1467"/>
      <point x="645" y="1486"/>
      <point x="694" y="1502"/>
      <point x="738" y="1516"/>
      <point x="752" y="1520" type="qcurve"/>
      <point x="780" y="1498" type="line"/>
      <point x="771" y="1448"/>
      <point x="745" y="1286"/>
      <point x="715" y="1087"/>
      <point x="682" y="862"/>
      <point x="651" y="632"/>
      <point x="623" y="409"/>
      <point x="602" y="216"/>
      <point x="590" y="64"/>
    </contour>
    <contour>
      <point x="261" y="20" type="qcurve"/>
      <point x="252" y="12"/>
      <point x="210" y="-6"/>
      <point x="163" y="-23"/>
      <point x="119" y="-37"/>
      <point x="107" y="-41" type="qcurve"/>
      <point x="79" y="-19" type="line"/>
      <point x="88" y="30"/>
      <point x="116" y="189"/>
      <point x="148" y="388"/>
      <point x="181" y="613"/>
      <point x="213" y="843"/>
      <point x="239" y="1067"/>
      <point x="257" y="1261"/>
      <point x="263" y="1414"/>
      <point x="258" y="1459" type="qcurve"/>
      <point x="271" y="1467"/>
      <point x="316" y="1486"/>
      <point x="365" y="1502"/>
      <point x="409" y="1516"/>
      <point x="423" y="1520" type="qcurve"/>
      <point x="451" y="1498" type="line"/>
      <point x="442" y="1448"/>
      <point x="416" y="1286"/>
      <point x="386" y="1087"/>
      <point x="353" y="862"/>
      <point x="322" y="632"/>
      <point x="294" y="409"/>
      <point x="273" y="216"/>
      <point x="261" y="64"/>
    </contour>
  </outline>
</glyph>
